{
.appVersion = "1264";
copyright = "Copyright 2017 Google Inc. All Rights Reserved.";
customParameters = (
{
name = glyphOrder;
value = (
.notdef,
NULL,
CR,
space,
uni00A0,
hyphen,
hyphentwo,
uni200B,
ZWJ,
ZWNJ,
uni25CC,
ktVSCBindu,
ktVSAnusvara,
ktVSVisarga,
ktA,
ktAA,
ktI,
ktII,
ktU,
ktUU,
ktE,
ktAI,
ktO,
ktAU,
ktKa,
ktKHa,
ktGa,
ktGHa,
ktNGa,
ktCa,
ktCHa,
ktJa,
ktJHa,
ktNYa,
ktTTa,
ktTTHa,
ktDDa,
ktDDDHa,
ktDDHa,
ktRHa,
ktNNa,
ktTa,
ktTHa,
ktDa,
ktDHa,
ktNa,
ktPa,
ktPHa,
ktBa,
ktBHa,
ktMa,
ktYa,
ktRa,
ktLa,
ktVa,
ktSHa,
ktSSa,
ktSa,
ktHa,
ktVSAA,
ktVSI,
ktVSII,
ktVSU,
ktVSUU,
ktVSE,
ktVSAI,
ktVSO,
ktVSAU,
ktVirama,
ktNukta,
ktABB,
ktENU,
ktNUM,
ktDanda,
ktDDanda,
ktKII,
ktSU,
ktSUU,
ktVSAIm,
ktVSEm,
ktKHU.alt1,
ktKU.alt1,
ktGU.alt1,
ktVSOm,
ktVSAUm,
ktJII,
ktCHII,
ktHU,
ktHUU,
ktHII,
ktZero,
ktOne,
ktTwo,
ktThree,
ktFour,
ktFive,
ktSix,
ktSeven,
ktEight,
ktNine,
ktPTa,
ktKKa,
ktPRa,
ktGa.half,
ktGHU.alt1,
ktJU.alt1,
ktJHU,
ktJHUU,
ktJHII,
ktTTII,
ktTTHII,
ktDDII,
ktDDHII,
ktDII,
ktLII,
ktDDDHII,
ktCU.alt1,
ktRHII,
ktNNU.alt1,
ktTU.alt1,
ktNU.alt1,
ktTHU.alt1,
ktDHU.alt1,
ktPU.alt1,
ktBU.alt1,
ktPHII,
ktBHU.alt1,
ktMU.alt1,
ktYU.alt1,
ktYUU,
ktRU.alt1,
ktVU.alt1,
ktVUU,
ktSHU.alt1,
ktSSU.alt1,
ktSU.alt1,
ktKa.half,
ktKHa.half,
ktGHa.half,
ktCa.half,
ktKMa,
ktKYa,
ktKRa,
ktGRa,
ktJa.half,
ktNNa.half,
ktTa.half,
ktTHa.half,
ktDHa.half,
ktNa.half,
ktPa.half,
ktPHa.half,
ktBa.half,
ktBHa.half,
ktMa.half,
ktYa.half,
ktVa.half,
ktSHa.half,
ktSSa.half,
ktSa.half,
ktTTRa,
ktSEC,
ktDblSEC,
ktVSI.alt2,
ktVSI.alt3,
ktVSI.alt4,
ktVSI.alt5,
ktVSI.alt6,
ktVSI.alt7,
ktVSI.alt8,
ktVSI.alt9,
ktVSI.alt10,
ktVSI.alt11,
ktVSI.alt12,
ktVSI.alt13,
ktVSI.alt14,
ktKTHa,
ktKKII,
ktKRII,
ktKHRa,
ktGHRa,
ktCRa,
ktTHRa,
ktDHRa,
ktBRa,
ktMRa,
ktSSRa,
ktSRa,
ktBHRa,
ktJRa,
ktTTRII,
ktBHYa,
ktNYa.half,
ktKSa,
ktTRa,
ktJRII,
ktVRa,
ktNGa.half,
ktCHa.half,
ktJHa.half,
ktTTa.half,
ktTTHa.half,
ktDDa.half,
ktDDDHa.half,
ktDDHa.half,
ktRHa.half,
ktDa.half,
ktRa.half,
ktLa.half,
ktHa.half,

glyphs = (
{
glyphname = .notdef;
lastChange = "2019-10-25 13:21:48 +0000";
layers = (
{
layerId = UUID0;
paths = (
{
closed = 1;
nodes = (
"505 0 LINE",
"505 714 LINE",
"94 714 LINE",
"94 0 LINE"
);
},
{
closed = 1;
nodes = (
"145 663 LINE",
"454 663 LINE",
"454 51 LINE",
"145 51 LINE"
);
}
);
width = 600;
}
);
},
{
glyphname = hyphen;
lastChange = "2019-10-25 13:21:48 +0000";
layers = (
{
layerId = UUID0;
paths = (
{
closed = 1;
nodes = (
"282 229 LINE",
"282 307 LINE",
"40 307 LINE",
"40 229 LINE"
);
}
);
width = 322;
}
);
leftKerningGroup = hyphen.right;
rightKerningGroup = hyphen.left;
unicode = 002D;
},
{
glyphname = hyphentwo;
lastChange = "2019-10-25 13:21:48 +0000";
layers = (
{
layerId = UUID0;
paths = (
{
closed = 1;
nodes = (
"282 229 LINE",
"282 307 LINE",
"40 307 LINE",
"40 229 LINE"
);
}
);
width = 322;
}
);
widthMetricsKey = "=hyphen";
unicode = 2010;
},
{
glyphname = uni25CC;
lastChange = "2019-10-25 13:21:48 +0000";
layers = (
{
layerId = UUID0;
paths = (
{
closed = 1;
nodes = (
"199 522 OFFCURVE",
"187 510 OFFCURVE",
"187 496 CURVE SMOOTH",
"187 482 OFFCURVE",
"199 470 OFFCURVE",
"213 470 CURVE SMOOTH",
"227 470 OFFCURVE",
"239 482 OFFCURVE",
"239 496 CURVE SMOOTH",
"239 510 OFFCURVE",
"227 522 OFFCURVE",
"213 522 CURVE SMOOTH"
);
},
{
closed = 1;
nodes = (
"367 522 OFFCURVE",
"355 510 OFFCURVE",
"355 496 CURVE SMOOTH",
"355 482 OFFCURVE",
"367 470 OFFCURVE",
"381 470 CURVE SMOOTH",
"395 470 OFFCURVE",
"407 482 OFFCURVE",
"407 496 CURVE SMOOTH",
"407 510 OFFCURVE",
"395 522 OFFCURVE",
"381 522 CURVE SMOOTH"
);
},
{
closed = 1;
nodes = (
"199 112 OFFCURVE",
"187 100 OFFCURVE",
"187 86 CURVE SMOOTH",
"187 72 OFFCURVE",
"199 60 OFFCURVE",
"213 60 CURVE SMOOTH",
"227 60 OFFCURVE",
"239 72 OFFCURVE",
"239 86 CURVE SMOOTH",
"239 100 OFFCURVE",
"227 112 OFFCURVE",
"213 112 CURVE SMOOTH"
);
},
{
closed = 1;
nodes = (
"367 112 OFFCURVE",
"355 100 OFFCURVE",
"355 86 CURVE SMOOTH",
"355 72 OFFCURVE",
"367 60 OFFCURVE",
"381 60 CURVE SMOOTH",
"395 60 OFFCURVE",
"407 72 OFFCURVE",
"407 86 CURVE SMOOTH",
"407 100 OFFCURVE",
"395 112 OFFCURVE",
"381 112 CURVE SMOOTH"
);
},
{
closed = 1;
nodes = (
"283 540 OFFCURVE",
"271 528 OFFCURVE",
"271 514 CURVE SMOOTH",
"271 500 OFFCURVE",
"283 488 OFFCURVE",
"297 488 CURVE SMOOTH",
"311 488 OFFCURVE",
"323 500 OFFCURVE",
"323 514 CURVE SMOOTH",
"323 528 OFFCURVE",
"311 540 OFFCURVE",
"297 540 CURVE SMOOTH"
);
},
{
closed = 1;
nodes = (
"283 94 OFFCURVE",
"271 82 OFFCURVE",
"271 68 CURVE SMOOTH",
"271 54 OFFCURVE",
"283 42 OFFCURVE",
"297 42 CURVE SMOOTH",
"311 42 OFFCURVE",
"323 54 OFFCURVE",
"323 68 CURVE SMOOTH",
"323 82 OFFCURVE",
"311 94 OFFCURVE",
"297 94 CURVE SMOOTH"
);
},
{
closed = 1;
nodes = (
"48 277 OFFCURVE",
"60 265 OFFCURVE",
"74 265 CURVE SMOOTH",
"88 265 OFFCURVE",
"100 277 OFFCURVE",
"100 291 CURVE SMOOTH",
"100 305 OFFCURVE",
"88 317 OFFCURVE",
"74 317 CURVE SMOOTH",
"60 317 OFFCURVE",
"48 305 OFFCURVE",
"48 291 CURVE SMOOTH"
);
},
{
closed = 1;
nodes = (
"494 277 OFFCURVE",
"506 265 OFFCURVE",
"520 265 CURVE SMOOTH",
"534 265 OFFCURVE",
"546 277 OFFCURVE",
"546 291 CURVE SMOOTH",
"546 305 OFFCURVE",
"534 317 OFFCURVE",
"520 317 CURVE SMOOTH",
"506 317 OFFCURVE",
"494 305 OFFCURVE",
"494 291 CURVE SMOOTH"
);
},
{
closed = 1;
nodes = (
"113 119 OFFCURVE",
"125 107 OFFCURVE",
"139 107 CURVE SMOOTH",
"153 107 OFFCURVE",
"165 119 OFFCURVE",
"165 133 CURVE SMOOTH",
"165 147 OFFCURVE",
"153 159 OFFCURVE",
"139 159 CURVE SMOOTH",
"125 159 OFFCURVE",
"113 147 OFFCURVE",
"113 133 CURVE SMOOTH"
);
},
{
closed = 1;
nodes = (
"113 435 OFFCURVE",
"125 423 OFFCURVE",
"139 423 CURVE SMOOTH",
"153 423 OFFCURVE",
"165 435 OFFCURVE",
"165 449 CURVE SMOOTH",
"165 463 OFFCURVE",
"153 475 OFFCURVE",
"139 475 CURVE SMOOTH",
"125 475 OFFCURVE",
"113 463 OFFCURVE",
"113 449 CURVE SMOOTH"
);
},
{
closed = 1;
nodes = (
"429 119 OFFCURVE",
"441 107 OFFCURVE",
"455 107 CURVE SMOOTH",
"469 107 OFFCURVE",
"481 119 OFFCURVE",
"481 133 CURVE SMOOTH",
"481 147 OFFCURVE",
"469 159 OFFCURVE",
"455 159 CURVE SMOOTH",
"441 159 OFFCURVE",
"429 147 OFFCURVE",
"429 133 CURVE SMOOTH"
);
},
{
closed = 1;
nodes = (
"429 435 OFFCURVE",
"441 423 OFFCURVE",
"455 423 CURVE SMOOTH",
"469 423 OFFCURVE",
"481 435 OFFCURVE",
"481 449 CURVE SMOOTH",
"481 463 OFFCURVE",
"469 475 OFFCURVE",
"455 475 CURVE SMOOTH",
"441 475 OFFCURVE",
"429 463 OFFCURVE",
"429 449 CURVE SMOOTH"
);
},
{
closed = 1;
nodes = (
"66 193 OFFCURVE",
"78 181 OFFCURVE",
"92 181 CURVE SMOOTH",
"106 181 OFFCURVE",
"118 193 OFFCURVE",
"118 207 CURVE SMOOTH",
"118 221 OFFCURVE",
"106 233 OFFCURVE",
"92 233 CURVE SMOOTH",
"78 233 OFFCURVE",
"66 221 OFFCURVE",
"66 207 CURVE SMOOTH"
);
},
{
closed = 1;
nodes = (
"66 361 OFFCURVE",
"78 349 OFFCURVE",
"92 349 CURVE SMOOTH",
"106 349 OFFCURVE",
"118 361 OFFCURVE",
"118 375 CURVE SMOOTH",
"118 389 OFFCURVE",
"106 401 OFFCURVE",
"92 401 CURVE SMOOTH",
"78 401 OFFCURVE",
"66 389 OFFCURVE",
"66 375 CURVE SMOOTH"
);
},
{
closed = 1;
nodes = (
"476 193 OFFCURVE",
"488 181 OFFCURVE",
"502 181 CURVE SMOOTH",
"516 181 OFFCURVE",
"528 193 OFFCURVE",
"528 207 CURVE SMOOTH",
"528 221 OFFCURVE",
"516 233 OFFCURVE",
"502 233 CURVE SMOOTH",
"488 233 OFFCURVE",
"476 221 OFFCURVE",
"476 207 CURVE SMOOTH"
);
},
{
closed = 1;
nodes = (
"476 361 OFFCURVE",
"488 349 OFFCURVE",
"502 349 CURVE SMOOTH",
"516 349 OFFCURVE",
"528 361 OFFCURVE",
"528 375 CURVE SMOOTH",
"528 389 OFFCURVE",
"516 401 OFFCURVE",
"502 401 CURVE SMOOTH",
"488 401 OFFCURVE",
"476 389 OFFCURVE",
"476 375 CURVE SMOOTH"
);
}
);
width = 594;
}
);
unicode = 25CC;
category = Letter;
},
{
glyphname = ktVSCBindu;
lastChange = "2019-10-25 13:21:48 +0000";
layers = (
{
layerId = UUID0;
paths = (
{
closed = 1;
nodes = (
"-53 702 OFFCURVE",
"-6 761 OFFCURVE",
"25 813 CURVE",
"-43 854 LINE",
"-68 813 OFFCURVE",
"-98 772 OFFCURVE",
"-164 772 CURVE SMOOTH",
"-221 772 OFFCURVE",
"-266 807 OFFCURVE",
"-320 859 CURVE",
"-363 819 LINE",
"-310 757 OFFCURVE",
"-233 702 OFFCURVE",
"-151 702 CURVE SMOOTH"
);
},
{
closed = 1;
nodes = (
"-140 849 OFFCURVE",
"-120 869 OFFCURVE",
"-120 899 CURVE SMOOTH",
"-120 931 OFFCURVE",
"-140 950 OFFCURVE",
"-170 950 CURVE SMOOTH",
"-202 950 OFFCURVE",
"-221 931 OFFCURVE",
"-221 899 CURVE SMOOTH",
"-221 869 OFFCURVE",
"-202 849 OFFCURVE",
"-170 849 CURVE SMOOTH"
);
}
);
width = 0;
}
);
unicode = 11080;
script = kthi;
category = Mark;
},
{
glyphname = ktVSAnusvara;
lastChange = "2019-10-25 13:21:48 +0000";
layers = (
{
layerId = UUID0;
paths = (
{
closed = 1;
nodes = (
"-73 732 OFFCURVE",
"-52 755 OFFCURVE",
"-52 792 CURVE SMOOTH",
"-52 830 OFFCURVE",
"-73 851 OFFCURVE",
"-107 851 CURVE SMOOTH",
"-142 851 OFFCURVE",
"-161 830 OFFCURVE",
"-161 792 CURVE SMOOTH",
"-161 755 OFFCURVE",
"-141 732 OFFCURVE",
"-107 732 CURVE SMOOTH"
);
}
);
width = 0;
}
);
unicode = 11081;
script = kthi;
category = Mark;
},
{
glyphname = ktVSVisarga;
lastChange = "2019-10-25 13:21:48 +0000";
layers = (
{
layerId = UUID0;
paths = (
{
closed = 1;
nodes = (
"137 410 OFFCURVE",
"158 433 OFFCURVE",
"158 470 CURVE SMOOTH",
"158 508 OFFCURVE",
"137 529 OFFCURVE",
"103 529 CURVE SMOOTH",
"68 529 OFFCURVE",
"49 508 OFFCURVE",
"49 470 CURVE SMOOTH",
"49 433 OFFCURVE",
"69 410 OFFCURVE",
"103 410 CURVE SMOOTH"
);
},
{
closed = 1;
nodes = (
"137 107 OFFCURVE",
"158 130 OFFCURVE",
"158 167 CURVE SMOOTH",
"158 205 OFFCURVE",
"137 226 OFFCURVE",
"103 226 CURVE SMOOTH",
"68 226 OFFCURVE",
"49 205 OFFCURVE",
"49 167 CURVE SMOOTH",
"49 130 OFFCURVE",
"69 107 OFFCURVE",
"103 107 CURVE SMOOTH"
);
}
);
width = 226;
}
);
unicode = 11082;
script = kthi;
category = Letter;
},
{
glyphname = ktA;
lastChange = "2019-10-25 13:21:48 +0000";
layers = (
{
layerId = UUID0;
paths = (
{
closed = 1;
nodes = (
"536 0 LINE",
"536 622 LINE",
"455 622 LINE",
"455 281 LINE",
"390 242 LINE",
"348 274 OFFCURVE",
"312 302 OFFCURVE",
"283 328 CURVE",
"334 371 OFFCURVE",
"368 421 OFFCURVE",
"368 486 CURVE SMOOTH",
"368 546 OFFCURVE",
"326 627 OFFCURVE",
"229 627 CURVE SMOOTH",
"159 627 OFFCURVE",
"106 579 OFFCURVE",
"106 503 CURVE SMOOTH",
"106 447 OFFCURVE",
"134 396 OFFCURVE",
"178 347 CURVE",
"138 323 OFFCURVE",
"89 301 OFFCURVE",
"39 279 CURVE",
"75 208 LINE",
"132 235 OFFCURVE",
"188 262 OFFCURVE",
"235 292 CURVE",
"266 265 OFFCURVE",
"300 238 OFFCURVE",
"336 210 CURVE",
"154 103 LINE",
"197 39 LINE",
"455 205 LINE",
"458 205 LINE",
"457 200 OFFCURVE",
"455 182 OFFCURVE",
"455 148 CURVE SMOOTH",
"455 0 LINE"
);
},
{
closed = 1;
nodes = (
"201 418 OFFCURVE",
"187 452 OFFCURVE",
"187 488 CURVE SMOOTH",
"187 527 OFFCURVE",
"207 556 OFFCURVE",
"239 556 CURVE SMOOTH",
"271 556 OFFCURVE",
"287 529 OFFCURVE",
"287 496 CURVE SMOOTH",
"287 451 OFFCURVE",
"265 415 OFFCURVE",
"229 384 CURVE"
);
}
);
width = 619;
}
);
unicode = 11083;
script = kthi;
category = Letter;
},
{
glyphname = ktAA;
lastChange = "2019-10-25 13:21:48 +0000";
layers = (
{
layerId = UUID0;
paths = (
{
closed = 1;
nodes = (
"536 0 LINE",
"536 622 LINE",
"455 622 LINE",
"455 281 LINE",
"390 242 LINE",
"348 274 OFFCURVE",
"312 302 OFFCURVE",
"283 328 CURVE",
"334 371 OFFCURVE",
"368 421 OFFCURVE",
"368 486 CURVE SMOOTH",
"368 546 OFFCURVE",
"326 627 OFFCURVE",
"229 627 CURVE SMOOTH",
"159 627 OFFCURVE",
"106 579 OFFCURVE",
"106 503 CURVE SMOOTH",
"106 447 OFFCURVE",
"134 396 OFFCURVE",
"178 347 CURVE",
"138 323 OFFCURVE",
"89 301 OFFCURVE",
"39 279 CURVE",
"75 208 LINE",
"132 235 OFFCURVE",
"188 262 OFFCURVE",
"235 292 CURVE",
"266 265 OFFCURVE",
"300 238 OFFCURVE",
"336 210 CURVE",
"154 103 LINE",
"197 39 LINE",
"455 205 LINE",
"458 205 LINE",
"457 200 OFFCURVE",
"455 182 OFFCURVE",
"455 148 CURVE SMOOTH",
"455 0 LINE"
);
},
{
closed = 1;
nodes = (
"201 418 OFFCURVE",
"187 452 OFFCURVE",
"187 488 CURVE SMOOTH",
"187 527 OFFCURVE",
"207 556 OFFCURVE",
"239 556 CURVE SMOOTH",
"271 556 OFFCURVE",
"287 529 OFFCURVE",
"287 496 CURVE SMOOTH",
"287 451 OFFCURVE",
"265 415 OFFCURVE",
"229 384 CURVE"
);
},
{
closed = 1;
nodes = (
"782 0 LINE",
"782 622 LINE",
"702 622 LINE",
"702 0 LINE"
);
}
);
width = 860;
}
);
unicode = 11084;
script = kthi;
category = Letter;
},
{
glyphname = ktI;
lastChange = "2019-10-25 13:21:48 +0000";
layers = (
{
layerId = UUID0;
paths = (
{
closed = 1;
nodes = (
"447 -147 LINE",
"426 -94 OFFCURVE",
"401 -32 OFFCURVE",
"372 25 CURVE",
"425 55 OFFCURVE",
"462 104 OFFCURVE",
"462 169 CURVE SMOOTH",
"462 342 OFFCURVE",
"196 345 OFFCURVE",
"196 465 CURVE SMOOTH",
"196 522 OFFCURVE",
"255 556 OFFCURVE",
"355 556 CURVE",
"350 627 LINE",
"200 627 OFFCURVE",
"115 570 OFFCURVE",
"115 472 CURVE SMOOTH",
"115 290 OFFCURVE",
"381 304 OFFCURVE",
"381 174 CURVE SMOOTH",
"381 135 OFFCURVE",
"363 107 OFFCURVE",
"335 90 CURVE",
"288 164 OFFCURVE",
"229 219 OFFCURVE",
"159 219 CURVE SMOOTH",
"98 219 OFFCURVE",
"59 176 OFFCURVE",
"59 125 CURVE SMOOTH",
"59 45 OFFCURVE",
"149 -5 OFFCURVE",
"244 -5 CURVE SMOOTH",
"264 -5 OFFCURVE",
"285 -3 OFFCURVE",
"304 1 CURVE",
"332 -51 OFFCURVE",
"358 -112 OFFCURVE",
"382 -174 CURVE"
);
},
{
closed = 1;
nodes = (
"192 66 OFFCURVE",
"139 80 OFFCURVE",
"139 115 CURVE SMOOTH",
"139 130 OFFCURVE",
"149 144 OFFCURVE",
"169 144 CURVE SMOOTH",
"202 144 OFFCURVE",
"234 114 OFFCURVE",
"266 67 CURVE",
"257 66 OFFCURVE",
"248 66 OFFCURVE",
"239 66 CURVE SMOOTH"
);
},
{
closed = 0;
nodes = (
"220 -5 LINE SMOOTH"
);
}
);
width = 518;
}
);
unicode = 11085;
script = kthi;
category = Letter;
},
{
glyphname = ktII;
lastChange = "2019-10-25 13:21:48 +0000";
layers = (
{
layerId = UUID0;
paths = (
{
closed = 1;
nodes = (
"447 -147 LINE",
"426 -94 OFFCURVE",
"401 -32 OFFCURVE",
"372 25 CURVE",
"425 55 OFFCURVE",
"462 104 OFFCURVE",
"462 169 CURVE SMOOTH",
"462 342 OFFCURVE",
"196 345 OFFCURVE",
"196 465 CURVE SMOOTH",
"196 522 OFFCURVE",
"255 556 OFFCURVE",
"355 556 CURVE",
"348 625 LINE",
"285 656 OFFCURVE",
"229 699 OFFCURVE",
"229 758 CURVE SMOOTH",
"229 791 OFFCURVE",
"253 813 OFFCURVE",
"292 813 CURVE SMOOTH",
"328 813 OFFCURVE",
"363 795 OFFCURVE",
"385 782 CURVE",
"418 827 LINE",
"384 858 OFFCURVE",
"335 884 OFFCURVE",
"277 884 CURVE SMOOTH",
"211 884 OFFCURVE",
"149 846 OFFCURVE",
"149 772 CURVE SMOOTH",
"149 711 OFFCURVE",
"196 656 OFFCURVE",
"255 618 CURVE",
"165 598 OFFCURVE",
"115 547 OFFCURVE",
"115 472 CURVE SMOOTH",
"115 290 OFFCURVE",
"381 304 OFFCURVE",
"381 174 CURVE SMOOTH",
"381 135 OFFCURVE",
"363 107 OFFCURVE",
"335 90 CURVE",
"288 164 OFFCURVE",
"229 219 OFFCURVE",
"159 219 CURVE SMOOTH",
"98 219 OFFCURVE",
"59 176 OFFCURVE",
"59 125 CURVE SMOOTH",
"59 45 OFFCURVE",
"149 -5 OFFCURVE",
"244 -5 CURVE SMOOTH",
"264 -5 OFFCURVE",
"285 -3 OFFCURVE",
"304 1 CURVE",
"332 -51 OFFCURVE",
"358 -112 OFFCURVE",
"382 -174 CURVE"
);
},
{
closed = 1;
nodes = (
"192 66 OFFCURVE",
"139 80 OFFCURVE",
"139 115 CURVE SMOOTH",
"139 130 OFFCURVE",
"149 144 OFFCURVE",
"169 144 CURVE SMOOTH",
"202 144 OFFCURVE",
"234 114 OFFCURVE",
"266 67 CURVE",
"257 66 OFFCURVE",
"248 66 OFFCURVE",
"239 66 CURVE SMOOTH"
);
},
{
closed = 0;
nodes = (
"240 -5 LINE SMOOTH"
);
}
);
width = 518;
}
);
unicode = 11086;
script = kthi;
category = Letter;
},
{
glyphname = ktU;
lastChange = "2019-10-25 13:21:48 +0000";
layers = (
{
layerId = UUID0;
paths = (
{
closed = 1;
nodes = (
"381 -5 OFFCURVE",
"463 62 OFFCURVE",
"463 164 CURVE SMOOTH",
"463 239 OFFCURVE",
"427 292 OFFCURVE",
"362 339 CURVE",
"406 368 OFFCURVE",
"436 408 OFFCURVE",
"436 468 CURVE SMOOTH",
"436 557 OFFCURVE",
"369 627 OFFCURVE",
"263 627 CURVE SMOOTH",
"203 627 OFFCURVE",
"157 603 OFFCURVE",
"111 570 CURVE",
"147 512 LINE",
"191 541 OFFCURVE",
"223 561 OFFCURVE",
"269 561 CURVE SMOOTH",
"329 561 OFFCURVE",
"355 521 OFFCURVE",
"355 480 CURVE SMOOTH",
"355 385 OFFCURVE",
"270 366 OFFCURVE",
"154 343 CURVE",
"176 277 LINE",
"218 285 OFFCURVE",
"263 295 OFFCURVE",
"304 311 CURVE",
"361 270 OFFCURVE",
"382 226 OFFCURVE",
"382 173 CURVE SMOOTH",
"382 102 OFFCURVE",
"325 66 OFFCURVE",
"270 66 CURVE SMOOTH",
"179 66 OFFCURVE",
"124 147 OFFCURVE",
"84 205 CURVE",
"34 172 LINE",
"74 106 OFFCURVE",
"147 -5 OFFCURVE",
"280 -5 CURVE SMOOTH"
);
},
{
closed = 0;
nodes = (
"280 -5 LINE SMOOTH"
);
}
);
width = 502;
}
);
unicode = 11087;
script = kthi;
category = Letter;
},
{
glyphname = ktUU;
lastChange = "2019-10-25 13:21:48 +0000";
layers = (
{
layerId = UUID0;
paths = (
{
closed = 1;
nodes = (
"381 -5 OFFCURVE",
"463 62 OFFCURVE",
"463 164 CURVE SMOOTH",
"463 231 OFFCURVE",
"434 280 OFFCURVE",
"382 324 CURVE",
"421 334 OFFCURVE",
"459 342 OFFCURVE",
"500 342 CURVE SMOOTH",
"569 342 OFFCURVE",
"597 298 OFFCURVE",
"597 239 CURVE SMOOTH",
"597 173 OFFCURVE",
"567 98 OFFCURVE",
"531 27 CURVE",
"611 2 LINE",
"650 80 OFFCURVE",
"677 156 OFFCURVE",
"677 235 CURVE SMOOTH",
"677 328 OFFCURVE",
"620 413 OFFCURVE",
"495 413 CURVE SMOOTH",
"470 413 OFFCURVE",
"445 408 OFFCURVE",
"420 399 CURVE",
"430 419 OFFCURVE",
"436 441 OFFCURVE",
"436 468 CURVE SMOOTH",
"436 557 OFFCURVE",
"369 627 OFFCURVE",
"263 627 CURVE SMOOTH",
"203 627 OFFCURVE",
"157 603 OFFCURVE",
"111 570 CURVE",
"147 512 LINE",
"191 541 OFFCURVE",
"223 561 OFFCURVE",
"269 561 CURVE SMOOTH",
"329 561 OFFCURVE",
"355 521 OFFCURVE",
"355 480 CURVE SMOOTH",
"355 385 OFFCURVE",
"270 366 OFFCURVE",
"154 343 CURVE",
"176 277 LINE",
"218 285 OFFCURVE",
"263 295 OFFCURVE",
"304 311 CURVE",
"361 270 OFFCURVE",
"382 226 OFFCURVE",
"382 173 CURVE SMOOTH",
"382 102 OFFCURVE",
"325 66 OFFCURVE",
"270 66 CURVE SMOOTH",
"179 66 OFFCURVE",
"124 147 OFFCURVE",
"84 205 CURVE",
"34 172 LINE",
"74 106 OFFCURVE",
"147 -5 OFFCURVE",
"280 -5 CURVE SMOOTH"
);
}
);
width = 726;
}
);
unicode = 11088;
script = kthi;
category = Letter;
},
{
glyphname = ktE;
lastChange = "2019-10-25 13:21:48 +0000";
layers = (
{
layerId = UUID0;
paths = (
{
closed = 1;
nodes = (
"549 -85 LINE",
"303 25 OFFCURVE",
"162 90 OFFCURVE",
"154 268 CURVE",
"212 217 OFFCURVE",
"270 187 OFFCURVE",
"340 187 CURVE SMOOTH",
"430 187 OFFCURVE",
"486 246 OFFCURVE",
"486 337 CURVE SMOOTH",
"486 622 LINE",
"405 622 LINE",
"405 350 LINE SMOOTH",
"405 293 OFFCURVE",
"382 258 OFFCURVE",
"328 258 CURVE SMOOTH",
"258 258 OFFCURVE",
"198 308 OFFCURVE",
"154 352 CURVE",
"154 622 LINE",
"73 622 LINE",
"73 293 LINE SMOOTH",
"73 46 OFFCURVE",
"261 -35 OFFCURVE",
"518 -148 CURVE"
);
}
);
width = 569;
}
);
unicode = 11089;
script = kthi;
category = Letter;
},
{
glyphname = ktAI;
lastChange = "2019-10-25 13:21:48 +0000";
layers = (
{
layerId = UUID0;
paths = (
{
closed = 1;
nodes = (
"549 -85 LINE",
"303 25 OFFCURVE",
"162 90 OFFCURVE",
"154 268 CURVE",
"212 217 OFFCURVE",
"270 187 OFFCURVE",
"340 187 CURVE SMOOTH",
"430 187 OFFCURVE",
"486 246 OFFCURVE",
"486 337 CURVE SMOOTH",
"486 622 LINE",
"405 622 LINE",
"405 350 LINE SMOOTH",
"405 293 OFFCURVE",
"382 258 OFFCURVE",
"328 258 CURVE SMOOTH",
"258 258 OFFCURVE",
"198 308 OFFCURVE",
"154 352 CURVE",
"154 622 LINE",
"73 622 LINE",
"73 293 LINE SMOOTH",
"73 46 OFFCURVE",
"261 -35 OFFCURVE",
"518 -148 CURVE"
);
},
{
closed = 1;
nodes = (
"485 727 LINE",
"66 906 LINE",
"31 834 LINE",
"459 674 LINE"
);
}
);
width = 567;
}
);
unicode = 1108A;
script = kthi;
category = Letter;
},
{
glyphname = ktO;
lastChange = "2019-10-25 13:21:48 +0000";
layers = (
{
layerId = UUID0;
paths = (
{
closed = 1;
nodes = (
"536 0 LINE",
"536 622 LINE",
"455 622 LINE",
"455 281 LINE",
"390 242 LINE",
"348 274 OFFCURVE",
"312 302 OFFCURVE",
"283 328 CURVE",
"334 371 OFFCURVE",
"368 421 OFFCURVE",
"368 486 CURVE SMOOTH",
"368 546 OFFCURVE",
"326 627 OFFCURVE",
"229 627 CURVE SMOOTH",
"159 627 OFFCURVE",
"106 579 OFFCURVE",
"106 503 CURVE SMOOTH",
"106 447 OFFCURVE",
"134 396 OFFCURVE",
"178 347 CURVE",
"138 323 OFFCURVE",
"89 301 OFFCURVE",
"39 279 CURVE",
"75 208 LINE",
"132 235 OFFCURVE",
"188 262 OFFCURVE",
"235 292 CURVE",
"266 265 OFFCURVE",
"300 238 OFFCURVE",
"336 210 CURVE",
"154 103 LINE",
"197 39 LINE",
"455 205 LINE",
"458 205 LINE",
"457 200 OFFCURVE",
"455 182 OFFCURVE",
"455 148 CURVE SMOOTH",
"455 0 LINE"
);
},
{
closed = 1;
nodes = (
"201 418 OFFCURVE",
"187 452 OFFCURVE",
"187 488 CURVE SMOOTH",
"187 527 OFFCURVE",
"207 556 OFFCURVE",
"239 556 CURVE SMOOTH",
"271 556 OFFCURVE",
"287 529 OFFCURVE",
"287 496 CURVE SMOOTH",
"287 451 OFFCURVE",
"265 415 OFFCURVE",
"229 384 CURVE"
);
},
{
closed = 1;
nodes = (
"782 0 LINE",
"782 622 LINE",
"702 622 LINE",
"702 0 LINE"
);
},
{
closed = 1;
nodes = (
"757 727 LINE",
"338 906 LINE",
"303 834 LINE",
"731 674 LINE"
);
}
);
width = 865;
}
);
unicode = 1108B;
script = kthi;
category = Letter;
},
{
glyphname = ktAU;
lastChange = "2019-10-25 13:21:48 +0000";
layers = (
{
layerId = UUID0;
paths = (
{
closed = 1;
nodes = (
"536 0 LINE",
"536 622 LINE",
"455 622 LINE",
"455 281 LINE",
"390 242 LINE",
"348 274 OFFCURVE",
"312 302 OFFCURVE",
"283 328 CURVE",
"334 371 OFFCURVE",
"368 421 OFFCURVE",
"368 486 CURVE SMOOTH",
"368 546 OFFCURVE",
"326 627 OFFCURVE",
"229 627 CURVE SMOOTH",
"159 627 OFFCURVE",
"106 579 OFFCURVE",
"106 503 CURVE SMOOTH",
"106 447 OFFCURVE",
"134 396 OFFCURVE",
"178 347 CURVE",
"138 323 OFFCURVE",
"89 301 OFFCURVE",
"39 279 CURVE",
"75 208 LINE",
"132 235 OFFCURVE",
"188 262 OFFCURVE",
"235 292 CURVE",
"266 265 OFFCURVE",
"300 238 OFFCURVE",
"336 210 CURVE",
"154 103 LINE",
"197 39 LINE",
"455 205 LINE",
"458 205 LINE",
"457 200 OFFCURVE",
"455 182 OFFCURVE",
"455 148 CURVE SMOOTH",
"455 0 LINE"
);
},
{
closed = 1;
nodes = (
"201 418 OFFCURVE",
"187 452 OFFCURVE",
"187 488 CURVE SMOOTH",
"187 527 OFFCURVE",
"207 556 OFFCURVE",
"239 556 CURVE SMOOTH",
"271 556 OFFCURVE",
"287 529 OFFCURVE",
"287 496 CURVE SMOOTH",
"287 451 OFFCURVE",
"265 415 OFFCURVE",
"229 384 CURVE"
);
},
{
closed = 1;
nodes = (
"782 0 LINE",
"782 622 LINE",
"702 622 LINE",
"702 0 LINE"
);
},
{
closed = 1;
nodes = (
"760 727 LINE",
"740 797 OFFCURVE",
"702 873 OFFCURVE",
"550 1024 CURVE",
"496 971 LINE",
"608 860 OFFCURVE",
"666 812 OFFCURVE",
"699 750 CURVE",
"695 746 LINE",
"681 756 OFFCURVE",
"648 775 OFFCURVE",
"611 791 CURVE SMOOTH",
"341 906 LINE",
"306 834 LINE",
"734 674 LINE"
);
}
);
width = 865;
}
);
unicode = 1108C;
script = kthi;
category = Letter;
},
{
glyphname = ktKa;
lastChange = "2019-10-25 13:21:48 +0000";
layers = (
{
layerId = UUID0;
paths = (
{
closed = 1;
nodes = (
"436 0 LINE",
"436 294 LINE",
"474 337 OFFCURVE",
"514 374 OFFCURVE",
"560 374 CURVE SMOOTH",
"604 374 OFFCURVE",
"617 339 OFFCURVE",
"617 298 CURVE SMOOTH",
"617 227 OFFCURVE",
"591 152 OFFCURVE",
"568 99 CURVE",
"645 74 LINE",
"670 131 OFFCURVE",
"698 211 OFFCURVE",
"698 289 CURVE SMOOTH",
"698 372 OFFCURVE",
"649 445 OFFCURVE",
"552 445 CURVE SMOOTH",
"505 445 OFFCURVE",
"466 425 OFFCURVE",
"436 398 CURVE",
"433 398 LINE",
"434 403 OFFCURVE",
"436 424 OFFCURVE",
"436 464 CURVE SMOOTH",
"436 622 LINE",
"355 622 LINE",
"355 441 LINE",
"323 463 OFFCURVE",
"279 484 OFFCURVE",
"221 484 CURVE SMOOTH",
"126 484 OFFCURVE",
"46 424 OFFCURVE",
"46 331 CURVE SMOOTH",
"46 233 OFFCURVE",
"126 166 OFFCURVE",
"224 166 CURVE SMOOTH",
"273 166 OFFCURVE",
"319 186 OFFCURVE",
"355 214 CURVE",
"357 214 LINE",
"356 210 OFFCURVE",
"355 191 OFFCURVE",
"355 157 CURVE SMOOTH",
"355 0 LINE"
);
},
{
closed = 1;
nodes = (
"168 236 OFFCURVE",
"127 264 OFFCURVE",
"127 321 CURVE SMOOTH",
"127 377 OFFCURVE",
"175 413 OFFCURVE",
"230 413 CURVE SMOOTH",
"278 413 OFFCURVE",
"320 398 OFFCURVE",
"355 380 CURVE",
"355 311 LINE",
"317 271 OFFCURVE",
"268 236 OFFCURVE",
"214 236 CURVE SMOOTH"
);
}
);
width = 756;
}
);
unicode = 1108D;
script = kthi;
category = Letter;
},
{
glyphname = ktKHa;
lastChange = "2019-10-25 13:21:48 +0000";
layers = (
{
layerId = UUID0;
paths = (
{
closed = 1;
nodes = (
"648 0 LINE",
"648 622 LINE",
"567 622 LINE",
"567 342 LINE",
"542 312 OFFCURVE",
"504 283 OFFCURVE",
"455 283 CURVE SMOOTH",
"410 283 OFFCURVE",
"388 301 OFFCURVE",
"388 369 CURVE SMOOTH",
"388 622 LINE",
"308 622 LINE",
"308 401 LINE SMOOTH",
"308 375 OFFCURVE",
"310 353 OFFCURVE",
"314 332 CURVE",
"290 306 OFFCURVE",
"255 283 OFFCURVE",
"211 283 CURVE SMOOTH",
"168 283 OFFCURVE",
"144 308 OFFCURVE",
"144 369 CURVE SMOOTH",
"144 622 LINE",
"63 622 LINE",
"63 377 LINE SMOOTH",
"63 270 OFFCURVE",
"133 212 OFFCURVE",
"228 212 CURVE SMOOTH",
"280 212 OFFCURVE",
"326 232 OFFCURVE",
"352 255 CURVE",
"354 255 LINE",
"381 227 OFFCURVE",
"422 212 OFFCURVE",
"472 212 CURVE SMOOTH",
"511 212 OFFCURVE",
"547 228 OFFCURVE",
"567 246 CURVE",
"570 246 LINE",
"569 237 OFFCURVE",
"567 207 OFFCURVE",
"567 162 CURVE SMOOTH",
"567 0 LINE"
);
}
);
width = 731;
}
);
unicode = 1108E;
script = kthi;
category = Letter;
},
{
glyphname = ktGa;
lastChange = "2019-10-25 13:21:48 +0000";
layers = (
{
layerId = UUID0;
paths = (
{
closed = 1;
nodes = (
"293 131 OFFCURVE",
"362 187 OFFCURVE",
"362 295 CURVE SMOOTH",
"362 441 OFFCURVE",
"288 567 OFFCURVE",
"247 628 CURVE",
"183 592 LINE",
"220 535 OFFCURVE",
"282 433 OFFCURVE",
"282 312 CURVE SMOOTH",
"282 247 OFFCURVE",
"259 202 OFFCURVE",
"213 202 CURVE SMOOTH",
"162 202 OFFCURVE",
"118 262 OFFCURVE",
"93 300 CURVE",
"39 265 LINE",
"69 214 OFFCURVE",
"135 131 OFFCURVE",
"221 131 CURVE SMOOTH"
);
},
{
closed = 1;
nodes = (
"525 0 LINE",
"525 622 LINE",
"444 622 LINE",
"444 0 LINE"
);
}
);
width = 608;
}
);
unicode = 1108F;
script = kthi;
category = Letter;
},
{
glyphname = ktGHa;
lastChange = "2019-10-25 13:21:48 +0000";
layers = (
{
layerId = UUID0;
paths = (
{
closed = 1;
nodes = (
"521 0 LINE",
"521 622 LINE",
"441 622 LINE",
"441 221 LINE",
"391 186 OFFCURVE",
"332 168 OFFCURVE",
"272 168 CURVE SMOOTH",
"206 168 OFFCURVE",
"149 193 OFFCURVE",
"149 246 CURVE SMOOTH",
"149 308 OFFCURVE",
"222 340 OFFCURVE",
"348 340 CURVE",
"338 421 LINE",
"290 421 OFFCURVE",
"244 415 OFFCURVE",
"205 402 CURVE",
"182 423 OFFCURVE",
"166 447 OFFCURVE",
"166 475 CURVE SMOOTH",
"166 530 OFFCURVE",
"215 556 OFFCURVE",
"321 556 CURVE",
"315 627 LINE",
"131 627 OFFCURVE",
"84 561 OFFCURVE",
"84 490 CURVE SMOOTH",
"84 444 OFFCURVE",
"115 406 OFFCURVE",
"149 379 CURVE",
"99 351 OFFCURVE",
"68 310 OFFCURVE",
"68 256 CURVE SMOOTH",
"68 157 OFFCURVE",
"165 98 OFFCURVE",
"283 98 CURVE SMOOTH",
"341 98 OFFCURVE",
"394 110 OFFCURVE",
"441 135 CURVE",
"443 135 LINE",
"442 131 OFFCURVE",
"441 113 OFFCURVE",
"441 79 CURVE SMOOTH",
"441 0 LINE"
);
}
);
width = 604;
}
);
unicode = 11090;
script = kthi;
category = Letter;
},
{
glyphname = ktNGa;
lastChange = "2019-10-25 13:21:48 +0000";
layers = (
{
layerId = UUID0;
paths = (
{
closed = 1;
nodes = (
"464 -5 OFFCURVE",
"549 73 OFFCURVE",
"549 175 CURVE SMOOTH",
"549 266 OFFCURVE",
"497 335 OFFCURVE",
"383 386 CURVE",
"460 608 LINE",
"378 627 LINE",
"292 361 LINE",
"383 326 OFFCURVE",
"469 270 OFFCURVE",
"469 180 CURVE SMOOTH",
"469 114 OFFCURVE",
"422 66 OFFCURVE",
"343 66 CURVE SMOOTH",
"231 66 OFFCURVE",
"154 159 OFFCURVE",
"154 287 CURVE SMOOTH",
"154 406 OFFCURVE",
"191 492 OFFCURVE",
"248 609 CURVE",
"171 627 LINE",
"111 511 OFFCURVE",
"73 420 OFFCURVE",
"73 292 CURVE SMOOTH",
"73 129 OFFCURVE",
"185 -5 OFFCURVE",
"348 -5 CURVE SMOOTH"
);
}
);
width = 613;
}
);
unicode = 11091;
script = kthi;
category = Letter;
},
{
glyphname = ktCa;
lastChange = "2019-10-25 13:21:48 +0000";
layers = (
{
layerId = UUID0;
paths = (
{
closed = 1;
nodes = (
"478 0 LINE",
"478 622 LINE",
"397 622 LINE",
"397 242 LINE",
"365 217 OFFCURVE",
"323 202 OFFCURVE",
"268 202 CURVE SMOOTH",
"214 202 OFFCURVE",
"169 223 OFFCURVE",
"134 260 CURVE",
"193 311 OFFCURVE",
"267 375 OFFCURVE",
"267 460 CURVE SMOOTH",
"267 537 OFFCURVE",
"216 585 OFFCURVE",
"158 627 CURVE",
"115 579 LINE",
"159 546 OFFCURVE",
"187 514 OFFCURVE",
"187 468 CURVE SMOOTH",
"187 396 OFFCURVE",
"103 338 OFFCURVE",
"29 279 CURVE",
"69 226 OFFCURVE",
"152 131 OFFCURVE",
"278 131 CURVE SMOOTH",
"326 131 OFFCURVE",
"365 140 OFFCURVE",
"397 155 CURVE",
"400 155 LINE",
"399 151 OFFCURVE",
"397 133 OFFCURVE",
"397 99 CURVE SMOOTH",
"397 0 LINE"
);
}
);
width = 561;
}
);
unicode = 11092;
script = kthi;
category = Letter;
},
{
glyphname = ktCHa;
lastChange = "2019-10-25 13:21:48 +0000";
layers = (
{
layerId = UUID0;
paths = (
{
closed = 1;
nodes = (
"405 -5 OFFCURVE",
"487 32 OFFCURVE",
"549 90 CURVE",
"579 58 OFFCURVE",
"613 26 OFFCURVE",
"650 -5 CURVE",
"695 43 LINE",
"657 77 OFFCURVE",
"623 109 OFFCURVE",
"594 141 CURVE",
"654 221 OFFCURVE",
"685 323 OFFCURVE",
"685 421 CURVE SMOOTH",
"685 525 OFFCURVE",
"629 627 OFFCURVE",
"522 627 CURVE SMOOTH",
"427 627 OFFCURVE",
"375 558 OFFCURVE",
"375 446 CURVE SMOOTH",
"375 351 OFFCURVE",
"418 249 OFFCURVE",
"500 147 CURVE",
"447 96 OFFCURVE",
"376 65 OFFCURVE",
"292 65 CURVE SMOOTH",
"200 65 OFFCURVE",
"144 111 OFFCURVE",
"144 178 CURVE SMOOTH",
"144 247 OFFCURVE",
"203 292 OFFCURVE",
"328 292 CURVE",
"318 372 LINE",
"273 372 OFFCURVE",
"231 365 OFFCURVE",
"195 353 CURVE",
"170 378 OFFCURVE",
"156 409 OFFCURVE",
"156 446 CURVE SMOOTH",
"156 506 OFFCURVE",
"191 556 OFFCURVE",
"301 556 CURVE",
"296 627 LINE",
"125 627 OFFCURVE",
"75 541 OFFCURVE",
"75 460 CURVE SMOOTH",
"75 403 OFFCURVE",
"106 356 OFFCURVE",
"140 325 CURVE",
"92 292 OFFCURVE",
"63 246 OFFCURVE",
"63 188 CURVE SMOOTH",
"63 65 OFFCURVE",
"170 -5 OFFCURVE",
"303 -5 CURVE SMOOTH"
);
},
{
closed = 1;
nodes = (
"485 280 OFFCURVE",
"456 357 OFFCURVE",
"456 441 CURVE SMOOTH",
"456 515 OFFCURVE",
"482 556 OFFCURVE",
"527 556 CURVE SMOOTH",
"581 556 OFFCURVE",
"604 498 OFFCURVE",
"604 421 CURVE SMOOTH",
"604 337 OFFCURVE",
"583 261 OFFCURVE",
"544 201 CURVE"
);
}
);
width = 753;
}
);
unicode = 11093;
script = kthi;
category = Letter;
},
{
glyphname = ktJa;
lastChange = "2019-10-25 13:21:48 +0000";
layers = (
{
layerId = UUID0;
paths = (
{
closed = 1;
nodes = (
"614 0 LINE",
"614 426 LINE SMOOTH",
"614 531 OFFCURVE",
"554 627 OFFCURVE",
"448 627 CURVE SMOOTH",
"346 627 OFFCURVE",
"297 563 OFFCURVE",
"297 446 CURVE SMOOTH",
"297 229 LINE SMOOTH",
"297 154 OFFCURVE",
"268 117 OFFCURVE",
"216 117 CURVE SMOOTH",
"169 117 OFFCURVE",
"145 151 OFFCURVE",
"145 228 CURVE SMOOTH",
"145 622 LINE",
"64 622 LINE",
"64 233 LINE SMOOTH",
"64 106 OFFCURVE",
"133 46 OFFCURVE",
"221 46 CURVE SMOOTH",
"317 46 OFFCURVE",
"377 114 OFFCURVE",
"377 224 CURVE SMOOTH",
"377 441 LINE SMOOTH",
"377 515 OFFCURVE",
"405 556 OFFCURVE",
"453 556 CURVE SMOOTH",
"517 556 OFFCURVE",
"533 500 OFFCURVE",
"533 431 CURVE SMOOTH",
"533 0 LINE"
);
}
);
width = 697;
}
);
unicode = 11094;
script = kthi;
category = Letter;
},
{
glyphname = ktJHa;
lastChange = "2019-10-25 13:21:48 +0000";
layers = (
{
layerId = UUID0;
paths = (
{
closed = 1;
nodes = (
"439 -198 OFFCURVE",
"510 -173 OFFCURVE",
"566 -146 CURVE",
"542 -79 LINE",
"498 -101 OFFCURVE",
"422 -127 OFFCURVE",
"342 -127 CURVE SMOOTH",
"208 -127 OFFCURVE",
"122 -47 OFFCURVE",
"122 62 CURVE SMOOTH",
"122 147 OFFCURVE",
"154 186 OFFCURVE",
"190 219 CURVE",
"191 218 LINE",
"188 209 OFFCURVE",
"186 197 OFFCURVE",
"186 183 CURVE SMOOTH",
"186 68 OFFCURVE",
"273 -5 OFFCURVE",
"391 -5 CURVE SMOOTH",
"447 -5 OFFCURVE",
"506 12 OFFCURVE",
"557 42 CURVE",
"532 114 LINE",
"485 83 OFFCURVE",
"435 65 OFFCURVE",
"380 65 CURVE SMOOTH",
"315 65 OFFCURVE",
"262 102 OFFCURVE",
"262 173 CURVE SMOOTH",
"262 269 OFFCURVE",
"351 292 OFFCURVE",
"485 292 CURVE",
"475 372 LINE",
"419 372 OFFCURVE",
"366 365 OFFCURVE",
"318 352 CURVE",
"292 377 OFFCURVE",
"278 409 OFFCURVE",
"278 446 CURVE SMOOTH",
"278 497 OFFCURVE",
"305 556 OFFCURVE",
"458 556 CURVE",
"453 627 LINE",
"286 627 OFFCURVE",
"197 568 OFFCURVE",
"197 460 CURVE SMOOTH",
"197 406 OFFCURVE",
"225 362 OFFCURVE",
"256 331 CURVE",
"125 278 OFFCURVE",
"42 177 OFFCURVE",
"42 67 CURVE SMOOTH",
"42 -84 OFFCURVE",
"176 -198 OFFCURVE",
"347 -198 CURVE SMOOTH"
);
}
);
width = 588;
}
);
unicode = 11095;
script = kthi;
category = Letter;
},
{
glyphname = ktNYa;
lastChange = "2019-10-25 13:21:48 +0000";
layers = (
{
layerId = UUID0;
paths = (
{
closed = 1;
nodes = (
"561 0 LINE",
"561 622 LINE",
"480 622 LINE",
"480 363 LINE",
"464 360 OFFCURVE",
"448 359 OFFCURVE",
"431 359 CURVE SMOOTH",
"417 359 OFFCURVE",
"403 359 OFFCURVE",
"390 361 CURVE",
"382 455 OFFCURVE",
"311 551 OFFCURVE",
"191 551 CURVE SMOOTH",
"132 551 OFFCURVE",
"83 528 OFFCURVE",
"37 488 CURVE",
"84 432 LINE",
"118 462 OFFCURVE",
"154 480 OFFCURVE",
"196 480 CURVE SMOOTH",
"272 480 OFFCURVE",
"310 418 OFFCURVE",
"310 350 CURVE SMOOTH",
"310 258 OFFCURVE",
"266 202 OFFCURVE",
"194 202 CURVE SMOOTH",
"142 202 OFFCURVE",
"108 224 OFFCURVE",
"67 263 CURVE",
"24 222 LINE",
"70 168 OFFCURVE",
"130 131 OFFCURVE",
"201 131 CURVE SMOOTH",
"299 131 OFFCURVE",
"369 198 OFFCURVE",
"386 295 CURVE",
"403 292 OFFCURVE",
"420 291 OFFCURVE",
"438 291 CURVE SMOOTH",
"452 291 OFFCURVE",
"466 292 OFFCURVE",
"480 293 CURVE",
"483 293 LINE",
"482 289 OFFCURVE",
"480 270 OFFCURVE",
"480 236 CURVE SMOOTH",
"480 0 LINE"
);
}
);
width = 644;
}
);
unicode = 11096;
script = kthi;
category = Letter;
},
{
glyphname = ktTTa;
lastChange = "2019-10-25 13:21:48 +0000";
layers = (
{
layerId = UUID0;
paths = (
{
closed = 1;
nodes = (
"371 -5 OFFCURVE",
"458 40 OFFCURVE",
"528 101 CURVE",
"477 162 LINE",
"421 114 OFFCURVE",
"351 66 OFFCURVE",
"260 66 CURVE SMOOTH",
"188 66 OFFCURVE",
"129 98 OFFCURVE",
"129 166 CURVE SMOOTH",
"129 298 OFFCURVE",
"361 348 OFFCURVE",
"361 504 CURVE SMOOTH",
"361 622 LINE",
"280 622 LINE",
"280 519 LINE SMOOTH",
"280 388 OFFCURVE",
"49 339 OFFCURVE",
"49 178 CURVE SMOOTH",
"49 75 OFFCURVE",
"147 -5 OFFCURVE",
"268 -5 CURVE SMOOTH"
);
}
);
width = 557;
}
);
unicode = 11097;
script = kthi;
category = Letter;
},
{
glyphname = ktTTHa;
lastChange = "2019-10-25 13:21:48 +0000";
layers = (
{
layerId = UUID0;
paths = (
{
closed = 1;
nodes = (
"385 -5 OFFCURVE",
"485 49 OFFCURVE",
"485 164 CURVE SMOOTH",
"485 336 OFFCURVE",
"205 339 OFFCURVE",
"205 465 CURVE SMOOTH",
"205 522 OFFCURVE",
"255 556 OFFCURVE",
"364 556 CURVE",
"358 627 LINE",
"209 627 OFFCURVE",
"124 565 OFFCURVE",
"124 472 CURVE SMOOTH",
"124 289 OFFCURVE",
"405 297 OFFCURVE",
"405 169 CURVE SMOOTH",
"405 97 OFFCURVE",
"341 66 OFFCURVE",
"272 66 CURVE SMOOTH",
"204 66 OFFCURVE",
"129 99 OFFCURVE",
"129 155 CURVE SMOOTH",
"129 177 OFFCURVE",
"144 194 OFFCURVE",
"171 194 CURVE SMOOTH",
"199 194 OFFCURVE",
"219 175 OFFCURVE",
"237 148 CURVE",
"293 183 LINE",
"264 231 OFFCURVE",
"225 265 OFFCURVE",
"162 265 CURVE SMOOTH",
"102 265 OFFCURVE",
"49 228 OFFCURVE",
"49 165 CURVE SMOOTH",
"49 71 OFFCURVE",
"149 -5 OFFCURVE",
"277 -5 CURVE SMOOTH"
);
}
);
width = 534;
}
);
unicode = 11098;
script = kthi;
category = Letter;
},
{
glyphname = ktDDa;
lastChange = "2019-10-25 13:21:48 +0000";
layers = (
{
layerId = UUID0;
paths = (
{
closed = 1;
nodes = (
"474 -5 OFFCURVE",
"545 81 OFFCURVE",
"545 185 CURVE SMOOTH",
"545 288 OFFCURVE",
"482 370 OFFCURVE",
"394 370 CURVE SMOOTH",
"341 370 OFFCURVE",
"277 347 OFFCURVE",
"211 347 CURVE",
"206 359 OFFCURVE",
"200 384 OFFCURVE",
"200 411 CURVE SMOOTH",
"200 518 OFFCURVE",
"285 556 OFFCURVE",
"395 556 CURVE",
"390 627 LINE",
"225 627 OFFCURVE",
"119 549 OFFCURVE",
"119 416 CURVE SMOOTH",
"119 339 OFFCURVE",
"173 276 OFFCURVE",
"265 276 CURVE SMOOTH",
"310 276 OFFCURVE",
"370 294 OFFCURVE",
"418 294 CURVE",
"454 270 OFFCURVE",
"464 232 OFFCURVE",
"464 194 CURVE SMOOTH",
"464 124 OFFCURVE",
"424 66 OFFCURVE",
"334 66 CURVE SMOOTH",
"240 66 OFFCURVE",
"179 138 OFFCURVE",
"106 245 CURVE",
"49 208 LINE",
"121 91 OFFCURVE",
"208 -5 OFFCURVE",
"345 -5 CURVE SMOOTH"
);
}
);
width = 594;
}
);
unicode = 11099;
script = kthi;
category = Letter;
},
{
glyphname = ktDDHa;
lastChange = "2019-10-25 13:21:48 +0000";
layers = (
{
layerId = UUID0;
paths = (
{
closed = 1;
nodes = (
"421 -5 OFFCURVE",
"533 56 OFFCURVE",
"533 157 CURVE SMOOTH",
"533 214 OFFCURVE",
"485 279 OFFCURVE",
"400 279 CURVE SMOOTH",
"327 279 OFFCURVE",
"272 232 OFFCURVE",
"272 169 CURVE SMOOTH",
"272 128 OFFCURVE",
"297 94 OFFCURVE",
"329 68 CURVE",
"316 67 OFFCURVE",
"303 66 OFFCURVE",
"290 66 CURVE SMOOTH",
"206 66 OFFCURVE",
"129 103 OFFCURVE",
"129 180 CURVE SMOOTH",
"129 314 OFFCURVE",
"361 349 OFFCURVE",
"361 519 CURVE SMOOTH",
"361 622 LINE",
"280 622 LINE",
"280 538 LINE SMOOTH",
"280 383 OFFCURVE",
"49 352 OFFCURVE",
"49 190 CURVE SMOOTH",
"49 76 OFFCURVE",
"164 -5 OFFCURVE",
"299 -5 CURVE SMOOTH"
);
},
{
closed = 1;
nodes = (
"366 103 OFFCURVE",
"353 126 OFFCURVE",
"353 155 CURVE SMOOTH",
"353 187 OFFCURVE",
"376 208 OFFCURVE",
"405 208 CURVE SMOOTH",
"434 208 OFFCURVE",
"452 187 OFFCURVE",
"452 162 CURVE SMOOTH",
"452 125 OFFCURVE",
"425 98 OFFCURVE",
"384 83 CURVE"
);
}
);
width = 582;
}
);
unicode = 1109B;
script = kthi;
category = Letter;
},
{
glyphname = ktNNa;
lastChange = "2019-10-25 13:21:48 +0000";
layers = (
{
layerId = UUID0;
paths = (
{
closed = 1;
nodes = (
"168 0 LINE",
"168 274 LINE",
"334 274 LINE",
"334 0 LINE",
"415 0 LINE",
"415 274 LINE",
"581 274 LINE",
"581 0 LINE",
"662 0 LINE",
"662 622 LINE",
"581 622 LINE",
"581 345 LINE",
"415 345 LINE",
"415 622 LINE",
"334 622 LINE",
"334 345 LINE",
"168 345 LINE",
"168 622 LINE",
"88 622 LINE",
"88 0 LINE"
);
}
);
width = 745;
}
);
unicode = 1109D;
script = kthi;
category = Letter;
},
{
glyphname = ktTa;
lastChange = "2019-10-25 13:21:48 +0000";
layers = (
{
layerId = UUID0;
paths = (
{
closed = 1;
nodes = (
"479 0 LINE",
"479 622 LINE",
"421 622 LINE",
"191 546 OFFCURVE",
"59 492 OFFCURVE",
"59 351 CURVE SMOOTH",
"59 272 OFFCURVE",
"105 184 OFFCURVE",
"167 97 CURVE",
"223 133 LINE",
"175 208 OFFCURVE",
"139 265 OFFCURVE",
"139 337 CURVE SMOOTH",
"139 450 OFFCURVE",
"254 484 OFFCURVE",
"400 528 CURVE",
"401 527 LINE",
"400 522 OFFCURVE",
"399 500 OFFCURVE",
"399 461 CURVE SMOOTH",
"399 0 LINE"
);
}
);
width = 562;
}
);
unicode = 1109E;
script = kthi;
category = Letter;
},
{
glyphname = ktTHa;
lastChange = "2019-10-25 13:21:48 +0000";
layers = (
{
layerId = UUID0;
paths = (
{
closed = 1;
nodes = (
"502 0 LINE",
"502 622 LINE",
"422 622 LINE",
"422 248 LINE",
"387 218 OFFCURVE",
"344 202 OFFCURVE",
"288 202 CURVE SMOOTH",
"232 202 OFFCURVE",
"182 225 OFFCURVE",
"148 260 CURVE",
"216 309 OFFCURVE",
"335 378 OFFCURVE",
"335 499 CURVE SMOOTH",
"335 571 OFFCURVE",
"280 627 OFFCURVE",
"203 627 CURVE SMOOTH",
"141 627 OFFCURVE",
"97 585 OFFCURVE",
"97 526 CURVE SMOOTH",
"97 472 OFFCURVE",
"126 427 OFFCURVE",
"187 380 CURVE",
"143 339 OFFCURVE",
"86 306 OFFCURVE",
"44 279 CURVE",
"84 226 OFFCURVE",
"169 131 OFFCURVE",
"298 131 CURVE SMOOTH",
"346 131 OFFCURVE",
"387 141 OFFCURVE",
"422 160 CURVE",
"424 160 LINE",
"423 155 OFFCURVE",
"422 137 OFFCURVE",
"422 104 CURVE SMOOTH",
"422 0 LINE"
);
},
{
closed = 1;
nodes = (
"190 456 OFFCURVE",
"172 484 OFFCURVE",
"172 516 CURVE SMOOTH",
"172 541 OFFCURVE",
"186 561 OFFCURVE",
"210 561 CURVE SMOOTH",
"237 561 OFFCURVE",
"255 536 OFFCURVE",
"255 507 CURVE SMOOTH",
"255 477 OFFCURVE",
"244 449 OFFCURVE",
"227 424 CURVE"
);
}
);
width = 585;
}
);
unicode = 1109F;
script = kthi;
category = Letter;
},
{
glyphname = ktDa;
lastChange = "2019-10-25 13:21:48 +0000";
layers = (
{
layerId = UUID0;
paths = (
{
closed = 1;
nodes = (
"325 -5 OFFCURVE",
"383 12 OFFCURVE",
"434 42 CURVE",
"410 114 LINE",
"363 83 OFFCURVE",
"312 65 OFFCURVE",
"258 65 CURVE SMOOTH",
"189 65 OFFCURVE",
"139 105 OFFCURVE",
"139 173 CURVE SMOOTH",
"139 269 OFFCURVE",
"228 292 OFFCURVE",
"362 292 CURVE",
"353 372 LINE",
"293 372 OFFCURVE",
"240 366 OFFCURVE",
"196 352 CURVE",
"170 377 OFFCURVE",
"156 409 OFFCURVE",
"156 446 CURVE SMOOTH",
"156 497 OFFCURVE",
"183 556 OFFCURVE",
"335 556 CURVE",
"330 627 LINE",
"164 627 OFFCURVE",
"75 568 OFFCURVE",
"75 460 CURVE SMOOTH",
"75 404 OFFCURVE",
"105 358 OFFCURVE",
"138 327 CURVE",
"88 296 OFFCURVE",
"59 250 OFFCURVE",
"59 183 CURVE SMOOTH",
"59 73 OFFCURVE",
"144 -5 OFFCURVE",
"269 -5 CURVE SMOOTH"
);
}
);
width = 444;
}
);
unicode = 110A0;
script = kthi;
category = Letter;
},
{
glyphname = ktDHa;
lastChange = "2019-10-25 13:21:48 +0000";
layers = (
{
layerId = UUID0;
paths = (
{
closed = 1;
nodes = (
"512 0 LINE",
"512 622 LINE",
"431 622 LINE",
"431 250 LINE",
"381 215 OFFCURVE",
"322 197 OFFCURVE",
"263 197 CURVE SMOOTH",
"196 197 OFFCURVE",
"139 223 OFFCURVE",
"139 275 CURVE SMOOTH",
"139 337 OFFCURVE",
"212 370 OFFCURVE",
"338 370 CURVE",
"193 627 LINE",
"127 590 LINE",
"224 439 LINE",
"127 418 OFFCURVE",
"59 365 OFFCURVE",
"59 286 CURVE SMOOTH",
"59 187 OFFCURVE",
"155 127 OFFCURVE",
"273 127 CURVE SMOOTH",
"331 127 OFFCURVE",
"384 139 OFFCURVE",
"431 165 CURVE",
"434 165 LINE",
"433 160 OFFCURVE",
"431 142 OFFCURVE",
"431 108 CURVE SMOOTH",
"431 0 LINE"
);
}
);
width = 595;
}
);
unicode = 110A1;
script = kthi;
category = Letter;
},
{
glyphname = ktNa;
lastChange = "2019-10-25 13:21:48 +0000";
layers = (
{
layerId = UUID0;
paths = (
{
closed = 1;
nodes = (
"519 0 LINE",
"519 622 LINE",
"460 622 LINE",
"236 541 OFFCURVE",
"44 404 OFFCURVE",
"44 256 CURVE SMOOTH",
"44 177 OFFCURVE",
"95 119 OFFCURVE",
"177 119 CURVE SMOOTH",
"250 119 OFFCURVE",
"302 173 OFFCURVE",
"302 250 CURVE SMOOTH",
"302 319 OFFCURVE",
"271 373 OFFCURVE",
"232 416 CURVE",
"291 463 OFFCURVE",
"366 504 OFFCURVE",
"438 532 CURVE",
"443 532 LINE",
"441 525 OFFCURVE",
"438 502 OFFCURVE",
"438 466 CURVE SMOOTH",
"438 0 LINE"
);
},
{
closed = 1;
nodes = (
"142 190 OFFCURVE",
"125 212 OFFCURVE",
"125 243 CURVE SMOOTH",
"125 287 OFFCURVE",
"147 330 OFFCURVE",
"183 370 CURVE",
"206 344 OFFCURVE",
"221 311 OFFCURVE",
"221 269 CURVE SMOOTH",
"221 212 OFFCURVE",
"196 190 OFFCURVE",
"168 190 CURVE SMOOTH"
);
}
);
width = 602;
}
);
unicode = 110A2;
script = kthi;
category = Letter;
},
{
glyphname = ktPa;
lastChange = "2019-10-25 13:21:48 +0000";
layers = (
{
layerId = UUID0;
paths = (
{
closed = 1;
nodes = (
"458 0 LINE",
"458 622 LINE",
"377 622 LINE",
"377 323 LINE",
"352 292 OFFCURVE",
"302 258 OFFCURVE",
"252 258 CURVE SMOOTH",
"199 258 OFFCURVE",
"159 289 OFFCURVE",
"159 369 CURVE SMOOTH",
"159 622 LINE",
"78 622 LINE",
"78 378 LINE SMOOTH",
"78 240 OFFCURVE",
"167 188 OFFCURVE",
"260 188 CURVE SMOOTH",
"304 188 OFFCURVE",
"350 203 OFFCURVE",
"377 226 CURVE",
"379 226 LINE",
"378 217 OFFCURVE",
"377 188 OFFCURVE",
"377 143 CURVE SMOOTH",
"377 0 LINE"
);
}
);
width = 541;
}
);
unicode = 110A3;
script = kthi;
category = Letter;
},
{
glyphname = ktPHa;
lastChange = "2019-10-25 13:21:48 +0000";
layers = (
{
layerId = UUID0;
paths = (
{
closed = 1;
nodes = (
"543 -24 OFFCURVE",
"620 21 OFFCURVE",
"620 95 CURVE SMOOTH",
"620 160 OFFCURVE",
"568 214 OFFCURVE",
"495 214 CURVE SMOOTH",
"442 214 OFFCURVE",
"397 175 OFFCURVE",
"397 121 CURVE SMOOTH",
"397 86 OFFCURVE",
"415 58 OFFCURVE",
"438 37 CURVE",
"433 37 LINE SMOOTH",
"336 37 OFFCURVE",
"210 134 OFFCURVE",
"156 189 CURVE",
"215 222 OFFCURVE",
"282 264 OFFCURVE",
"332 316 CURVE",
"400 283 OFFCURVE",
"477 258 OFFCURVE",
"544 240 CURVE",
"567 257 LINE",
"567 622 LINE",
"486 622 LINE",
"486 326 LINE",
"446 337 OFFCURVE",
"408 352 OFFCURVE",
"372 367 CURVE",
"392 399 OFFCURVE",
"404 434 OFFCURVE",
"404 473 CURVE SMOOTH",
"404 552 OFFCURVE",
"348 627 OFFCURVE",
"253 627 CURVE SMOOTH",
"188 627 OFFCURVE",
"140 586 OFFCURVE",
"140 523 CURVE SMOOTH",
"140 455 OFFCURVE",
"190 399 OFFCURVE",
"262 354 CURVE",
"208 301 OFFCURVE",
"126 258 OFFCURVE",
"46 210 CURVE",
"148 95 OFFCURVE",
"300 -24 OFFCURVE",
"448 -24 CURVE SMOOTH"
);
},
{
closed = 1;
nodes = (
"481 63 OFFCURVE",
"468 83 OFFCURVE",
"468 105 CURVE SMOOTH",
"468 127 OFFCURVE",
"484 143 OFFCURVE",
"504 143 CURVE SMOOTH",
"527 143 OFFCURVE",
"544 127 OFFCURVE",
"544 105 CURVE SMOOTH",
"544 78 OFFCURVE",
"526 59 OFFCURVE",
"498 47 CURVE"
);
},
{
closed = 1;
nodes = (
"252 436 OFFCURVE",
"220 472 OFFCURVE",
"220 513 CURVE SMOOTH",
"220 540 OFFCURVE",
"237 556 OFFCURVE",
"261 556 CURVE SMOOTH",
"303 556 OFFCURVE",
"324 518 OFFCURVE",
"324 482 CURVE SMOOTH",
"324 453 OFFCURVE",
"316 427 OFFCURVE",
"302 404 CURVE"
);
}
);
width = 703;
}
);
unicode = 110A4;
script = kthi;
category = Letter;
},
{
glyphname = ktBa;
lastChange = "2019-10-25 13:21:48 +0000";
layers = (
{
layerId = UUID0;
paths = (
{
closed = 1;
nodes = (
"485 0 LINE",
"485 622 LINE",
"404 622 LINE",
"404 287 LINE",
"366 254 OFFCURVE",
"315 232 OFFCURVE",
"259 232 CURVE SMOOTH",
"185 232 OFFCURVE",
"125 280 OFFCURVE",
"125 362 CURVE SMOOTH",
"125 439 OFFCURVE",
"182 489 OFFCURVE",
"256 489 CURVE SMOOTH",
"280 489 OFFCURVE",
"304 483 OFFCURVE",
"321 476 CURVE",
"348 540 LINE",
"321 554 OFFCURVE",
"294 566 OFFCURVE",
"247 566 CURVE SMOOTH",
"138 566 OFFCURVE",
"44 477 OFFCURVE",
"44 370 CURVE SMOOTH",
"44 253 OFFCURVE",
"135 162 OFFCURVE",
"269 162 CURVE SMOOTH",
"321 162 OFFCURVE",
"365 173 OFFCURVE",
"404 195 CURVE",
"407 195 LINE",
"406 191 OFFCURVE",
"404 172 OFFCURVE",
"404 138 CURVE SMOOTH",
"404 0 LINE"
);
}
);
width = 568;
}
);
unicode = 110A5;
script = kthi;
category = Letter;
},
{
glyphname = ktBHa;
lastChange = "2019-10-25 13:21:48 +0000";
layers = (
{
layerId = UUID0;
paths = (
{
closed = 1;
nodes = (
"557 0 LINE",
"557 622 LINE",
"499 622 LINE",
"429 586 OFFCURVE",
"358 547 OFFCURVE",
"296 506 CURVE",
"272 558 OFFCURVE",
"246 600 OFFCURVE",
"228 627 CURVE",
"165 621 OFFCURVE",
"92 600 OFFCURVE",
"54 586 CURVE",
"73 524 LINE",
"101 534 OFFCURVE",
"151 550 OFFCURVE",
"187 557 CURVE",
"203 531 OFFCURVE",
"221 500 OFFCURVE",
"237 464 CURVE",
"154 399 OFFCURVE",
"97 328 OFFCURVE",
"97 247 CURVE SMOOTH",
"97 170 OFFCURVE",
"149 104 OFFCURVE",
"230 104 CURVE SMOOTH",
"303 104 OFFCURVE",
"360 157 OFFCURVE",
"360 255 CURVE SMOOTH",
"360 319 OFFCURVE",
"345 381 OFFCURVE",
"325 437 CURVE",
"373 470 OFFCURVE",
"426 500 OFFCURVE",
"478 526 CURVE",
"479 524 LINE",
"478 514 OFFCURVE",
"477 487 OFFCURVE",
"477 451 CURVE SMOOTH",
"477 0 LINE"
);
},
{
closed = 1;
nodes = (
"194 175 OFFCURVE",
"178 197 OFFCURVE",
"178 233 CURVE SMOOTH",
"178 290 OFFCURVE",
"212 342 OFFCURVE",
"264 388 CURVE",
"273 353 OFFCURVE",
"279 314 OFFCURVE",
"279 274 CURVE SMOOTH",
"279 204 OFFCURVE",
"251 175 OFFCURVE",
"222 175 CURVE SMOOTH"
);
}
);
width = 640;
}
);
unicode = 110A6;
script = kthi;
category = Letter;
},
{
glyphname = ktMa;
lastChange = "2019-10-25 13:21:48 +0000";
layers = (
{
layerId = UUID0;
paths = (
{
closed = 1;
nodes = (
"516 0 LINE",
"516 622 LINE",
"457 622 LINE",
"402 548 OFFCURVE",
"343 511 OFFCURVE",
"240 459 CURVE",
"200 532 OFFCURVE",
"152 597 OFFCURVE",
"128 627 CURVE",
"71 585 LINE",
"96 554 OFFCURVE",
"144 492 OFFCURVE",
"181 424 CURVE",
"117 381 OFFCURVE",
"73 329 OFFCURVE",
"73 259 CURVE SMOOTH",
"73 178 OFFCURVE",
"131 134 OFFCURVE",
"194 134 CURVE SMOOTH",
"260 134 OFFCURVE",
"309 176 OFFCURVE",
"309 255 CURVE SMOOTH",
"309 297 OFFCURVE",
"294 345 OFFCURVE",
"274 392 CURVE",
"313 413 OFFCURVE",
"402 458 OFFCURVE",
"436 497 CURVE",
"437 495 LINE",
"436 488 OFFCURVE",
"435 466 OFFCURVE",
"435 429 CURVE SMOOTH",
"435 0 LINE"
);
},
{
closed = 1;
nodes = (
"168 205 OFFCURVE",
"153 221 OFFCURVE",
"153 250 CURVE SMOOTH",
"153 290 OFFCURVE",
"175 322 OFFCURVE",
"214 353 CURVE",
"226 323 OFFCURVE",
"233 293 OFFCURVE",
"233 267 CURVE SMOOTH",
"233 231 OFFCURVE",
"218 205 OFFCURVE",
"190 205 CURVE SMOOTH"
);
}
);
width = 599;
}
);
unicode = 110A7;
script = kthi;
category = Letter;
},
{
glyphname = ktYa;
lastChange = "2019-10-25 13:21:48 +0000";
layers = (
{
layerId = UUID0;
paths = (
{
closed = 1;
nodes = (
"471 0 LINE",
"471 622 LINE",
"391 622 LINE",
"391 236 LINE",
"348 209 OFFCURVE",
"299 192 OFFCURVE",
"241 192 CURVE SMOOTH",
"177 192 OFFCURVE",
"125 211 OFFCURVE",
"125 263 CURVE SMOOTH",
"125 344 OFFCURVE",
"282 378 OFFCURVE",
"282 469 CURVE SMOOTH",
"282 529 OFFCURVE",
"247 570 OFFCURVE",
"187 627 CURVE",
"139 584 LINE",
"180 543 OFFCURVE",
"201 521 OFFCURVE",
"201 482 CURVE SMOOTH",
"201 411 OFFCURVE",
"44 372 OFFCURVE",
"44 275 CURVE SMOOTH",
"44 186 OFFCURVE",
"139 121 OFFCURVE",
"251 121 CURVE SMOOTH",
"305 121 OFFCURVE",
"351 134 OFFCURVE",
"391 151 CURVE",
"393 149 LINE",
"392 146 OFFCURVE",
"391 128 OFFCURVE",
"391 94 CURVE SMOOTH",
"391 0 LINE"
);
},
{
closed = 1;
nodes = (
"269 -83 OFFCURVE",
"290 -60 OFFCURVE",
"290 -22 CURVE SMOOTH",
"290 15 OFFCURVE",
"269 36 OFFCURVE",
"234 36 CURVE SMOOTH",
"200 36 OFFCURVE",
"181 15 OFFCURVE",
"181 -22 CURVE SMOOTH",
"181 -60 OFFCURVE",
"201 -83 OFFCURVE",
"234 -83 CURVE SMOOTH"
);
}
);
width = 554;
}
);
unicode = 110A8;
script = kthi;
category = Letter;
},
{
glyphname = ktRa;
lastChange = "2019-10-25 13:21:48 +0000";
layers = (
{
layerId = UUID0;
paths = (
{
closed = 1;
nodes = (
"370 0 LINE",
"370 622 LINE",
"311 622 LINE",
"34 370 LINE",
"93 308 LINE",
"290 500 LINE",
"292 500 LINE",
"291 494 OFFCURVE",
"289 470 OFFCURVE",
"289 426 CURVE SMOOTH",
"289 0 LINE"
);
}
);
width = 453;
}
);
unicode = 110A9;
script = kthi;
category = Letter;
},
{
glyphname = ktLa;
lastChange = "2019-10-25 13:21:48 +0000";
layers = (
{
layerId = UUID0;
paths = (
{
closed = 1;
nodes = (
"440 -5 OFFCURVE",
"532 93 OFFCURVE",
"532 303 CURVE SMOOTH",
"532 491 OFFCURVE",
"459 627 OFFCURVE",
"297 627 CURVE SMOOTH",
"133 627 OFFCURVE",
"54 479 OFFCURVE",
"54 330 CURVE SMOOTH",
"54 125 OFFCURVE",
"145 -5 OFFCURVE",
"304 -5 CURVE SMOOTH"
);
},
{
closed = 1;
nodes = (
"225 66 OFFCURVE",
"157 118 OFFCURVE",
"143 221 CURVE",
"169 237 OFFCURVE",
"234 266 OFFCURVE",
"301 266 CURVE SMOOTH",
"368 266 OFFCURVE",
"417 245 OFFCURVE",
"447 229 CURVE",
"447 124 OFFCURVE",
"389 66 OFFCURVE",
"294 66 CURVE SMOOTH"
);
},
{
closed = 1;
nodes = (
"412 313 OFFCURVE",
"363 336 OFFCURVE",
"291 336 CURVE SMOOTH",
"231 336 OFFCURVE",
"170 316 OFFCURVE",
"134 297 CURVE",
"134 298 OFFCURVE",
"134 301 OFFCURVE",
"134 305 CURVE SMOOTH",
"134 467 OFFCURVE",
"204 556 OFFCURVE",
"306 556 CURVE SMOOTH",
"415 556 OFFCURVE",
"452 459 OFFCURVE",
"452 312 CURVE SMOOTH",
"452 307 OFFCURVE",
"452 298 OFFCURVE",
"452 292 CURVE"
);
}
);
width = 596;
}
);
unicode = 110AA;
script = kthi;
category = Letter;
},
{
glyphname = ktVa;
lastChange = "2019-10-25 13:21:48 +0000";
layers = (
{
layerId = UUID0;
paths = (
{
closed = 1;
nodes = (
"490 0 LINE",
"490 622 LINE",
"409 622 LINE",
"409 287 LINE",
"371 254 OFFCURVE",
"320 232 OFFCURVE",
"264 232 CURVE SMOOTH",
"189 232 OFFCURVE",
"129 280 OFFCURVE",
"129 362 CURVE SMOOTH",
"129 439 OFFCURVE",
"187 489 OFFCURVE",
"261 489 CURVE SMOOTH",
"285 489 OFFCURVE",
"309 483 OFFCURVE",
"326 476 CURVE",
"353 540 LINE",
"326 554 OFFCURVE",
"299 566 OFFCURVE",
"252 566 CURVE SMOOTH",
"143 566 OFFCURVE",
"49 477 OFFCURVE",
"49 370 CURVE SMOOTH",
"49 253 OFFCURVE",
"140 162 OFFCURVE",
"273 162 CURVE SMOOTH",
"326 162 OFFCURVE",
"370 173 OFFCURVE",
"409 195 CURVE",
"409 0 LINE"
);
},
{
closed = 1;
nodes = (
"289 -43 OFFCURVE",
"309 -20 OFFCURVE",
"309 17 CURVE SMOOTH",
"309 55 OFFCURVE",
"289 76 OFFCURVE",
"254 76 CURVE SMOOTH",
"220 76 OFFCURVE",
"200 55 OFFCURVE",
"200 17 CURVE SMOOTH",
"200 -20 OFFCURVE",
"220 -43 OFFCURVE",
"254 -43 CURVE SMOOTH"
);
}
);
width = 573;
}
);
unicode = 110AB;
script = kthi;
category = Letter;
},
{
glyphname = ktSHa;
lastChange = "2019-10-25 13:21:48 +0000";
layers = (
{
layerId = UUID0;
paths = (
{
closed = 1;
nodes = (
"390 37 LINE",
"347 99 OFFCURVE",
"307 156 OFFCURVE",
"267 201 CURVE",
"298 218 OFFCURVE",
"328 242 OFFCURVE",
"351 272 CURVE",
"397 251 OFFCURVE",
"446 232 OFFCURVE",
"496 214 CURVE",
"496 0 LINE",
"577 0 LINE",
"577 622 LINE",
"496 622 LINE",
"496 283 LINE",
"458 297 OFFCURVE",
"419 312 OFFCURVE",
"384 327 CURVE",
"397 357 OFFCURVE",
"404 391 OFFCURVE",
"404 429 CURVE SMOOTH",
"404 540 OFFCURVE",
"356 627 OFFCURVE",
"249 627 CURVE SMOOTH",
"172 627 OFFCURVE",
"125 577 OFFCURVE",
"125 511 CURVE SMOOTH",
"125 423 OFFCURVE",
"189 359 OFFCURVE",
"280 308 CURVE",
"261 283 OFFCURVE",
"236 265 OFFCURVE",
"211 253 CURVE",
"182 276 OFFCURVE",
"151 289 OFFCURVE",
"120 289 CURVE SMOOTH",
"83 289 OFFCURVE",
"59 269 OFFCURVE",
"59 238 CURVE SMOOTH",
"59 196 OFFCURVE",
"104 169 OFFCURVE",
"152 169 CURVE SMOOTH",
"167 169 OFFCURVE",
"181 171 OFFCURVE",
"196 174 CURVE",
"327 -11 LINE"
);
},
{
closed = 1;
nodes = (
"248 401 OFFCURVE",
"206 445 OFFCURVE",
"206 501 CURVE SMOOTH",
"206 534 OFFCURVE",
"223 556 OFFCURVE",
"256 556 CURVE SMOOTH",
"308 556 OFFCURVE",
"324 497 OFFCURVE",
"324 438 CURVE SMOOTH",
"324 410 OFFCURVE",
"319 385 OFFCURVE",
"312 364 CURVE"
);
}
);
width = 660;
}
);
unicode = 110AC;
script = kthi;
category = Letter;
},
{
glyphname = ktSSa;
lastChange = "2019-10-25 13:21:48 +0000";
layers = (
{
layerId = UUID0;
paths = (
{
closed = 1;
nodes = (
"438 0 LINE",
"438 622 LINE",
"357 622 LINE",
"357 374 LINE",
"154 622 LINE",
"73 622 LINE",
"73 401 LINE SMOOTH",
"73 274 OFFCURVE",
"145 198 OFFCURVE",
"257 198 CURVE SMOOTH",
"296 198 OFFCURVE",
"337 213 OFFCURVE",
"357 231 CURVE",
"360 231 LINE",
"359 225 OFFCURVE",
"357 198 OFFCURVE",
"357 147 CURVE SMOOTH",
"357 0 LINE"
);
},
{
closed = 1;
nodes = (
"182 268 OFFCURVE",
"154 301 OFFCURVE",
"154 369 CURVE SMOOTH",
"154 518 LINE",
"284 354 LINE SMOOTH",
"304 329 OFFCURVE",
"326 317 OFFCURVE",
"342 311 CURVE",
"317 287 OFFCURVE",
"285 268 OFFCURVE",
"245 268 CURVE SMOOTH"
);
}
);
width = 521;
}
);
unicode = 110AD;
script = kthi;
category = Letter;
},
{
glyphname = ktSa;
lastChange = "2019-10-25 13:21:48 +0000";
layers = (
{
layerId = UUID0;
paths = (
{
closed = 1;
nodes = (
"417 28 LINE",
"369 96 OFFCURVE",
"321 175 OFFCURVE",
"273 238 CURVE",
"305 250 OFFCURVE",
"335 269 OFFCURVE",
"360 293 CURVE",
"393 277 OFFCURVE",
"433 269 OFFCURVE",
"473 269 CURVE SMOOTH",
"498 269 OFFCURVE",
"519 271 OFFCURVE",
"540 275 CURVE",
"540 0 LINE",
"621 0 LINE",
"621 622 LINE",
"540 622 LINE",
"540 350 LINE",
"518 340 OFFCURVE",
"497 337 OFFCURVE",
"465 337 CURVE SMOOTH",
"441 337 OFFCURVE",
"419 340 OFFCURVE",
"397 347 CURVE",
"408 371 OFFCURVE",
"414 398 OFFCURVE",
"414 429 CURVE SMOOTH",
"414 527 OFFCURVE",
"346 627 OFFCURVE",
"217 627 CURVE SMOOTH",
"149 627 OFFCURVE",
"98 594 OFFCURVE",
"66 567 CURVE",
"109 507 LINE",
"140 533 OFFCURVE",
"175 556 OFFCURVE",
"223 556 CURVE SMOOTH",
"286 556 OFFCURVE",
"333 515 OFFCURVE",
"333 438 CURVE SMOOTH",
"333 358 OFFCURVE",
"277 316 OFFCURVE",
"221 297 CURVE",
"188 328 OFFCURVE",
"154 348 OFFCURVE",
"120 348 CURVE SMOOTH",
"81 348 OFFCURVE",
"59 325 OFFCURVE",
"59 294 CURVE SMOOTH",
"59 252 OFFCURVE",
"104 218 OFFCURVE",
"167 218 CURVE SMOOTH",
"180 218 OFFCURVE",
"193 219 OFFCURVE",
"206 221 CURVE",
"346 -11 LINE"
);
}
);
width = 704;
}
);
unicode = 110AE;
script = kthi;
category = Letter;
},
{
glyphname = ktHa;
lastChange = "2019-10-25 13:21:48 +0000";
layers = (
{
layerId = UUID0;
paths = (
{
closed = 1;
nodes = (
"370 -37 LINE",
"266 29 OFFCURVE",
"139 104 OFFCURVE",
"139 217 CURVE SMOOTH",
"139 301 OFFCURVE",
"201 344 OFFCURVE",
"286 344 CURVE SMOOTH",
"351 344 OFFCURVE",
"382 313 OFFCURVE",
"382 275 CURVE SMOOTH",
"382 237 OFFCURVE",
"355 207 OFFCURVE",
"322 207 CURVE SMOOTH",
"297 207 OFFCURVE",
"277 213 OFFCURVE",
"257 228 CURVE",
"226 182 LINE",
"255 153 OFFCURVE",
"292 136 OFFCURVE",
"332 136 CURVE SMOOTH",
"393 136 OFFCURVE",
"462 178 OFFCURVE",
"462 265 CURVE SMOOTH",
"462 347 OFFCURVE",
"396 415 OFFCURVE",
"281 415 CURVE SMOOTH",
"248 415 OFFCURVE",
"217 409 OFFCURVE",
"189 399 CURVE",
"179 417 OFFCURVE",
"174 438 OFFCURVE",
"174 461 CURVE SMOOTH",
"174 520 OFFCURVE",
"215 556 OFFCURVE",
"344 556 CURVE",
"338 627 LINE",
"170 627 OFFCURVE",
"93 567 OFFCURVE",
"93 476 CURVE SMOOTH",
"93 434 OFFCURVE",
"110 397 OFFCURVE",
"132 369 CURVE",
"87 335 OFFCURVE",
"59 284 OFFCURVE",
"59 222 CURVE SMOOTH",
"59 81 OFFCURVE",
"206 -12 OFFCURVE",
"334 -90 CURVE"
);
}
);
width = 516;
}
);
unicode = 110AF;
script = kthi;
category = Letter;
},
{
glyphname = ktVSAA;
lastChange = "2019-10-25 13:21:48 +0000";
layers = (
{
layerId = UUID0;
paths = (
{
closed = 1;
nodes = (
"164 0 LINE",
"164 622 LINE",
"83 622 LINE",
"83 0 LINE"
);
}
);
width = 247;
}
);
unicode = 110B0;
script = kthi;
category = Letter;
},
{
glyphname = ktVSI;
lastChange = "2019-10-25 13:21:48 +0000";
layers = (
{
layerId = UUID0;
paths = (
{
closed = 1;
nodes = (
"168 0 LINE",
"168 578 LINE SMOOTH",
"168 747 OFFCURVE",
"242 801 OFFCURVE",
"349 801 CURVE SMOOTH",
"487 801 OFFCURVE",
"613 728 OFFCURVE",
"702 672 CURVE",
"735 719 LINE",
"644 780 OFFCURVE",
"493 872 OFFCURVE",
"340 872 CURVE SMOOTH",
"186 872 OFFCURVE",
"88 788 OFFCURVE",
"88 588 CURVE SMOOTH",
"88 0 LINE"
);
}
);
width = 245;
}
);
unicode = 110B1;
script = kthi;
category = Letter;
},
{
glyphname = ktVSII;
lastChange = "2019-10-25 13:21:48 +0000";
layers = (
{
layerId = UUID0;
paths = (
{
closed = 1;
nodes = (
"169 0 LINE",
"169 577 LINE SMOOTH",
"169 746 OFFCURVE",
"116 876 OFFCURVE",
"-32 876 CURVE SMOOTH",
"-118 876 OFFCURVE",
"-185 825 OFFCURVE",
"-185 734 CURVE SMOOTH",
"-185 669 OFFCURVE",
"-146 620 OFFCURVE",
"-119 592 CURVE",
"-64 628 LINE",
"-86 656 OFFCURVE",
"-104 685 OFFCURVE",
"-104 724 CURVE SMOOTH",
"-104 770 OFFCURVE",
"-77 805 OFFCURVE",
"-22 805 CURVE SMOOTH",
"50 805 OFFCURVE",
"88 740 OFFCURVE",
"88 592 CURVE SMOOTH",
"88 0 LINE"
);
}
);
width = 252;
}
);
unicode = 110B2;
script = kthi;
category = Letter;
},
{
glyphname = ktVSU;
lastChange = "2019-10-25 13:21:48 +0000";
layers = (
{
layerId = UUID0;
paths = (
{
closed = 1;
nodes = (
"-235 -226 OFFCURVE",
"-177 -171 OFFCURVE",
"-177 -92 CURVE SMOOTH",
"-177 -12 OFFCURVE",
"-237 40 OFFCURVE",
"-326 40 CURVE SMOOTH",
"-370 40 LINE",
"-370 -10 LINE",
"-294 -10 OFFCURVE",
"-258 -40 OFFCURVE",
"-258 -84 CURVE SMOOTH",
"-258 -125 OFFCURVE",
"-290 -155 OFFCURVE",
"-344 -155 CURVE SMOOTH",
"-438 -155 OFFCURVE",
"-509 -72 OFFCURVE",
"-557 -16 CURVE",
"-607 -57 LINE",
"-555 -121 OFFCURVE",
"-466 -226 OFFCURVE",
"-336 -226 CURVE SMOOTH"
);
}
);
width = 0;
}
);
unicode = 110B3;
script = kthi;
category = Mark;
},
{
glyphname = ktVSUU;
lastChange = "2019-10-25 13:21:48 +0000";
layers = (
{
layerId = UUID0;
paths = (
{
closed = 1;
nodes = (
"-24 -238 LINE",
"-57 -168 OFFCURVE",
"-133 5 OFFCURVE",
"-292 5 CURVE SMOOTH",
"-381 5 OFFCURVE",
"-431 -46 OFFCURVE",
"-431 -112 CURVE SMOOTH",
"-431 -187 OFFCURVE",
"-364 -240 OFFCURVE",
"-275 -240 CURVE",
"-263 -181 LINE",
"-313 -180 OFFCURVE",
"-351 -158 OFFCURVE",
"-351 -121 CURVE SMOOTH",
"-351 -90 OFFCURVE",
"-326 -66 OFFCURVE",
"-284 -66 CURVE SMOOTH",
"-175 -66 OFFCURVE",
"-108 -202 OFFCURVE",
"-78 -265 CURVE"
);
}
);
width = 0;
}
);
unicode = 110B4;
script = kthi;
category = Mark;
},
{
glyphname = ktVSE;
lastChange = "2019-10-25 13:21:48 +0000";
layers = (
{
layerId = UUID0;
paths = (
{
closed = 1;
nodes = (
"-79 727 LINE",
"-498 906 LINE",
"-532 834 LINE",
"-104 674 LINE"
);
}
);
width = 0;
}
);
unicode = 110B5;
script = kthi;
category = Mark;
},
{
glyphname = ktVSAI;
lastChange = "2019-10-25 13:21:48 +0000";
layers = (
{
layerId = UUID0;
paths = (
{
closed = 1;
nodes = (
"-79 727 LINE",
"-98 797 OFFCURVE",
"-137 873 OFFCURVE",
"-288 1024 CURVE",
"-343 971 LINE",
"-230 860 OFFCURVE",
"-172 812 OFFCURVE",
"-140 750 CURVE",
"-144 746 LINE",
"-158 756 OFFCURVE",
"-190 775 OFFCURVE",
"-227 791 CURVE SMOOTH",
"-498 906 LINE",
"-532 834 LINE",
"-104 674 LINE"
);
}
);
width = 0;
}
);
unicode = 110B6;
script = kthi;
category = Mark;
},
{
glyphname = ktVSO;
lastChange = "2019-10-25 13:21:48 +0000";
layers = (
{
layerId = UUID0;
paths = (
{
closed = 1;
nodes = (
"146 727 LINE",
"-273 906 LINE",
"-308 834 LINE",
"120 674 LINE"
);
},
{
closed = 1;
nodes = (
"167 0 LINE",
"167 622 LINE",
"86 622 LINE",
"86 0 LINE"
);
}
);
width = 250;
}
);
unicode = 110B7;
script = kthi;
category = Letter;
},
{
glyphname = ktVSAU;
lastChange = "2019-10-25 13:21:48 +0000";
layers = (
{
layerId = UUID0;
paths = (
{
closed = 1;
nodes = (
"136 727 LINE",
"117 797 OFFCURVE",
"78 873 OFFCURVE",
"-73 1024 CURVE",
"-128 971 LINE",
"-15 860 OFFCURVE",
"42 812 OFFCURVE",
"75 750 CURVE",
"71 746 LINE",
"57 756 OFFCURVE",
"25 775 OFFCURVE",
"-12 791 CURVE SMOOTH",
"-283 906 LINE",
"-317 834 LINE",
"110 674 LINE"
);
},
{
closed = 1;
nodes = (
"159 0 LINE",
"159 622 LINE",
"78 622 LINE",
"78 0 LINE"
);
}
);
width = 242;
}
);
unicode = 110B8;
script = kthi;
category = Letter;
},
{
glyphname = ktVirama;
lastChange = "2019-10-25 13:21:48 +0000";
layers = (
{
layerId = UUID0;
paths = (
{
closed = 1;
nodes = (
"364 -226 LINE",
"118 -65 LINE",
"73 -133 LINE",
"330 -279 LINE"
);
}
);
width = 0;
}
);
unicode = 110B9;
script = kthi;
category = Mark;
},
{
glyphname = ktNukta;
lastChange = "2019-10-25 13:21:48 +0000";
layers = (
{
layerId = UUID0;
paths = (
{
closed = 1;
nodes = (
"-73 -200 OFFCURVE",
"-52 -178 OFFCURVE",
"-52 -140 CURVE SMOOTH",
"-52 -103 OFFCURVE",
"-73 -82 OFFCURVE",
"-107 -82 CURVE SMOOTH",
"-142 -82 OFFCURVE",
"-161 -103 OFFCURVE",
"-161 -140 CURVE SMOOTH",
"-161 -178 OFFCURVE",
"-141 -200 OFFCURVE",
"-107 -200 CURVE SMOOTH"
);
}
);
width = 0;
}
);
unicode = 110BA;
script = kthi;
category = Mark;
},
{
glyphname = ktABB;
lastChange = "2019-10-25 13:21:48 +0000";
layers = (
{
layerId = UUID0;
paths = (
{
closed = 1;
nodes = (
"367 144 OFFCURVE",
"423 235 OFFCURVE",
"423 313 CURVE SMOOTH",
"423 405 OFFCURVE",
"357 487 OFFCURVE",
"249 487 CURVE SMOOTH",
"152 487 OFFCURVE",
"78 420 OFFCURVE",
"78 319 CURVE SMOOTH",
"78 216 OFFCURVE",
"156 144 OFFCURVE",
"256 144 CURVE SMOOTH"
);
},
{
closed = 1;
nodes = (
"193 214 OFFCURVE",
"159 248 OFFCURVE",
"159 314 CURVE SMOOTH",
"159 372 OFFCURVE",
"187 417 OFFCURVE",
"253 417 CURVE SMOOTH",
"317 417 OFFCURVE",
"342 377 OFFCURVE",
"342 318 CURVE SMOOTH",
"342 247 OFFCURVE",
"307 214 OFFCURVE",
"251 214 CURVE SMOOTH"
);
}
);
width = 486;
}
);
unicode = 110BB;
script = kthi;
category = Letter;
},
{
glyphname = ktENU;
lastChange = "2019-10-25 13:21:48 +0000";
layers = (
{
layerId = UUID0;
paths = (
{
closed = 1;
nodes = (
"280 -5 OFFCURVE",
"338 48 OFFCURVE",
"338 121 CURVE SMOOTH",
"338 200 OFFCURVE",
"278 254 OFFCURVE",
"220 293 CURVE",
"283 355 OFFCURVE",
"373 410 OFFCURVE",
"460 450 CURVE",
"460 216 LINE SMOOTH",
"460 88 OFFCURVE",
"516 0 OFFCURVE",
"693 0 CURVE SMOOTH",
"1050 0 LINE",
"1050 71 LINE",
"688 71 LINE SMOOTH",
"597 71 OFFCURVE",
"541 85 OFFCURVE",
"541 206 CURVE SMOOTH",
"541 543 LINE",
"483 543 LINE",
"267 443 OFFCURVE",
"59 295 OFFCURVE",
"59 144 CURVE SMOOTH",
"59 48 OFFCURVE",
"121 -5 OFFCURVE",
"207 -5 CURVE SMOOTH"
);
},
{
closed = 1;
nodes = (
"163 66 OFFCURVE",
"139 96 OFFCURVE",
"139 139 CURVE SMOOTH",
"139 173 OFFCURVE",
"152 207 OFFCURVE",
"174 239 CURVE",
"227 204 OFFCURVE",
"257 171 OFFCURVE",
"257 125 CURVE SMOOTH",
"257 86 OFFCURVE",
"233 66 OFFCURVE",
"202 66 CURVE SMOOTH"
);
}
);
width = 1050;
}
);
unicode = 110BC;
script = kthi;
category = Letter;
},
{
glyphname = ktNUM;
lastChange = "2019-10-25 13:21:48 +0000";
layers = (
{
layerId = UUID0;
paths = (
{
closed = 1;
nodes = (
"280 -5 OFFCURVE",
"338 48 OFFCURVE",
"338 121 CURVE SMOOTH",
"338 200 OFFCURVE",
"278 254 OFFCURVE",
"220 293 CURVE",
"283 355 OFFCURVE",
"373 410 OFFCURVE",
"460 450 CURVE",
"460 216 LINE SMOOTH",
"460 88 OFFCURVE",
"516 0 OFFCURVE",
"693 0 CURVE SMOOTH",
"710 0 LINE",
"710 71 LINE",
"688 71 LINE SMOOTH",
"597 71 OFFCURVE",
"541 85 OFFCURVE",
"541 206 CURVE SMOOTH",
"541 543 LINE",
"483 543 LINE",
"267 443 OFFCURVE",
"59 295 OFFCURVE",
"59 144 CURVE SMOOTH",
"59 48 OFFCURVE",
"121 -5 OFFCURVE",
"207 -5 CURVE SMOOTH"
);
},
{
closed = 1;
nodes = (
"163 66 OFFCURVE",
"139 96 OFFCURVE",
"139 139 CURVE SMOOTH",
"139 173 OFFCURVE",
"152 207 OFFCURVE",
"174 239 CURVE",
"227 204 OFFCURVE",
"257 171 OFFCURVE",
"257 125 CURVE SMOOTH",
"257 86 OFFCURVE",
"233 66 OFFCURVE",
"202 66 CURVE SMOOTH"
);
}
);
width = 650;
}
);
unicode = 110BD;
script = kthi;
category = Letter;
subCategory = Spacing;
},
{
glyphname = ktDanda;
lastChange = "2019-10-25 13:21:48 +0000";
layers = (
{
layerId = UUID0;
paths = (
{
closed = 1;
nodes = (
"159 -29 LINE",
"159 651 LINE",
"88 651 LINE",
"88 -29 LINE"
);
}
);
width = 247;
}
);
unicode = 110C0;
script = kthi;
category = Letter;
},
{
glyphname = ktDDanda;
lastChange = "2019-10-25 13:21:48 +0000";
layers = (
{
layerId = UUID0;
paths = (
{
closed = 1;
nodes = (
"354 -29 LINE",
"354 651 LINE",
"283 651 LINE",
"283 -29 LINE"
);
},
{
closed = 1;
nodes = (
"159 -29 LINE",
"159 651 LINE",
"88 651 LINE",
"88 -29 LINE"
);
}
);
width = 442;
}
);
unicode = 110C1;
script = kthi;
category = Letter;
},
{
glyphname = ktKII;
lastChange = "2019-10-25 13:21:48 +0000";
layers = (
{
layerId = UUID0;
paths = (
{
closed = 1;
nodes = (
"436 0 LINE",
"436 294 LINE",
"474 337 OFFCURVE",
"514 374 OFFCURVE",
"560 374 CURVE SMOOTH",
"604 374 OFFCURVE",
"617 339 OFFCURVE",
"617 298 CURVE SMOOTH",
"617 227 OFFCURVE",
"591 152 OFFCURVE",
"568 99 CURVE",
"645 74 LINE",
"670 131 OFFCURVE",
"698 211 OFFCURVE",
"698 289 CURVE SMOOTH",
"698 372 OFFCURVE",
"649 445 OFFCURVE",
"552 445 CURVE SMOOTH",
"505 445 OFFCURVE",
"466 425 OFFCURVE",
"436 398 CURVE",
"433 398 LINE",
"434 403 OFFCURVE",
"436 424 OFFCURVE",
"436 464 CURVE SMOOTH",
"436 564 LINE SMOOTH",
"436 743 OFFCURVE",
"522 806 OFFCURVE",
"635 806 CURVE SMOOTH",
"757 806 OFFCURVE",
"823 727 OFFCURVE",
"823 574 CURVE SMOOTH",
"823 0 LINE",
"904 0 LINE",
"904 564 LINE SMOOTH",
"904 751 OFFCURVE",
"805 877 OFFCURVE",
"625 877 CURVE SMOOTH",
"475 877 OFFCURVE",
"355 787 OFFCURVE",
"355 578 CURVE SMOOTH",
"355 441 LINE",
"323 463 OFFCURVE",
"279 484 OFFCURVE",
"221 484 CURVE SMOOTH",
"129 484 OFFCURVE",
"46 426 OFFCURVE",
"46 331 CURVE SMOOTH",
"46 237 OFFCURVE",
"126 166 OFFCURVE",
"224 166 CURVE SMOOTH",
"273 166 OFFCURVE",
"319 186 OFFCURVE",
"355 214 CURVE",
"357 214 LINE",
"356 210 OFFCURVE",
"355 191 OFFCURVE",
"355 157 CURVE SMOOTH",
"355 0 LINE"
);
},
{
closed = 1;
nodes = (
"168 236 OFFCURVE",
"127 267 OFFCURVE",
"127 321 CURVE SMOOTH",
"127 377 OFFCURVE",
"173 413 OFFCURVE",
"230 413 CURVE SMOOTH",
"278 413 OFFCURVE",
"320 398 OFFCURVE",
"355 380 CURVE",
"355 311 LINE",
"317 271 OFFCURVE",
"268 236 OFFCURVE",
"214 236 CURVE SMOOTH"
);
}
);
width = 987;
}
);
script = kthi;
category = Letter;
},
{
glyphname = ktSU;
lastChange = "2019-10-25 13:21:48 +0000";
layers = (
{
layerId = UUID0;
paths = (
{
closed = 1;
nodes = (
"674 -226 OFFCURVE",
"732 -171 OFFCURVE",
"732 -92 CURVE SMOOTH",
"732 -22 OFFCURVE",
"687 26 OFFCURVE",
"616 37 CURVE",
"619 59 OFFCURVE",
"621 75 OFFCURVE",
"621 103 CURVE SMOOTH",
"621 622 LINE",
"540 622 LINE",
"540 366 LINE",
"519 356 OFFCURVE",
"498 352 OFFCURVE",
"470 352 CURVE SMOOTH",
"445 352 OFFCURVE",
"425 355 OFFCURVE",
"403 363 CURVE",
"410 383 OFFCURVE",
"414 405 OFFCURVE",
"414 429 CURVE SMOOTH",
"414 527 OFFCURVE",
"346 627 OFFCURVE",
"217 627 CURVE SMOOTH",
"149 627 OFFCURVE",
"98 594 OFFCURVE",
"66 567 CURVE",
"109 507 LINE",
"140 533 OFFCURVE",
"175 556 OFFCURVE",
"223 556 CURVE SMOOTH",
"286 556 OFFCURVE",
"333 515 OFFCURVE",
"333 438 CURVE SMOOTH",
"333 359 OFFCURVE",
"278 317 OFFCURVE",
"222 297 CURVE",
"189 328 OFFCURVE",
"156 348 OFFCURVE",
"120 348 CURVE SMOOTH",
"81 348 OFFCURVE",
"59 325 OFFCURVE",
"59 294 CURVE SMOOTH",
"59 252 OFFCURVE",
"104 218 OFFCURVE",
"167 218 CURVE SMOOTH",
"179 218 OFFCURVE",
"192 219 OFFCURVE",
"206 221 CURVE",
"298 64 LINE",
"369 103 LINE",
"336 149 OFFCURVE",
"305 197 OFFCURVE",
"273 238 CURVE",
"312 252 OFFCURVE",
"347 275 OFFCURVE",
"373 308 CURVE",
"403 293 OFFCURVE",
"437 283 OFFCURVE",
"478 283 CURVE SMOOTH",
"503 283 OFFCURVE",
"522 286 OFFCURVE",
"540 291 CURVE",
"540 -10 LINE",
"616 -10 OFFCURVE",
"652 -40 OFFCURVE",
"652 -84 CURVE SMOOTH",
"652 -125 OFFCURVE",
"620 -155 OFFCURVE",
"566 -155 CURVE SMOOTH",
"471 -155 OFFCURVE",
"400 -72 OFFCURVE",
"353 -16 CURVE",
"302 -57 LINE",
"354 -121 OFFCURVE",
"443 -226 OFFCURVE",
"574 -226 CURVE SMOOTH"
);
}
);
width = 708;
}
);
script = kthi;
category = Letter;
},
{
glyphname = ktSUU;
lastChange = "2019-10-25 13:21:48 +0000";
layers = (
{
layerId = UUID0;
paths = (
{
closed = 1;
nodes = (
"799 -238 LINE",
"773 -180 OFFCURVE",
"715 -52 OFFCURVE",
"607 -9 CURVE",
"608 -8 OFFCURVE",
"621 26 OFFCURVE",
"621 93 CURVE SMOOTH",
"621 622 LINE",
"540 622 LINE",
"540 366 LINE",
"519 356 OFFCURVE",
"498 352 OFFCURVE",
"470 352 CURVE SMOOTH",
"445 352 OFFCURVE",
"425 355 OFFCURVE",
"403 363 CURVE",
"410 383 OFFCURVE",
"414 405 OFFCURVE",
"414 429 CURVE SMOOTH",
"414 527 OFFCURVE",
"346 627 OFFCURVE",
"217 627 CURVE SMOOTH",
"149 627 OFFCURVE",
"98 594 OFFCURVE",
"66 567 CURVE",
"109 507 LINE",
"140 533 OFFCURVE",
"175 556 OFFCURVE",
"223 556 CURVE SMOOTH",
"286 556 OFFCURVE",
"333 515 OFFCURVE",
"333 438 CURVE SMOOTH",
"333 357 OFFCURVE",
"277 315 OFFCURVE",
"219 296 CURVE",
"186 328 OFFCURVE",
"153 348 OFFCURVE",
"120 348 CURVE SMOOTH",
"81 348 OFFCURVE",
"59 325 OFFCURVE",
"59 294 CURVE SMOOTH",
"59 252 OFFCURVE",
"104 218 OFFCURVE",
"167 218 CURVE SMOOTH",
"180 218 OFFCURVE",
"193 219 OFFCURVE",
"207 221 CURVE",
"328 21 LINE",
"398 60 LINE",
"355 122 OFFCURVE",
"313 186 OFFCURVE",
"272 237 CURVE",
"311 252 OFFCURVE",
"347 275 OFFCURVE",
"373 308 CURVE",
"403 293 OFFCURVE",
"437 283 OFFCURVE",
"478 283 CURVE SMOOTH",
"503 283 OFFCURVE",
"522 286 OFFCURVE",
"540 291 CURVE",
"540 4 LINE",
"537 5 OFFCURVE",
"534 5 OFFCURVE",
"532 5 CURVE SMOOTH",
"442 5 OFFCURVE",
"392 -46 OFFCURVE",
"392 -112 CURVE SMOOTH",
"392 -187 OFFCURVE",
"459 -240 OFFCURVE",
"548 -240 CURVE",
"560 -181 LINE",
"510 -180 OFFCURVE",
"473 -158 OFFCURVE",
"473 -121 CURVE SMOOTH",
"473 -90 OFFCURVE",
"497 -66 OFFCURVE",
"540 -66 CURVE SMOOTH",
"648 -66 OFFCURVE",
"715 -202 OFFCURVE",
"746 -265 CURVE"
);
}
);
width = 714;
}
);
script = kthi;
category = Letter;
},
{
glyphname = ktVSAIm;
lastChange = "2019-10-25 13:21:48 +0000";
layers = (
{
layerId = UUID0;
paths = (
{
closed = 1;
nodes = (
"-59 727 LINE",
"-79 797 OFFCURVE",
"-117 873 OFFCURVE",
"-269 1024 CURVE",
"-323 971 LINE",
"-210 860 OFFCURVE",
"-153 812 OFFCURVE",
"-120 750 CURVE",
"-124 746 LINE",
"-138 756 OFFCURVE",
"-171 775 OFFCURVE",
"-208 791 CURVE SMOOTH",
"-478 906 LINE",
"-513 834 LINE",
"-85 674 LINE"
);
},
{
closed = 1;
nodes = (
"16 844 OFFCURVE",
"36 867 OFFCURVE",
"36 904 CURVE SMOOTH",
"36 942 OFFCURVE",
"16 963 OFFCURVE",
"-19 963 CURVE SMOOTH",
"-53 963 OFFCURVE",
"-73 942 OFFCURVE",
"-73 904 CURVE SMOOTH",
"-73 867 OFFCURVE",
"-53 844 OFFCURVE",
"-19 844 CURVE SMOOTH"
);
}
);
width = 0;
}
);
script = kthi;
category = Mark;
},
{
glyphname = ktVSEm;
lastChange = "2019-10-25 13:21:48 +0000";
layers = (
{
layerId = UUID0;
paths = (
{
closed = 1;
nodes = (
"-79 727 LINE",
"-498 906 LINE",
"-532 834 LINE",
"-104 674 LINE"
);
},
{
closed = 1;
nodes = (
"-19 781 OFFCURVE",
"1 804 OFFCURVE",
"1 841 CURVE SMOOTH",
"1 879 OFFCURVE",
"-19 900 OFFCURVE",
"-54 900 CURVE SMOOTH",
"-88 900 OFFCURVE",
"-107 879 OFFCURVE",
"-107 841 CURVE SMOOTH",
"-107 804 OFFCURVE",
"-87 781 OFFCURVE",
"-54 781 CURVE SMOOTH"
);
}
);
width = 0;
}
);
script = kthi;
category = Mark;
},
{
glyphname = ktKHU.alt1;
lastChange = "2019-10-25 13:21:48 +0000";
layers = (
{
layerId = UUID0;
paths = (
{
closed = 1;
nodes = (
"552 -145 OFFCURVE",
"648 -44 OFFCURVE",
"648 127 CURVE SMOOTH",
"648 622 LINE",
"567 622 LINE",
"567 342 LINE",
"542 312 OFFCURVE",
"504 283 OFFCURVE",
"455 283 CURVE SMOOTH",
"410 283 OFFCURVE",
"388 301 OFFCURVE",
"388 369 CURVE SMOOTH",
"388 622 LINE",
"308 622 LINE",
"308 401 LINE SMOOTH",
"308 375 OFFCURVE",
"310 353 OFFCURVE",
"314 332 CURVE",
"290 306 OFFCURVE",
"255 283 OFFCURVE",
"211 283 CURVE SMOOTH",
"168 283 OFFCURVE",
"144 308 OFFCURVE",
"144 369 CURVE SMOOTH",
"144 622 LINE",
"63 622 LINE",
"63 377 LINE SMOOTH",
"63 270 OFFCURVE",
"133 212 OFFCURVE",
"228 212 CURVE SMOOTH",
"280 212 OFFCURVE",
"326 232 OFFCURVE",
"352 255 CURVE",
"354 255 LINE",
"381 227 OFFCURVE",
"422 212 OFFCURVE",
"472 212 CURVE SMOOTH",
"511 212 OFFCURVE",
"549 228 OFFCURVE",
"568 247 CURVE",
"570 246 LINE",
"569 237 OFFCURVE",
"567 201 OFFCURVE",
"567 136 CURVE SMOOTH",
"567 -21 OFFCURVE",
"495 -74 OFFCURVE",
"389 -74 CURVE SMOOTH",
"294 -74 OFFCURVE",
"195 -23 OFFCURVE",
"111 37 CURVE",
"71 -18 LINE",
"161 -80 OFFCURVE",
"273 -145 OFFCURVE",
"398 -145 CURVE SMOOTH"
);
}
);
width = 731;
}
);
script = kthi;
category = Letter;
},
{
glyphname = ktKU.alt1;
lastChange = "2019-10-25 13:21:48 +0000";
layers = (
{
layerId = UUID0;
paths = (
{
closed = 1;
nodes = (
"618 -161 OFFCURVE",
"742 6 OFFCURVE",
"742 201 CURVE SMOOTH",
"742 333 OFFCURVE",
"681 445 OFFCURVE",
"552 445 CURVE SMOOTH",
"505 445 OFFCURVE",
"466 425 OFFCURVE",
"436 398 CURVE",
"433 398 LINE",
"434 403 OFFCURVE",
"436 424 OFFCURVE",
"436 464 CURVE SMOOTH",
"436 622 LINE",
"355 622 LINE",
"355 441 LINE",
"323 464 OFFCURVE",
"276 484 OFFCURVE",
"221 484 CURVE SMOOTH",
"129 484 OFFCURVE",
"46 429 OFFCURVE",
"46 333 CURVE SMOOTH",
"46 239 OFFCURVE",
"122 166 OFFCURVE",
"224 166 CURVE SMOOTH",
"278 166 OFFCURVE",
"319 186 OFFCURVE",
"355 214 CURVE",
"357 214 LINE",
"356 210 OFFCURVE",
"355 191 OFFCURVE",
"355 157 CURVE SMOOTH",
"355 0 LINE",
"436 0 LINE",
"436 294 LINE",
"474 337 OFFCURVE",
"514 374 OFFCURVE",
"560 374 CURVE SMOOTH",
"631 374 OFFCURVE",
"661 306 OFFCURVE",
"661 206 CURVE SMOOTH",
"661 33 OFFCURVE",
"559 -90 OFFCURVE",
"386 -90 CURVE SMOOTH",
"271 -90 OFFCURVE",
"181 -27 OFFCURVE",
"100 38 CURVE",
"59 -12 LINE",
"146 -94 OFFCURVE",
"262 -161 OFFCURVE",
"391 -161 CURVE SMOOTH"
);
},
{
closed = 1;
nodes = (
"162 236 OFFCURVE",
"127 270 OFFCURVE",
"127 324 CURVE SMOOTH",
"127 379 OFFCURVE",
"174 413 OFFCURVE",
"230 413 CURVE SMOOTH",
"278 413 OFFCURVE",
"320 398 OFFCURVE",
"355 380 CURVE",
"355 311 LINE",
"317 271 OFFCURVE",
"276 236 OFFCURVE",
"214 236 CURVE SMOOTH"
);
}
);
width = 800;
}
);
script = kthi;
category = Letter;
},
{
glyphname = ktGU.alt1;
lastChange = "2019-10-25 13:21:48 +0000";
layers = (
{
layerId = UUID0;
paths = (
{
closed = 1;
nodes = (
"444 -205 OFFCURVE",
"525 -131 OFFCURVE",
"525 39 CURVE SMOOTH",
"525 622 LINE",
"444 622 LINE",
"444 49 LINE SMOOTH",
"444 -82 OFFCURVE",
"395 -134 OFFCURVE",
"300 -134 CURVE SMOOTH",
"221 -134 OFFCURVE",
"154 -93 OFFCURVE",
"91 -44 CURVE",
"49 -95 LINE",
"116 -147 OFFCURVE",
"200 -205 OFFCURVE",
"305 -205 CURVE SMOOTH"
);
},
{
closed = 1;
nodes = (
"293 131 OFFCURVE",
"362 187 OFFCURVE",
"362 295 CURVE SMOOTH",
"362 441 OFFCURVE",
"288 567 OFFCURVE",
"247 628 CURVE",
"183 592 LINE",
"220 535 OFFCURVE",
"282 433 OFFCURVE",
"282 312 CURVE SMOOTH",
"282 247 OFFCURVE",
"259 202 OFFCURVE",
"213 202 CURVE SMOOTH",
"162 202 OFFCURVE",
"118 262 OFFCURVE",
"93 300 CURVE",
"39 265 LINE",
"69 214 OFFCURVE",
"135 131 OFFCURVE",
"221 131 CURVE SMOOTH"
);
}
);
width = 608;
}
);
script = kthi;
category = Letter;
},
{
glyphname = ktJII;
lastChange = "2019-10-25 13:21:48 +0000";
layers = (
{
layerId = UUID0;
paths = (
{
closed = 1;
nodes = (
"614 0 LINE",
"614 607 LINE SMOOTH",
"614 757 OFFCURVE",
"645 806 OFFCURVE",
"712 806 CURVE SMOOTH",
"779 806 OFFCURVE",
"802 753 OFFCURVE",
"802 612 CURVE SMOOTH",
"802 0 LINE",
"882 0 LINE",
"882 598 LINE SMOOTH",
"882 781 OFFCURVE",
"826 877 OFFCURVE",
"707 877 CURVE SMOOTH",
"584 877 OFFCURVE",
"533 795 OFFCURVE",
"533 622 CURVE SMOOTH",
"533 612 OFFCURVE",
"534 604 OFFCURVE",
"536 595 CURVE",
"513 614 OFFCURVE",
"482 627 OFFCURVE",
"448 627 CURVE SMOOTH",
"346 627 OFFCURVE",
"297 563 OFFCURVE",
"297 446 CURVE SMOOTH",
"297 229 LINE SMOOTH",
"297 154 OFFCURVE",
"268 117 OFFCURVE",
"216 117 CURVE SMOOTH",
"169 117 OFFCURVE",
"145 151 OFFCURVE",
"145 228 CURVE SMOOTH",
"145 622 LINE",
"64 622 LINE",
"64 233 LINE SMOOTH",
"64 106 OFFCURVE",
"133 46 OFFCURVE",
"221 46 CURVE SMOOTH",
"317 46 OFFCURVE",
"377 114 OFFCURVE",
"377 224 CURVE SMOOTH",
"377 441 LINE SMOOTH",
"377 515 OFFCURVE",
"405 556 OFFCURVE",
"453 556 CURVE SMOOTH",
"517 556 OFFCURVE",
"533 500 OFFCURVE",
"533 431 CURVE SMOOTH",
"533 0 LINE"
);
}
);
width = 965;
}
);
script = kthi;
category = Letter;
},
{
glyphname = ktCHII;
lastChange = "2019-10-25 13:21:48 +0000";
layers = (
{
layerId = UUID0;
paths = (
{
closed = 1;
nodes = (
"405 -5 OFFCURVE",
"487 32 OFFCURVE",
"549 90 CURVE",
"579 58 OFFCURVE",
"613 26 OFFCURVE",
"650 -5 CURVE",
"695 43 LINE",
"657 77 OFFCURVE",
"623 109 OFFCURVE",
"594 141 CURVE",
"654 221 OFFCURVE",
"685 323 OFFCURVE",
"685 421 CURVE SMOOTH",
"685 517 OFFCURVE",
"644 572 OFFCURVE",
"644 671 CURVE SMOOTH",
"644 769 OFFCURVE",
"685 806 OFFCURVE",
"732 806 CURVE SMOOTH",
"804 806 OFFCURVE",
"827 753 OFFCURVE",
"827 612 CURVE SMOOTH",
"827 0 LINE",
"907 0 LINE",
"907 598 LINE SMOOTH",
"907 781 OFFCURVE",
"851 877 OFFCURVE",
"727 877 CURVE SMOOTH",
"634 877 OFFCURVE",
"572 805 OFFCURVE",
"572 682 CURVE SMOOTH",
"572 653 OFFCURVE",
"575 632 OFFCURVE",
"580 616 CURVE",
"562 623 OFFCURVE",
"543 627 OFFCURVE",
"522 627 CURVE SMOOTH",
"427 627 OFFCURVE",
"375 558 OFFCURVE",
"375 446 CURVE SMOOTH",
"375 351 OFFCURVE",
"418 249 OFFCURVE",
"500 147 CURVE",
"447 96 OFFCURVE",
"376 65 OFFCURVE",
"292 65 CURVE SMOOTH",
"200 65 OFFCURVE",
"144 111 OFFCURVE",
"144 178 CURVE SMOOTH",
"144 247 OFFCURVE",
"203 292 OFFCURVE",
"328 292 CURVE",
"318 372 LINE",
"273 372 OFFCURVE",
"231 365 OFFCURVE",
"195 353 CURVE",
"170 378 OFFCURVE",
"156 409 OFFCURVE",
"156 446 CURVE SMOOTH",
"156 506 OFFCURVE",
"191 556 OFFCURVE",
"301 556 CURVE",
"296 627 LINE",
"125 627 OFFCURVE",
"75 541 OFFCURVE",
"75 460 CURVE SMOOTH",
"75 403 OFFCURVE",
"106 356 OFFCURVE",
"140 325 CURVE",
"92 292 OFFCURVE",
"63 246 OFFCURVE",
"63 188 CURVE SMOOTH",
"63 65 OFFCURVE",
"170 -5 OFFCURVE",
"303 -5 CURVE SMOOTH"
);
},
{
closed = 1;
nodes = (
"485 280 OFFCURVE",
"456 357 OFFCURVE",
"456 441 CURVE SMOOTH",
"456 515 OFFCURVE",
"482 556 OFFCURVE",
"527 556 CURVE SMOOTH",
"581 556 OFFCURVE",
"604 498 OFFCURVE",
"604 421 CURVE SMOOTH",
"604 337 OFFCURVE",
"583 261 OFFCURVE",
"544 201 CURVE"
);
}
);
width = 990;
}
);
script = kthi;
category = Letter;
},
{
glyphname = ktHU;
lastChange = "2019-10-25 13:21:48 +0000";
layers = (
{
layerId = UUID0;
paths = (
{
closed = 1;
nodes = (
"382 -235 OFFCURVE",
"454 -183 OFFCURVE",
"454 -99 CURVE SMOOTH",
"454 59 OFFCURVE",
"149 50 OFFCURVE",
"149 217 CURVE SMOOTH",
"149 301 OFFCURVE",
"210 344 OFFCURVE",
"295 344 CURVE SMOOTH",
"360 344 OFFCURVE",
"392 313 OFFCURVE",
"392 275 CURVE SMOOTH",
"392 237 OFFCURVE",
"365 207 OFFCURVE",
"332 207 CURVE SMOOTH",
"307 207 OFFCURVE",
"287 213 OFFCURVE",
"267 228 CURVE",
"235 182 LINE",
"265 153 OFFCURVE",
"302 136 OFFCURVE",
"341 136 CURVE SMOOTH",
"402 136 OFFCURVE",
"472 178 OFFCURVE",
"472 265 CURVE SMOOTH",
"472 347 OFFCURVE",
"406 415 OFFCURVE",
"291 415 CURVE SMOOTH",
"258 415 OFFCURVE",
"227 409 OFFCURVE",
"199 399 CURVE",
"189 417 OFFCURVE",
"184 438 OFFCURVE",
"184 461 CURVE SMOOTH",
"184 520 OFFCURVE",
"225 556 OFFCURVE",
"354 556 CURVE",
"348 627 LINE",
"180 627 OFFCURVE",
"103 567 OFFCURVE",
"103 476 CURVE SMOOTH",
"103 434 OFFCURVE",
"120 397 OFFCURVE",
"142 369 CURVE",
"97 335 OFFCURVE",
"68 284 OFFCURVE",
"68 222 CURVE SMOOTH",
"68 12 OFFCURVE",
"373 10 OFFCURVE",
"373 -94 CURVE SMOOTH",
"373 -143 OFFCURVE",
"337 -164 OFFCURVE",
"284 -164 CURVE SMOOTH",
"208 -164 OFFCURVE",
"141 -106 OFFCURVE",
"102 -65 CURVE",
"59 -104 LINE",
"107 -170 OFFCURVE",
"191 -235 OFFCURVE",
"289 -235 CURVE SMOOTH"
);
}
);
width = 525;
}
);
script = kthi;
category = Letter;
},
{
glyphname = ktHUU;
lastChange = "2019-10-25 13:21:48 +0000";
layers = (
{
layerId = UUID0;
paths = (
{
closed = 1;
nodes = (
"254 -236 OFFCURVE",
"292 -222 OFFCURVE",
"321 -202 CURVE",
"291 -139 LINE",
"264 -155 OFFCURVE",
"239 -165 OFFCURVE",
"203 -165 CURVE SMOOTH",
"164 -165 OFFCURVE",
"139 -149 OFFCURVE",
"139 -118 CURVE SMOOTH",
"139 -83 OFFCURVE",
"169 -61 OFFCURVE",
"221 -61 CURVE SMOOTH",
"308 -61 OFFCURVE",
"403 -142 OFFCURVE",
"463 -186 CURVE",
"501 -143 LINE",
"359 -25 OFFCURVE",
"139 61 OFFCURVE",
"139 217 CURVE SMOOTH",
"139 301 OFFCURVE",
"201 344 OFFCURVE",
"286 344 CURVE SMOOTH",
"351 344 OFFCURVE",
"382 313 OFFCURVE",
"382 275 CURVE SMOOTH",
"382 237 OFFCURVE",
"355 207 OFFCURVE",
"322 207 CURVE SMOOTH",
"297 207 OFFCURVE",
"277 213 OFFCURVE",
"257 228 CURVE",
"226 182 LINE",
"255 153 OFFCURVE",
"292 136 OFFCURVE",
"332 136 CURVE SMOOTH",
"393 136 OFFCURVE",
"462 178 OFFCURVE",
"462 265 CURVE SMOOTH",
"462 347 OFFCURVE",
"396 415 OFFCURVE",
"281 415 CURVE SMOOTH",
"248 415 OFFCURVE",
"217 409 OFFCURVE",
"189 399 CURVE",
"179 417 OFFCURVE",
"174 438 OFFCURVE",
"174 461 CURVE SMOOTH",
"174 520 OFFCURVE",
"215 556 OFFCURVE",
"344 556 CURVE",
"338 627 LINE",
"170 627 OFFCURVE",
"93 567 OFFCURVE",
"93 476 CURVE SMOOTH",
"93 434 OFFCURVE",
"110 397 OFFCURVE",
"132 369 CURVE",
"87 335 OFFCURVE",
"59 284 OFFCURVE",
"59 222 CURVE SMOOTH",
"59 134 OFFCURVE",
"119 64 OFFCURVE",
"193 9 CURVE",
"118 4 OFFCURVE",
"59 -38 OFFCURVE",
"59 -111 CURVE SMOOTH",
"59 -186 OFFCURVE",
"124 -236 OFFCURVE",
"212 -236 CURVE SMOOTH"
);
}
);
width = 516;
}
);
script = kthi;
category = Letter;
},
{
glyphname = ktHII;
lastChange = "2019-10-25 13:21:48 +0000";
layers = (
{
layerId = UUID0;
paths = (
{
closed = 1;
nodes = (
"370 -37 LINE",
"266 29 OFFCURVE",
"139 104 OFFCURVE",
"139 217 CURVE SMOOTH",
"139 301 OFFCURVE",
"201 344 OFFCURVE",
"286 344 CURVE SMOOTH",
"351 344 OFFCURVE",
"382 313 OFFCURVE",
"382 275 CURVE SMOOTH",
"382 237 OFFCURVE",
"355 207 OFFCURVE",
"322 207 CURVE SMOOTH",
"297 207 OFFCURVE",
"277 213 OFFCURVE",
"257 228 CURVE",
"226 182 LINE",
"255 153 OFFCURVE",
"292 136 OFFCURVE",
"332 136 CURVE SMOOTH",
"393 136 OFFCURVE",
"462 178 OFFCURVE",
"462 265 CURVE SMOOTH",
"462 347 OFFCURVE",
"396 415 OFFCURVE",
"281 415 CURVE SMOOTH",
"248 415 OFFCURVE",
"217 409 OFFCURVE",
"189 399 CURVE",
"179 417 OFFCURVE",
"174 438 OFFCURVE",
"174 461 CURVE SMOOTH",
"174 520 OFFCURVE",
"215 556 OFFCURVE",
"344 556 CURVE",
"341 572 OFFCURVE",
"336 611 OFFCURVE",
"336 656 CURVE SMOOTH",
"336 746 OFFCURVE",
"375 806 OFFCURVE",
"454 806 CURVE SMOOTH",
"533 806 OFFCURVE",
"568 746 OFFCURVE",
"568 612 CURVE SMOOTH",
"568 0 LINE",
"648 0 LINE",
"648 598 LINE SMOOTH",
"648 781 OFFCURVE",
"569 877 OFFCURVE",
"449 877 CURVE SMOOTH",
"332 877 OFFCURVE",
"264 792 OFFCURVE",
"264 667 CURVE SMOOTH",
"264 652 OFFCURVE",
"266 637 OFFCURVE",
"270 623 CURVE",
"148 608 OFFCURVE",
"93 554 OFFCURVE",
"93 476 CURVE SMOOTH",
"93 434 OFFCURVE",
"110 397 OFFCURVE",
"132 369 CURVE",
"87 335 OFFCURVE",
"59 284 OFFCURVE",
"59 222 CURVE SMOOTH",
"59 81 OFFCURVE",
"206 -12 OFFCURVE",
"334 -90 CURVE"
);
}
);
width = 731;
}
);
script = kthi;
category = Letter;
},
{
glyphname = ktZero;
lastChange = "2019-10-25 13:21:48 +0000";
layers = (
{
layerId = UUID0;
paths = (
{
closed = 1;
nodes = (
"385 100 OFFCURVE",
"462 197 OFFCURVE",
"462 313 CURVE SMOOTH",
"462 437 OFFCURVE",
"375 536 OFFCURVE",
"250 536 CURVE SMOOTH",
"139 536 OFFCURVE",
"44 448 OFFCURVE",
"44 319 CURVE SMOOTH",
"44 180 OFFCURVE",
"146 100 OFFCURVE",
"260 100 CURVE SMOOTH"
);
},
{
closed = 1;
nodes = (
"177 170 OFFCURVE",
"125 228 OFFCURVE",
"125 314 CURVE SMOOTH",
"125 404 OFFCURVE",
"174 465 OFFCURVE",
"255 465 CURVE SMOOTH",
"335 465 OFFCURVE",
"380 402 OFFCURVE",
"380 318 CURVE SMOOTH",
"380 244 OFFCURVE",
"344 170 OFFCURVE",
"255 170 CURVE SMOOTH"
);
}
);
width = 511;
}
);
unicode = 0966;
category = Letter;
},
{
glyphname = ktOne;
lastChange = "2019-10-25 13:21:48 +0000";
layers = (
{
layerId = UUID0;
paths = (
{
closed = 1;
nodes = (
"419 0 LINE",
"419 432 LINE SMOOTH",
"419 550 OFFCURVE",
"353 627 OFFCURVE",
"243 627 CURVE SMOOTH",
"148 627 OFFCURVE",
"78 562 OFFCURVE",
"78 473 CURVE SMOOTH",
"78 378 OFFCURVE",
"161 310 OFFCURVE",
"252 310 CURVE SMOOTH",
"284 310 OFFCURVE",
"311 315 OFFCURVE",
"338 328 CURVE",
"338 0 LINE"
);
},
{
closed = 1;
nodes = (
"201 381 OFFCURVE",
"159 412 OFFCURVE",
"159 468 CURVE SMOOTH",
"159 519 OFFCURVE",
"193 556 OFFCURVE",
"248 556 CURVE SMOOTH",
"310 556 OFFCURVE",
"338 511 OFFCURVE",
"338 449 CURVE SMOOTH",
"338 417 LINE",
"312 392 OFFCURVE",
"286 381 OFFCURVE",
"247 381 CURVE SMOOTH"
);
}
);
width = 502;
}
);
unicode = 0967;
category = Letter;
},
{
glyphname = ktTwo;
lastChange = "2019-10-25 13:21:48 +0000";
layers = (
{
layerId = UUID0;
paths = (
{
closed = 1;
nodes = (
"461 27 LINE",
"434 90 OFFCURVE",
"407 160 OFFCURVE",
"376 222 CURVE",
"430 265 OFFCURVE",
"465 333 OFFCURVE",
"465 413 CURVE SMOOTH",
"465 519 OFFCURVE",
"397 627 OFFCURVE",
"259 627 CURVE SMOOTH",
"193 627 OFFCURVE",
"142 605 OFFCURVE",
"96 559 CURVE",
"146 503 LINE",
"181 538 OFFCURVE",
"216 556 OFFCURVE",
"264 556 CURVE SMOOTH",
"335 556 OFFCURVE",
"384 505 OFFCURVE",
"384 417 CURVE SMOOTH",
"384 371 OFFCURVE",
"367 325 OFFCURVE",
"337 292 CURVE",
"293 362 OFFCURVE",
"242 411 OFFCURVE",
"176 411 CURVE SMOOTH",
"121 411 OFFCURVE",
"63 375 OFFCURVE",
"63 310 CURVE SMOOTH",
"63 226 OFFCURVE",
"151 174 OFFCURVE",
"237 174 CURVE SMOOTH",
"262 174 OFFCURVE",
"285 178 OFFCURVE",
"308 186 CURVE",
"333 129 OFFCURVE",
"359 62 OFFCURVE",
"387 -5 CURVE"
);
},
{
closed = 1;
nodes = (
"183 245 OFFCURVE",
"144 265 OFFCURVE",
"144 302 CURVE SMOOTH",
"144 329 OFFCURVE",
"164 340 OFFCURVE",
"184 340 CURVE SMOOTH",
"216 340 OFFCURVE",
"246 306 OFFCURVE",
"275 251 CURVE",
"262 247 OFFCURVE",
"247 245 OFFCURVE",
"232 245 CURVE SMOOTH"
);
}
);
width = 548;
}
);
unicode = 0968;
category = Letter;
},
{
glyphname = ktThree;
lastChange = "2019-10-25 13:21:48 +0000";
layers = (
{
layerId = UUID0;
paths = (
{
closed = 1;
nodes = (
"443 -111 LINE",
"425 -65 OFFCURVE",
"404 -16 OFFCURVE",
"379 30 CURVE",
"428 60 OFFCURVE",
"463 107 OFFCURVE",
"463 168 CURVE SMOOTH",
"463 235 OFFCURVE",
"424 289 OFFCURVE",
"359 340 CURVE",
"405 368 OFFCURVE",
"436 408 OFFCURVE",
"436 468 CURVE SMOOTH",
"436 557 OFFCURVE",
"369 627 OFFCURVE",
"263 627 CURVE SMOOTH",
"203 627 OFFCURVE",
"157 603 OFFCURVE",
"111 570 CURVE",
"147 512 LINE",
"191 541 OFFCURVE",
"223 561 OFFCURVE",
"269 561 CURVE SMOOTH",
"329 561 OFFCURVE",
"355 521 OFFCURVE",
"355 480 CURVE SMOOTH",
"355 403 OFFCURVE",
"296 376 OFFCURVE",
"181 354 CURVE",
"202 288 LINE",
"234 293 OFFCURVE",
"266 301 OFFCURVE",
"296 311 CURVE",
"352 271 OFFCURVE",
"382 229 OFFCURVE",
"382 178 CURVE SMOOTH",
"382 141 OFFCURVE",
"366 113 OFFCURVE",
"341 94 CURVE",
"291 169 OFFCURVE",
"228 224 OFFCURVE",
"149 224 CURVE SMOOTH",
"88 224 OFFCURVE",
"49 185 OFFCURVE",
"49 130 CURVE SMOOTH",
"49 50 OFFCURVE",
"140 -5 OFFCURVE",
"249 -5 CURVE SMOOTH",
"271 -5 OFFCURVE",
"292 -2 OFFCURVE",
"313 3 CURVE",
"336 -38 OFFCURVE",
"358 -86 OFFCURVE",
"378 -138 CURVE"
);
},
{
closed = 1;
nodes = (
"186 66 OFFCURVE",
"129 83 OFFCURVE",
"129 120 CURVE SMOOTH",
"129 136 OFFCURVE",
"140 148 OFFCURVE",
"159 148 CURVE SMOOTH",
"198 148 OFFCURVE",
"237 118 OFFCURVE",
"273 68 CURVE",
"264 66 OFFCURVE",
"253 66 OFFCURVE",
"244 66 CURVE SMOOTH"
);
}
);
width = 521;
}
);
unicode = 0969;
category = Letter;
},
{
glyphname = ktFour;
lastChange = "2019-10-25 13:21:48 +0000";
layers = (
{
layerId = UUID0;
paths = (
{
closed = 1;
nodes = (
"364 -5 OFFCURVE",
"429 60 OFFCURVE",
"429 148 CURVE SMOOTH",
"429 218 OFFCURVE",
"391 291 OFFCURVE",
"333 366 CURVE",
"387 423 OFFCURVE",
"460 487 OFFCURVE",
"554 567 CURVE",
"501 627 LINE",
"416 549 OFFCURVE",
"343 482 OFFCURVE",
"285 423 CURVE",
"228 488 OFFCURVE",
"157 557 OFFCURVE",
"85 627 CURVE",
"32 579 LINE",
"114 501 OFFCURVE",
"186 431 OFFCURVE",
"238 371 CURVE",
"168 290 OFFCURVE",
"130 220 OFFCURVE",
"130 147 CURVE SMOOTH",
"130 58 OFFCURVE",
"197 -5 OFFCURVE",
"281 -5 CURVE SMOOTH"
);
},
{
closed = 1;
nodes = (
"237 66 OFFCURVE",
"211 98 OFFCURVE",
"211 143 CURVE SMOOTH",
"211 199 OFFCURVE",
"235 252 OFFCURVE",
"285 312 CURVE",
"326 255 OFFCURVE",
"348 204 OFFCURVE",
"348 153 CURVE SMOOTH",
"348 101 OFFCURVE",
"318 66 OFFCURVE",
"276 66 CURVE SMOOTH"
);
}
);
width = 581;
}
);
unicode = 096A;
category = Letter;
},
{
glyphname = ktFive;
lastChange = "2019-10-25 13:21:48 +0000";
layers = (
{
layerId = UUID0;
paths = (
{
closed = 1;
nodes = (
"474 0 LINE",
"474 622 LINE",
"399 622 LINE",
"387 408 OFFCURVE",
"372 272 OFFCURVE",
"266 272 CURVE SMOOTH",
"167 272 OFFCURVE",
"159 381 OFFCURVE",
"159 622 CURVE",
"78 622 LINE",
"78 367 OFFCURVE",
"100 202 OFFCURVE",
"271 202 CURVE SMOOTH",
"315 202 OFFCURVE",
"360 217 OFFCURVE",
"394 258 CURVE",
"394 0 LINE"
);
}
);
width = 557;
}
);
unicode = 096B;
category = Letter;
},
{
glyphname = ktSix;
lastChange = "2019-10-25 13:21:48 +0000";
layers = (
{
layerId = UUID0;
paths = (
{
closed = 1;
nodes = (
"459 -123 LINE",
"421 -84 OFFCURVE",
"383 -45 OFFCURVE",
"361 1 CURVE",
"435 17 OFFCURVE",
"494 60 OFFCURVE",
"494 121 CURVE SMOOTH",
"494 175 OFFCURVE",
"450 228 OFFCURVE",
"377 228 CURVE SMOOTH",
"310 228 OFFCURVE",
"259 178 OFFCURVE",
"259 103 CURVE SMOOTH",
"259 90 OFFCURVE",
"260 79 OFFCURVE",
"262 67 CURVE",
"203 76 OFFCURVE",
"149 112 OFFCURVE",
"149 183 CURVE SMOOTH",
"149 270 OFFCURVE",
"235 316 OFFCURVE",
"377 316 CURVE",
"367 396 LINE",
"303 396 OFFCURVE",
"246 385 OFFCURVE",
"199 366 CURVE",
"181 388 OFFCURVE",
"171 415 OFFCURVE",
"171 446 CURVE SMOOTH",
"171 497 OFFCURVE",
"198 556 OFFCURVE",
"351 556 CURVE",
"345 627 LINE",
"179 627 OFFCURVE",
"90 568 OFFCURVE",
"90 460 CURVE SMOOTH",
"90 409 OFFCURVE",
"115 367 OFFCURVE",
"145 335 CURVE",
"96 301 OFFCURVE",
"68 252 OFFCURVE",
"68 193 CURVE SMOOTH",
"68 78 OFFCURVE",
"160 0 OFFCURVE",
"285 -4 CURVE",
"315 -68 OFFCURVE",
"366 -123 OFFCURVE",
"409 -167 CURVE"
);
},
{
closed = 1;
nodes = (
"340 77 OFFCURVE",
"340 85 OFFCURVE",
"340 93 CURVE SMOOTH",
"340 131 OFFCURVE",
"357 157 OFFCURVE",
"382 157 CURVE SMOOTH",
"399 157 OFFCURVE",
"414 143 OFFCURVE",
"414 126 CURVE SMOOTH",
"414 93 OFFCURVE",
"381 77 OFFCURVE",
"341 70 CURVE"
);
}
);
width = 523;
}
);
unicode = 096C;
category = Letter;
},
{
glyphname = ktSeven;
lastChange = "2019-10-25 13:21:48 +0000";
layers = (
{
layerId = UUID0;
paths = (
{
closed = 1;
nodes = (
"496 -5 OFFCURVE",
"602 123 OFFCURVE",
"602 290 CURVE SMOOTH",
"602 457 OFFCURVE",
"480 627 OFFCURVE",
"309 627 CURVE SMOOTH",
"206 627 OFFCURVE",
"148 562 OFFCURVE",
"148 483 CURVE SMOOTH",
"148 404 OFFCURVE",
"226 334 OFFCURVE",
"313 334 CURVE SMOOTH",
"405 334 OFFCURVE",
"449 400 OFFCURVE",
"471 462 CURVE",
"500 418 OFFCURVE",
"519 361 OFFCURVE",
"519 295 CURVE SMOOTH",
"519 154 OFFCURVE",
"437 68 OFFCURVE",
"325 68 CURVE SMOOTH",
"204 68 OFFCURVE",
"130 151 OFFCURVE",
"83 273 CURVE",
"20 249 LINE",
"63 121 OFFCURVE",
"159 -5 OFFCURVE",
"330 -5 CURVE SMOOTH"
);
},
{
closed = 1;
nodes = (
"260 405 OFFCURVE",
"229 438 OFFCURVE",
"229 479 CURVE SMOOTH",
"229 523 OFFCURVE",
"260 556 OFFCURVE",
"313 556 CURVE SMOOTH",
"348 556 OFFCURVE",
"382 544 OFFCURVE",
"412 524 CURVE",
"396 464 OFFCURVE",
"371 405 OFFCURVE",
"308 405 CURVE SMOOTH"
);
}
);
width = 666;
}
);
unicode = 096D;
category = Letter;
},
{
glyphname = ktEight;
lastChange = "2019-10-25 13:21:48 +0000";
layers = (
{
layerId = UUID0;
paths = (
{
closed = 1;
nodes = (
"659 35 LINE",
"609 79 OFFCURVE",
"552 128 OFFCURVE",
"477 128 CURVE SMOOTH",
"403 128 OFFCURVE",
"371 71 OFFCURVE",
"291 71 CURVE SMOOTH",
"216 71 OFFCURVE",
"166 116 OFFCURVE",
"166 188 CURVE SMOOTH",
"166 291 OFFCURVE",
"269 386 OFFCURVE",
"500 386 CURVE SMOOTH",
"603 386 LINE",
"598 457 LINE",
"59 457 LINE",
"63 386 LINE",
"136 386 LINE SMOOTH",
"170 386 OFFCURVE",
"200 388 OFFCURVE",
"212 390 CURVE",
"213 387 LINE",
"135 349 OFFCURVE",
"85 283 OFFCURVE",
"85 197 CURVE SMOOTH",
"85 77 OFFCURVE",
"183 0 OFFCURVE",
"295 0 CURVE SMOOTH",
"386 0 OFFCURVE",
"417 57 OFFCURVE",
"482 57 CURVE SMOOTH",
"535 57 OFFCURVE",
"567 25 OFFCURVE",
"618 -14 CURVE"
);
}
);
width = 698;
}
);
unicode = 096E;
category = Letter;
},
{
glyphname = ktNine;
lastChange = "2019-10-25 13:21:48 +0000";
layers = (
{
layerId = UUID0;
paths = (
{
closed = 1;
nodes = (
"659 35 LINE",
"609 79 OFFCURVE",
"552 128 OFFCURVE",
"477 128 CURVE SMOOTH",
"403 128 OFFCURVE",
"371 71 OFFCURVE",
"291 71 CURVE SMOOTH",
"216 71 OFFCURVE",
"166 116 OFFCURVE",
"166 188 CURVE SMOOTH",
"166 291 OFFCURVE",
"269 386 OFFCURVE",
"500 386 CURVE SMOOTH",
"603 386 LINE",
"598 457 LINE",
"526 481 OFFCURVE",
"454 520 OFFCURVE",
"454 568 CURVE SMOOTH",
"454 591 OFFCURVE",
"472 605 OFFCURVE",
"498 605 CURVE SMOOTH",
"540 605 OFFCURVE",
"572 581 OFFCURVE",
"609 553 CURVE",
"647 600 LINE",
"613 629 OFFCURVE",
"555 676 OFFCURVE",
"483 676 CURVE SMOOTH",
"419 676 OFFCURVE",
"374 636 OFFCURVE",
"374 578 CURVE SMOOTH",
"374 527 OFFCURVE",
"410 489 OFFCURVE",
"463 457 CURVE",
"59 457 LINE",
"63 386 LINE",
"136 386 LINE SMOOTH",
"170 386 OFFCURVE",
"200 388 OFFCURVE",
"212 390 CURVE",
"213 387 LINE",
"135 349 OFFCURVE",
"85 283 OFFCURVE",
"85 197 CURVE SMOOTH",
"85 77 OFFCURVE",
"183 0 OFFCURVE",
"295 0 CURVE SMOOTH",
"386 0 OFFCURVE",
"417 57 OFFCURVE",
"482 57 CURVE SMOOTH",
"535 57 OFFCURVE",
"567 25 OFFCURVE",
"618 -14 CURVE"
);
}
);
width = 698;
}
);
unicode = 096F;
category = Letter;
},
{
glyphname = ktPTa;
lastChange = "2019-10-25 13:21:48 +0000";
layers = (
{
layerId = UUID0;
paths = (
{
closed = 1;
nodes = (
"245 -60 LINE",
"191 9 OFFCURVE",
"159 50 OFFCURVE",
"159 116 CURVE SMOOTH",
"159 208 OFFCURVE",
"234 241 OFFCURVE",
"380 285 CURVE",
"382 284 LINE",
"381 277 OFFCURVE",
"379 254 OFFCURVE",
"379 218 CURVE SMOOTH",
"379 0 LINE",
"460 0 LINE",
"460 622 LINE",
"379 622 LINE",
"379 372 LINE",
"346 346 OFFCURVE",
"303 332 OFFCURVE",
"255 332 CURVE SMOOTH",
"202 332 OFFCURVE",
"161 362 OFFCURVE",
"161 442 CURVE SMOOTH",
"161 622 LINE",
"81 622 LINE",
"81 452 LINE SMOOTH",
"81 360 OFFCURVE",
"120 306 OFFCURVE",
"173 280 CURVE",
"103 241 OFFCURVE",
"78 191 OFFCURVE",
"78 129 CURVE SMOOTH",
"78 51 OFFCURVE",
"124 -19 OFFCURVE",
"191 -100 CURVE"
);
}
);
width = 543;
}
);
script = kthi;
category = Letter;
},
{
glyphname = ktKKa;
lastChange = "2019-10-25 13:21:48 +0000";
layers = (
{
layerId = UUID0;
paths = (
{
closed = 1;
nodes = (
"436 -194 LINE",
"436 61 LINE",
"474 104 OFFCURVE",
"514 141 OFFCURVE",
"560 141 CURVE SMOOTH",
"604 141 OFFCURVE",
"617 105 OFFCURVE",
"617 65 CURVE SMOOTH",
"617 -6 OFFCURVE",
"591 -82 OFFCURVE",
"568 -135 CURVE",
"645 -160 LINE",
"670 -103 OFFCURVE",
"698 -22 OFFCURVE",
"698 55 CURVE SMOOTH",
"698 93 OFFCURVE",
"687 129 OFFCURVE",
"667 156 CURVE",
"685 198 OFFCURVE",
"698 244 OFFCURVE",
"698 289 CURVE SMOOTH",
"698 372 OFFCURVE",
"649 445 OFFCURVE",
"552 445 CURVE SMOOTH",
"505 445 OFFCURVE",
"466 425 OFFCURVE",
"436 398 CURVE",
"433 398 LINE",
"434 403 OFFCURVE",
"436 424 OFFCURVE",
"436 464 CURVE SMOOTH",
"436 622 LINE",
"355 622 LINE",
"355 441 LINE",
"323 463 OFFCURVE",
"279 484 OFFCURVE",
"221 484 CURVE SMOOTH",
"129 484 OFFCURVE",
"46 426 OFFCURVE",
"46 331 CURVE SMOOTH",
"46 280 OFFCURVE",
"69 237 OFFCURVE",
"106 207 CURVE",
"74 180 OFFCURVE",
"46 141 OFFCURVE",
"46 93 CURVE SMOOTH",
"46 -1 OFFCURVE",
"126 -67 OFFCURVE",
"224 -67 CURVE SMOOTH",
"273 -67 OFFCURVE",
"319 -47 OFFCURVE",
"355 -20 CURVE",
"357 -20 LINE",
"356 -24 OFFCURVE",
"355 -42 OFFCURVE",
"355 -76 CURVE SMOOTH",
"355 -194 LINE"
);
},
{
closed = 1;
nodes = (
"164 3 OFFCURVE",
"127 33 OFFCURVE",
"127 83 CURVE SMOOTH",
"127 129 OFFCURVE",
"153 155 OFFCURVE",
"179 171 CURVE",
"193 168 OFFCURVE",
"208 166 OFFCURVE",
"224 166 CURVE SMOOTH",
"273 166 OFFCURVE",
"319 186 OFFCURVE",
"355 214 CURVE",
"357 214 LINE",
"356 210 OFFCURVE",
"355 191 OFFCURVE",
"355 157 CURVE SMOOTH",
"355 78 LINE",
"317 37 OFFCURVE",
"268 3 OFFCURVE",
"214 3 CURVE SMOOTH"
);
},
{
closed = 1;
nodes = (
"168 236 OFFCURVE",
"127 267 OFFCURVE",
"127 321 CURVE SMOOTH",
"127 377 OFFCURVE",
"173 413 OFFCURVE",
"230 413 CURVE SMOOTH",
"278 413 OFFCURVE",
"320 398 OFFCURVE",
"355 380 CURVE",
"355 311 LINE",
"317 271 OFFCURVE",
"268 236 OFFCURVE",
"214 236 CURVE SMOOTH"
);
},
{
closed = 1;
nodes = (
"434 170 OFFCURVE",
"436 191 OFFCURVE",
"436 231 CURVE SMOOTH",
"436 294 LINE",
"474 337 OFFCURVE",
"517 374 OFFCURVE",
"560 374 CURVE SMOOTH",
"601 374 OFFCURVE",
"617 339 OFFCURVE",
"617 298 CURVE SMOOTH",
"617 267 OFFCURVE",
"609 235 OFFCURVE",
"597 206 CURVE",
"583 209 OFFCURVE",
"568 211 OFFCURVE",
"552 211 CURVE SMOOTH",
"505 211 OFFCURVE",
"466 192 OFFCURVE",
"436 165 CURVE",
"433 165 LINE"
);
}
);
width = 756;
}
);
script = kthi;
category = Letter;
},
{
glyphname = ktPRa;
lastChange = "2019-10-25 13:21:48 +0000";
layers = (
{
layerId = UUID0;
paths = (
{
closed = 1;
nodes = (
"379 226 LINE",
"380 226 LINE",
"379 217 OFFCURVE",
"378 188 OFFCURVE",
"378 143 CURVE SMOOTH",
"378 0 LINE",
"458 0 LINE",
"458 622 LINE",
"378 622 LINE",
"378 323 LINE",
"353 292 OFFCURVE",
"303 258 OFFCURVE",
"253 258 CURVE SMOOTH",
"200 258 OFFCURVE",
"160 289 OFFCURVE",
"160 369 CURVE SMOOTH",
"160 622 LINE",
"79 622 LINE",
"79 378 LINE SMOOTH",
"79 252 OFFCURVE",
"153 198 OFFCURVE",
"236 189 CURVE",
"78 59 LINE",
"132 -5 LINE"
);
}
);
width = 542;
}
);
script = kthi;
category = Letter;
},
{
glyphname = ktGa.half;
lastChange = "2019-10-25 13:21:48 +0000";
layers = (
{
layerId = UUID0;
paths = (
{
closed = 1;
nodes = (
"293 131 OFFCURVE",
"362 187 OFFCURVE",
"362 295 CURVE SMOOTH",
"362 441 OFFCURVE",
"288 567 OFFCURVE",
"247 628 CURVE",
"183 592 LINE",
"220 535 OFFCURVE",
"282 433 OFFCURVE",
"282 312 CURVE SMOOTH",
"282 247 OFFCURVE",
"259 202 OFFCURVE",
"213 202 CURVE SMOOTH",
"162 202 OFFCURVE",
"118 262 OFFCURVE",
"93 300 CURVE",
"39 265 LINE",
"69 214 OFFCURVE",
"135 131 OFFCURVE",
"221 131 CURVE SMOOTH"
);
}
);
width = 436;
}
);
script = kthi;
category = Letter;
},
{
glyphname = ktGHU.alt1;
lastChange = "2019-10-25 13:21:48 +0000";
layers = (
{
layerId = UUID0;
paths = (
{
closed = 1;
nodes = (
"463 -205 OFFCURVE",
"544 -131 OFFCURVE",
"544 39 CURVE",
"544 622 LINE",
"463 622 LINE",
"463 221 LINE",
"413 186 OFFCURVE",
"354 168 OFFCURVE",
"295 168 CURVE SMOOTH",
"229 168 OFFCURVE",
"171 193 OFFCURVE",
"171 246 CURVE SMOOTH",
"171 308 OFFCURVE",
"245 340 OFFCURVE",
"370 340 CURVE",
"360 421 LINE",
"312 421 OFFCURVE",
"267 415 OFFCURVE",
"228 402 CURVE",
"205 423 OFFCURVE",
"188 447 OFFCURVE",
"188 475 CURVE SMOOTH",
"188 530 OFFCURVE",
"238 556 OFFCURVE",
"343 556 CURVE",
"338 627 LINE",
"154 627 OFFCURVE",
"107 561 OFFCURVE",
"107 490 CURVE SMOOTH",
"107 444 OFFCURVE",
"138 406 OFFCURVE",
"171 379 CURVE",
"122 351 OFFCURVE",
"91 310 OFFCURVE",
"91 256 CURVE SMOOTH",
"91 157 OFFCURVE",
"187 98 OFFCURVE",
"306 98 CURVE SMOOTH",
"363 98 OFFCURVE",
"416 110 OFFCURVE",
"463 135 CURVE",
"463 49 LINE SMOOTH",
"463 -82 OFFCURVE",
"414 -134 OFFCURVE",
"319 -134 CURVE SMOOTH",
"240 -134 OFFCURVE",
"173 -93 OFFCURVE",
"110 -44 CURVE",
"68 -95 LINE",
"135 -147 OFFCURVE",
"219 -205 OFFCURVE",
"324 -205 CURVE SMOOTH"
);
}
);
width = 627;
}
);
script = kthi;
category = Letter;
},
{
glyphname = ktJU.alt1;
lastChange = "2019-10-25 13:21:48 +0000";
layers = (
{
layerId = UUID0;
paths = (
{
closed = 1;
nodes = (
"544 -232 OFFCURVE",
"641 -132 OFFCURVE",
"641 40 CURVE SMOOTH",
"641 426 LINE SMOOTH",
"641 531 OFFCURVE",
"581 627 OFFCURVE",
"475 627 CURVE SMOOTH",
"373 627 OFFCURVE",
"324 563 OFFCURVE",
"324 446 CURVE SMOOTH",
"324 229 LINE SMOOTH",
"324 154 OFFCURVE",
"294 117 OFFCURVE",
"243 117 CURVE SMOOTH",
"196 117 OFFCURVE",
"171 151 OFFCURVE",
"171 228 CURVE SMOOTH",
"171 622 LINE",
"90 622 LINE",
"90 233 LINE SMOOTH",
"90 106 OFFCURVE",
"160 46 OFFCURVE",
"248 46 CURVE SMOOTH",
"344 46 OFFCURVE",
"404 114 OFFCURVE",
"404 224 CURVE SMOOTH",
"404 441 LINE SMOOTH",
"404 515 OFFCURVE",
"432 556 OFFCURVE",
"479 556 CURVE SMOOTH",
"544 556 OFFCURVE",
"560 500 OFFCURVE",
"560 431 CURVE SMOOTH",
"560 48 LINE SMOOTH",
"560 -109 OFFCURVE",
"488 -162 OFFCURVE",
"381 -162 CURVE SMOOTH",
"287 -162 OFFCURVE",
"188 -111 OFFCURVE",
"104 -51 CURVE",
"63 -105 LINE",
"153 -167 OFFCURVE",
"266 -232 OFFCURVE",
"391 -232 CURVE SMOOTH"
);
}
);
width = 724;
}
);
script = kthi;
category = Letter;
},
{
glyphname = ktJHU;
lastChange = "2019-10-25 13:21:48 +0000";
layers = (
{
layerId = UUID0;
paths = (
{
closed = 1;
nodes = (
"531 -342 OFFCURVE",
"610 -299 OFFCURVE",
"610 -217 CURVE SMOOTH",
"610 -128 OFFCURVE",
"557 -83 OFFCURVE",
"422 -83 CURVE SMOOTH",
"275 -83 OFFCURVE",
"144 -34 OFFCURVE",
"144 92 CURVE SMOOTH",
"144 175 OFFCURVE",
"194 221 OFFCURVE",
"230 243 CURVE",
"215 225 OFFCURVE",
"208 202 OFFCURVE",
"208 178 CURVE SMOOTH",
"208 64 OFFCURVE",
"289 -5 OFFCURVE",
"413 -5 CURVE SMOOTH",
"469 -5 OFFCURVE",
"528 12 OFFCURVE",
"579 42 CURVE",
"554 114 LINE",
"508 83 OFFCURVE",
"457 65 OFFCURVE",
"402 65 CURVE SMOOTH",
"333 65 OFFCURVE",
"284 99 OFFCURVE",
"284 173 CURVE SMOOTH",
"284 269 OFFCURVE",
"373 292 OFFCURVE",
"507 292 CURVE",
"497 372 LINE",
"442 372 OFFCURVE",
"388 366 OFFCURVE",
"338 354 CURVE",
"313 379 OFFCURVE",
"300 410 OFFCURVE",
"300 446 CURVE SMOOTH",
"300 497 OFFCURVE",
"327 556 OFFCURVE",
"480 556 CURVE",
"475 627 LINE",
"308 627 OFFCURVE",
"219 568 OFFCURVE",
"219 460 CURVE SMOOTH",
"219 409 OFFCURVE",
"245 367 OFFCURVE",
"273 336 CURVE",
"151 292 OFFCURVE",
"63 211 OFFCURVE",
"63 102 CURVE SMOOTH",
"63 -75 OFFCURVE",
"247 -154 OFFCURVE",
"442 -154 CURVE SMOOTH",
"495 -154 OFFCURVE",
"530 -165 OFFCURVE",
"530 -209 CURVE SMOOTH",
"530 -253 OFFCURVE",
"491 -271 OFFCURVE",
"439 -271 CURVE SMOOTH",
"352 -271 OFFCURVE",
"267 -227 OFFCURVE",
"206 -185 CURVE",
"169 -233 LINE",
"232 -285 OFFCURVE",
"333 -342 OFFCURVE",
"452 -342 CURVE SMOOTH"
);
}
);
width = 630;
}
);
script = kthi;
category = Letter;
},
{
glyphname = ktJHUU;
lastChange = "2019-10-25 13:21:48 +0000";
layers = (
{
layerId = UUID0;
paths = (
{
closed = 1;
nodes = (
"592 -307 LINE",
"560 -235 OFFCURVE",
"483 -63 OFFCURVE",
"325 -63 CURVE SMOOTH",
"236 -63 OFFCURVE",
"186 -114 OFFCURVE",
"186 -181 CURVE SMOOTH",
"186 -184 OFFCURVE",
"186 -187 OFFCURVE",
"186 -190 CURVE",
"128 -146 OFFCURVE",
"85 -74 OFFCURVE",
"85 19 CURVE SMOOTH",
"85 118 OFFCURVE",
"132 186 OFFCURVE",
"168 219 CURVE",
"167 217 OFFCURVE",
"164 205 OFFCURVE",
"164 183 CURVE SMOOTH",
"164 68 OFFCURVE",
"251 -5 OFFCURVE",
"369 -5 CURVE SMOOTH",
"425 -5 OFFCURVE",
"484 12 OFFCURVE",
"535 42 CURVE",
"510 114 LINE",
"463 83 OFFCURVE",
"413 65 OFFCURVE",
"358 65 CURVE SMOOTH",
"293 65 OFFCURVE",
"240 102 OFFCURVE",
"240 173 CURVE SMOOTH",
"240 269 OFFCURVE",
"329 292 OFFCURVE",
"463 292 CURVE",
"453 372 LINE",
"397 372 OFFCURVE",
"345 365 OFFCURVE",
"296 352 CURVE",
"271 377 OFFCURVE",
"256 409 OFFCURVE",
"256 446 CURVE SMOOTH",
"256 497 OFFCURVE",
"283 556 OFFCURVE",
"436 556 CURVE",
"431 627 LINE",
"264 627 OFFCURVE",
"175 568 OFFCURVE",
"175 460 CURVE SMOOTH",
"175 406 OFFCURVE",
"203 362 OFFCURVE",
"234 331 CURVE",
"97 275 OFFCURVE",
"5 164 OFFCURVE",
"5 23 CURVE SMOOTH",
"5 -159 OFFCURVE",
"165 -308 OFFCURVE",
"342 -308 CURVE",
"354 -249 LINE",
"303 -248 OFFCURVE",
"266 -227 OFFCURVE",
"266 -189 CURVE SMOOTH",
"266 -158 OFFCURVE",
"291 -134 OFFCURVE",
"333 -134 CURVE SMOOTH",
"442 -134 OFFCURVE",
"508 -270 OFFCURVE",
"539 -333 CURVE"
);
}
);
width = 554;
}
);
script = kthi;
category = Letter;
},
{
glyphname = ktJHII;
lastChange = "2019-10-25 13:21:48 +0000";
layers = (
{
layerId = UUID0;
paths = (
{
closed = 1;
nodes = (
"417 -198 OFFCURVE",
"488 -173 OFFCURVE",
"544 -146 CURVE",
"520 -79 LINE",
"476 -101 OFFCURVE",
"400 -127 OFFCURVE",
"320 -127 CURVE SMOOTH",
"186 -127 OFFCURVE",
"100 -47 OFFCURVE",
"100 62 CURVE SMOOTH",
"100 148 OFFCURVE",
"142 189 OFFCURVE",
"168 207 CURVE",
"168 80 OFFCURVE",
"245 -5 OFFCURVE",
"369 -5 CURVE SMOOTH",
"425 -5 OFFCURVE",
"484 12 OFFCURVE",
"535 42 CURVE",
"510 114 LINE",
"464 83 OFFCURVE",
"413 65 OFFCURVE",
"358 65 CURVE SMOOTH",
"290 65 OFFCURVE",
"240 105 OFFCURVE",
"240 173 CURVE SMOOTH",
"240 269 OFFCURVE",
"329 292 OFFCURVE",
"463 292 CURVE",
"453 372 LINE",
"397 372 OFFCURVE",
"344 365 OFFCURVE",
"296 352 CURVE",
"271 377 OFFCURVE",
"256 409 OFFCURVE",
"256 446 CURVE SMOOTH",
"256 497 OFFCURVE",
"283 556 OFFCURVE",
"436 556 CURVE",
"433 572 OFFCURVE",
"428 611 OFFCURVE",
"428 656 CURVE SMOOTH",
"428 746 OFFCURVE",
"465 806 OFFCURVE",
"546 806 CURVE SMOOTH",
"627 806 OFFCURVE",
"660 746 OFFCURVE",
"660 612 CURVE SMOOTH",
"660 0 LINE",
"741 0 LINE",
"741 598 LINE SMOOTH",
"741 781 OFFCURVE",
"670 877 OFFCURVE",
"541 877 CURVE SMOOTH",
"427 877 OFFCURVE",
"356 792 OFFCURVE",
"356 667 CURVE SMOOTH",
"356 652 OFFCURVE",
"358 637 OFFCURVE",
"362 623 CURVE",
"240 608 OFFCURVE",
"175 552 OFFCURVE",
"175 460 CURVE SMOOTH",
"175 406 OFFCURVE",
"203 362 OFFCURVE",
"234 331 CURVE",
"103 278 OFFCURVE",
"20 177 OFFCURVE",
"20 67 CURVE SMOOTH",
"20 -84 OFFCURVE",
"154 -198 OFFCURVE",
"325 -198 CURVE SMOOTH"
);
}
);
width = 824;
}
);
script = kthi;
category = Letter;
},
{
glyphname = ktTTII;
lastChange = "2019-10-25 13:21:48 +0000";
layers = (
{
layerId = UUID0;
paths = (
{
closed = 1;
nodes = (
"375 -5 OFFCURVE",
"462 40 OFFCURVE",
"533 101 CURVE",
"481 162 LINE",
"426 114 OFFCURVE",
"356 66 OFFCURVE",
"265 66 CURVE SMOOTH",
"193 66 OFFCURVE",
"134 98 OFFCURVE",
"134 166 CURVE SMOOTH",
"134 298 OFFCURVE",
"366 348 OFFCURVE",
"366 504 CURVE SMOOTH",
"366 564 LINE SMOOTH",
"366 741 OFFCURVE",
"410 806 OFFCURVE",
"507 806 CURVE SMOOTH",
"604 806 OFFCURVE",
"645 736 OFFCURVE",
"645 574 CURVE SMOOTH",
"645 0 LINE",
"726 0 LINE",
"726 564 LINE SMOOTH",
"726 746 OFFCURVE",
"668 877 OFFCURVE",
"500 877 CURVE SMOOTH",
"354 877 OFFCURVE",
"285 771 OFFCURVE",
"285 578 CURVE SMOOTH",
"285 519 LINE SMOOTH",
"285 388 OFFCURVE",
"54 339 OFFCURVE",
"54 178 CURVE SMOOTH",
"54 75 OFFCURVE",
"152 -5 OFFCURVE",
"272 -5 CURVE SMOOTH"
);
}
);
width = 809;
}
);
script = kthi;
category = Letter;
},
{
glyphname = ktTTHII;
lastChange = "2019-10-25 13:21:48 +0000";
layers = (
{
layerId = UUID0;
paths = (
{
closed = 1;
nodes = (
"385 -5 OFFCURVE",
"485 49 OFFCURVE",
"485 164 CURVE SMOOTH",
"485 332 OFFCURVE",
"205 339 OFFCURVE",
"205 460 CURVE SMOOTH",
"205 518 OFFCURVE",
"245 556 OFFCURVE",
"368 556 CURVE",
"365 572 OFFCURVE",
"360 611 OFFCURVE",
"360 656 CURVE SMOOTH",
"360 744 OFFCURVE",
"397 806 OFFCURVE",
"486 806 CURVE SMOOTH",
"568 806 OFFCURVE",
"612 743 OFFCURVE",
"612 612 CURVE SMOOTH",
"612 0 LINE",
"692 0 LINE",
"692 598 LINE SMOOTH",
"692 769 OFFCURVE",
"619 877 OFFCURVE",
"481 877 CURVE SMOOTH",
"354 877 OFFCURVE",
"289 784 OFFCURVE",
"289 667 CURVE SMOOTH",
"289 652 OFFCURVE",
"291 636 OFFCURVE",
"294 622 CURVE",
"187 606 OFFCURVE",
"124 549 OFFCURVE",
"124 467 CURVE SMOOTH",
"124 294 OFFCURVE",
"405 301 OFFCURVE",
"405 169 CURVE SMOOTH",
"405 97 OFFCURVE",
"341 66 OFFCURVE",
"272 66 CURVE SMOOTH",
"204 66 OFFCURVE",
"129 99 OFFCURVE",
"129 155 CURVE SMOOTH",
"129 177 OFFCURVE",
"144 194 OFFCURVE",
"171 194 CURVE SMOOTH",
"199 194 OFFCURVE",
"219 175 OFFCURVE",
"237 148 CURVE",
"293 183 LINE",
"264 231 OFFCURVE",
"225 265 OFFCURVE",
"162 265 CURVE SMOOTH",
"102 265 OFFCURVE",
"49 228 OFFCURVE",
"49 165 CURVE SMOOTH",
"49 71 OFFCURVE",
"149 -5 OFFCURVE",
"277 -5 CURVE SMOOTH"
);
}
);
width = 775;
}
);
script = kthi;
category = Letter;
},
{
glyphname = ktDDII;
lastChange = "2019-10-25 13:21:48 +0000";
layers = (
{
layerId = UUID0;
paths = (
{
closed = 1;
nodes = (
"474 -5 OFFCURVE",
"545 81 OFFCURVE",
"545 185 CURVE SMOOTH",
"545 288 OFFCURVE",
"482 370 OFFCURVE",
"394 370 CURVE SMOOTH",
"341 370 OFFCURVE",
"277 347 OFFCURVE",
"211 347 CURVE",
"206 359 OFFCURVE",
"200 384 OFFCURVE",
"200 411 CURVE SMOOTH",
"200 518 OFFCURVE",
"284 556 OFFCURVE",
"395 556 CURVE",
"392 572 OFFCURVE",
"387 611 OFFCURVE",
"387 656 CURVE SMOOTH",
"387 744 OFFCURVE",
"431 806 OFFCURVE",
"525 806 CURVE SMOOTH",
"613 806 OFFCURVE",
"663 743 OFFCURVE",
"663 612 CURVE SMOOTH",
"663 0 LINE",
"744 0 LINE",
"744 598 LINE SMOOTH",
"744 769 OFFCURVE",
"665 877 OFFCURVE",
"520 877 CURVE SMOOTH",
"385 877 OFFCURVE",
"315 784 OFFCURVE",
"315 667 CURVE SMOOTH",
"315 652 OFFCURVE",
"317 636 OFFCURVE",
"321 622 CURVE",
"196 603 OFFCURVE",
"119 529 OFFCURVE",
"119 416 CURVE SMOOTH",
"119 339 OFFCURVE",
"173 276 OFFCURVE",
"265 276 CURVE SMOOTH",
"310 276 OFFCURVE",
"370 294 OFFCURVE",
"418 294 CURVE",
"454 270 OFFCURVE",
"464 232 OFFCURVE",
"464 194 CURVE SMOOTH",
"464 124 OFFCURVE",
"424 66 OFFCURVE",
"334 66 CURVE SMOOTH",
"240 66 OFFCURVE",
"179 138 OFFCURVE",
"106 245 CURVE",
"49 208 LINE",
"121 91 OFFCURVE",
"208 -5 OFFCURVE",
"345 -5 CURVE SMOOTH"
);
}
);
width = 827;
}
);
script = kthi;
category = Letter;
},
{
glyphname = ktDDHII;
lastChange = "2019-10-25 13:21:48 +0000";
layers = (
{
layerId = UUID0;
paths = (
{
closed = 1;
nodes = (
"421 -5 OFFCURVE",
"533 56 OFFCURVE",
"533 157 CURVE SMOOTH",
"533 214 OFFCURVE",
"485 279 OFFCURVE",
"400 279 CURVE SMOOTH",
"327 279 OFFCURVE",
"272 232 OFFCURVE",
"272 169 CURVE SMOOTH",
"272 128 OFFCURVE",
"297 94 OFFCURVE",
"329 68 CURVE",
"316 67 OFFCURVE",
"303 66 OFFCURVE",
"290 66 CURVE SMOOTH",
"206 66 OFFCURVE",
"129 103 OFFCURVE",
"129 180 CURVE SMOOTH",
"129 314 OFFCURVE",
"361 349 OFFCURVE",
"361 519 CURVE SMOOTH",
"361 564 LINE SMOOTH",
"361 741 OFFCURVE",
"405 806 OFFCURVE",
"502 806 CURVE SMOOTH",
"600 806 OFFCURVE",
"640 736 OFFCURVE",
"640 574 CURVE SMOOTH",
"640 0 LINE",
"721 0 LINE",
"721 564 LINE SMOOTH",
"721 746 OFFCURVE",
"663 877 OFFCURVE",
"495 877 CURVE SMOOTH",
"349 877 OFFCURVE",
"280 771 OFFCURVE",
"280 578 CURVE SMOOTH",
"280 538 LINE SMOOTH",
"280 383 OFFCURVE",
"49 352 OFFCURVE",
"49 190 CURVE SMOOTH",
"49 76 OFFCURVE",
"164 -5 OFFCURVE",
"299 -5 CURVE SMOOTH"
);
},
{
closed = 1;
nodes = (
"366 103 OFFCURVE",
"353 126 OFFCURVE",
"353 155 CURVE SMOOTH",
"353 187 OFFCURVE",
"376 208 OFFCURVE",
"405 208 CURVE SMOOTH",
"434 208 OFFCURVE",
"452 187 OFFCURVE",
"452 162 CURVE SMOOTH",
"452 125 OFFCURVE",
"425 98 OFFCURVE",
"384 83 CURVE"
);
}
);
width = 804;
}
);
script = kthi;
category = Letter;
},
{
glyphname = ktDII;
lastChange = "2019-10-25 13:21:48 +0000";
layers = (
{
layerId = UUID0;
paths = (
{
closed = 1;
nodes = (
"325 -5 OFFCURVE",
"383 12 OFFCURVE",
"434 42 CURVE",
"410 114 LINE",
"363 83 OFFCURVE",
"312 65 OFFCURVE",
"258 65 CURVE SMOOTH",
"189 65 OFFCURVE",
"139 105 OFFCURVE",
"139 173 CURVE SMOOTH",
"139 269 OFFCURVE",
"228 292 OFFCURVE",
"362 292 CURVE",
"353 372 LINE",
"293 372 OFFCURVE",
"240 366 OFFCURVE",
"196 352 CURVE",
"170 377 OFFCURVE",
"156 409 OFFCURVE",
"156 446 CURVE SMOOTH",
"156 497 OFFCURVE",
"183 556 OFFCURVE",
"335 556 CURVE",
"332 572 OFFCURVE",
"328 611 OFFCURVE",
"328 656 CURVE SMOOTH",
"328 746 OFFCURVE",
"364 806 OFFCURVE",
"445 806 CURVE SMOOTH",
"526 806 OFFCURVE",
"560 746 OFFCURVE",
"560 612 CURVE SMOOTH",
"560 0 LINE",
"640 0 LINE",
"640 598 LINE SMOOTH",
"640 781 OFFCURVE",
"569 877 OFFCURVE",
"440 877 CURVE SMOOTH",
"327 877 OFFCURVE",
"256 792 OFFCURVE",
"256 667 CURVE SMOOTH",
"256 652 OFFCURVE",
"258 637 OFFCURVE",
"261 623 CURVE",
"139 608 OFFCURVE",
"75 552 OFFCURVE",
"75 460 CURVE SMOOTH",
"75 404 OFFCURVE",
"105 358 OFFCURVE",
"138 327 CURVE",
"88 296 OFFCURVE",
"59 250 OFFCURVE",
"59 183 CURVE SMOOTH",
"59 73 OFFCURVE",
"144 -5 OFFCURVE",
"269 -5 CURVE SMOOTH"
);
}
);
width = 723;
}
);
script = kthi;
category = Letter;
},
{
glyphname = ktLII;
lastChange = "2019-10-25 13:21:48 +0000";
layers = (
{
layerId = UUID0;
paths = (
{
closed = 1;
nodes = (
"440 -5 OFFCURVE",
"532 93 OFFCURVE",
"532 303 CURVE SMOOTH",
"532 464 OFFCURVE",
"478 504 OFFCURVE",
"478 671 CURVE SMOOTH",
"478 769 OFFCURVE",
"520 806 OFFCURVE",
"566 806 CURVE SMOOTH",
"638 806 OFFCURVE",
"661 753 OFFCURVE",
"661 612 CURVE SMOOTH",
"661 0 LINE",
"742 0 LINE",
"742 598 LINE SMOOTH",
"742 781 OFFCURVE",
"686 877 OFFCURVE",
"562 877 CURVE SMOOTH",
"468 877 OFFCURVE",
"406 805 OFFCURVE",
"406 682 CURVE SMOOTH",
"406 635 OFFCURVE",
"415 610 OFFCURVE",
"423 589 CURVE",
"390 613 OFFCURVE",
"348 627 OFFCURVE",
"297 627 CURVE SMOOTH",
"133 627 OFFCURVE",
"54 479 OFFCURVE",
"54 330 CURVE SMOOTH",
"54 125 OFFCURVE",
"145 -5 OFFCURVE",
"304 -5 CURVE SMOOTH"
);
},
{
closed = 1;
nodes = (
"225 66 OFFCURVE",
"157 118 OFFCURVE",
"143 221 CURVE",
"169 237 OFFCURVE",
"234 266 OFFCURVE",
"301 266 CURVE SMOOTH",
"368 266 OFFCURVE",
"417 245 OFFCURVE",
"447 229 CURVE",
"447 124 OFFCURVE",
"389 66 OFFCURVE",
"294 66 CURVE SMOOTH"
);
},
{
closed = 1;
nodes = (
"411 313 OFFCURVE",
"363 336 OFFCURVE",
"291 336 CURVE SMOOTH",
"231 336 OFFCURVE",
"170 316 OFFCURVE",
"134 297 CURVE",
"134 298 OFFCURVE",
"134 301 OFFCURVE",
"134 305 CURVE SMOOTH",
"134 467 OFFCURVE",
"204 556 OFFCURVE",
"306 556 CURVE SMOOTH",
"415 556 OFFCURVE",
"452 459 OFFCURVE",
"452 312 CURVE SMOOTH",
"452 308 OFFCURVE",
"452 305 OFFCURVE",
"451 292 CURVE"
);
}
);
width = 825;
}
);
script = kthi;
category = Letter;
},
{
glyphname = ktDDDHII;
lastChange = "2019-10-25 13:21:48 +0000";
layers = (
{
layerId = UUID0;
paths = (
{
closed = 1;
nodes = (
"474 -5 OFFCURVE",
"545 81 OFFCURVE",
"545 185 CURVE SMOOTH",
"545 288 OFFCURVE",
"482 370 OFFCURVE",
"394 370 CURVE SMOOTH",
"341 370 OFFCURVE",
"277 347 OFFCURVE",
"211 347 CURVE",
"206 359 OFFCURVE",
"200 384 OFFCURVE",
"200 411 CURVE SMOOTH",
"200 518 OFFCURVE",
"284 556 OFFCURVE",
"395 556 CURVE",
"392 572 OFFCURVE",
"387 611 OFFCURVE",
"387 656 CURVE SMOOTH",
"387 744 OFFCURVE",
"431 806 OFFCURVE",
"525 806 CURVE SMOOTH",
"613 806 OFFCURVE",
"663 743 OFFCURVE",
"663 612 CURVE SMOOTH",
"663 0 LINE",
"744 0 LINE",
"744 598 LINE SMOOTH",
"744 769 OFFCURVE",
"665 877 OFFCURVE",
"520 877 CURVE SMOOTH",
"385 877 OFFCURVE",
"315 784 OFFCURVE",
"315 667 CURVE SMOOTH",
"315 652 OFFCURVE",
"317 636 OFFCURVE",
"321 622 CURVE",
"196 603 OFFCURVE",
"119 529 OFFCURVE",
"119 416 CURVE SMOOTH",
"119 339 OFFCURVE",
"173 276 OFFCURVE",
"265 276 CURVE SMOOTH",
"310 276 OFFCURVE",
"370 294 OFFCURVE",
"418 294 CURVE",
"454 270 OFFCURVE",
"464 232 OFFCURVE",
"464 194 CURVE SMOOTH",
"464 124 OFFCURVE",
"424 66 OFFCURVE",
"334 66 CURVE SMOOTH",
"240 66 OFFCURVE",
"179 138 OFFCURVE",
"106 245 CURVE",
"49 208 LINE",
"121 91 OFFCURVE",
"208 -5 OFFCURVE",
"345 -5 CURVE SMOOTH"
);
},
{
closed = 1;
nodes = (
"345 -200 OFFCURVE",
"366 -178 OFFCURVE",
"366 -140 CURVE SMOOTH",
"366 -103 OFFCURVE",
"345 -82 OFFCURVE",
"311 -82 CURVE SMOOTH",
"276 -82 OFFCURVE",
"257 -103 OFFCURVE",
"257 -140 CURVE SMOOTH",
"257 -178 OFFCURVE",
"277 -200 OFFCURVE",
"311 -200 CURVE SMOOTH"
);
}
);
width = 827;
}
);
script = kthi;
category = Letter;
},
{
glyphname = ktCU.alt1;
lastChange = "2019-10-25 13:21:48 +0000";
layers = (
{
layerId = UUID0;
paths = (
{
closed = 1;
nodes = (
"424 -205 OFFCURVE",
"505 -131 OFFCURVE",
"505 39 CURVE SMOOTH",
"505 622 LINE",
"424 622 LINE",
"424 242 LINE",
"392 217 OFFCURVE",
"350 202 OFFCURVE",
"295 202 CURVE SMOOTH",
"241 202 OFFCURVE",
"196 223 OFFCURVE",
"161 260 CURVE",
"220 311 OFFCURVE",
"294 375 OFFCURVE",
"294 460 CURVE SMOOTH",
"294 537 OFFCURVE",
"243 585 OFFCURVE",
"185 627 CURVE",
"142 579 LINE",
"186 546 OFFCURVE",
"213 514 OFFCURVE",
"213 468 CURVE SMOOTH",
"213 396 OFFCURVE",
"130 338 OFFCURVE",
"56 279 CURVE",
"96 226 OFFCURVE",
"179 131 OFFCURVE",
"305 131 CURVE SMOOTH",
"353 131 OFFCURVE",
"392 140 OFFCURVE",
"424 155 CURVE",
"424 49 LINE SMOOTH",
"424 -82 OFFCURVE",
"375 -134 OFFCURVE",
"280 -134 CURVE SMOOTH",
"201 -134 OFFCURVE",
"134 -93 OFFCURVE",
"71 -44 CURVE",
"29 -95 LINE",
"96 -147 OFFCURVE",
"180 -205 OFFCURVE",
"285 -205 CURVE SMOOTH"
);
}
);
width = 588;
}
);
script = kthi;
category = Letter;
},
{
glyphname = ktRHII;
lastChange = "2019-10-25 13:21:48 +0000";
layers = (
{
layerId = UUID0;
paths = (
{
closed = 1;
nodes = (
"421 -5 OFFCURVE",
"533 56 OFFCURVE",
"533 157 CURVE SMOOTH",
"533 214 OFFCURVE",
"485 279 OFFCURVE",
"400 279 CURVE SMOOTH",
"327 279 OFFCURVE",
"272 232 OFFCURVE",
"272 169 CURVE SMOOTH",
"272 128 OFFCURVE",
"297 94 OFFCURVE",
"329 68 CURVE",
"316 67 OFFCURVE",
"303 66 OFFCURVE",
"290 66 CURVE SMOOTH",
"206 66 OFFCURVE",
"129 103 OFFCURVE",
"129 180 CURVE SMOOTH",
"129 314 OFFCURVE",
"361 349 OFFCURVE",
"361 519 CURVE SMOOTH",
"361 563 LINE SMOOTH",
"361 740 OFFCURVE",
"405 805 OFFCURVE",
"502 805 CURVE SMOOTH",
"600 805 OFFCURVE",
"640 735 OFFCURVE",
"640 573 CURVE SMOOTH",
"640 0 LINE",
"721 0 LINE",
"721 563 LINE SMOOTH",
"721 745 OFFCURVE",
"663 876 OFFCURVE",
"495 876 CURVE SMOOTH",
"349 876 OFFCURVE",
"280 770 OFFCURVE",
"280 577 CURVE SMOOTH",
"280 538 LINE SMOOTH",
"280 383 OFFCURVE",
"49 352 OFFCURVE",
"49 190 CURVE SMOOTH",
"49 76 OFFCURVE",
"164 -5 OFFCURVE",
"299 -5 CURVE SMOOTH"
);
},
{
closed = 1;
nodes = (
"342 -191 OFFCURVE",
"363 -169 OFFCURVE",
"363 -131 CURVE SMOOTH",
"363 -94 OFFCURVE",
"342 -73 OFFCURVE",
"308 -73 CURVE SMOOTH",
"273 -73 OFFCURVE",
"254 -94 OFFCURVE",
"254 -131 CURVE SMOOTH",
"254 -169 OFFCURVE",
"274 -191 OFFCURVE",
"308 -191 CURVE SMOOTH"
);
},
{
closed = 1;
nodes = (
"366 103 OFFCURVE",
"353 126 OFFCURVE",
"353 155 CURVE SMOOTH",
"353 187 OFFCURVE",
"376 208 OFFCURVE",
"405 208 CURVE SMOOTH",
"434 208 OFFCURVE",
"452 187 OFFCURVE",
"452 162 CURVE SMOOTH",
"452 125 OFFCURVE",
"425 98 OFFCURVE",
"384 83 CURVE"
);
}
);
width = 804;
}
);
script = kthi;
category = Letter;
},
{
glyphname = ktNNU.alt1;
lastChange = "2019-10-25 13:21:48 +0000";
layers = (
{
layerId = UUID0;
paths = (
{
closed = 1;
nodes = (
"519 -188 OFFCURVE",
"662 -140 OFFCURVE",
"662 73 CURVE SMOOTH",
"662 622 LINE",
"581 622 LINE",
"581 345 LINE",
"415 345 LINE",
"415 622 LINE",
"334 622 LINE",
"334 345 LINE",
"168 345 LINE",
"168 622 LINE",
"88 622 LINE",
"88 0 LINE",
"168 0 LINE",
"168 274 LINE",
"334 274 LINE",
"334 0 LINE",
"415 0 LINE",
"415 274 LINE",
"581 274 LINE",
"581 83 LINE SMOOTH",
"581 -85 OFFCURVE",
"478 -131 OFFCURVE",
"380 -181 CURVE",
"413 -244 LINE"
);
}
);
width = 745;
}
);
script = kthi;
category = Letter;
},
{
glyphname = ktTU.alt1;
lastChange = "2019-10-25 13:21:48 +0000";
layers = (
{
layerId = UUID0;
paths = (
{
closed = 1;
nodes = (
"338 -188 OFFCURVE",
"479 -140 OFFCURVE",
"479 73 CURVE SMOOTH",
"479 622 LINE",
"421 622 LINE",
"191 546 OFFCURVE",
"59 492 OFFCURVE",
"59 351 CURVE SMOOTH",
"59 272 OFFCURVE",
"105 184 OFFCURVE",
"167 97 CURVE",
"223 133 LINE",
"175 208 OFFCURVE",
"139 265 OFFCURVE",
"139 337 CURVE SMOOTH",
"139 450 OFFCURVE",
"254 484 OFFCURVE",
"400 528 CURVE",
"401 527 LINE",
"400 522 OFFCURVE",
"399 500 OFFCURVE",
"399 461 CURVE SMOOTH",
"399 83 LINE SMOOTH",
"399 -85 OFFCURVE",
"296 -131 OFFCURVE",
"198 -181 CURVE",
"231 -244 LINE"
);
}
);
width = 562;
}
);
script = kthi;
category = Letter;
},
{
glyphname = ktNU.alt1;
lastChange = "2019-10-25 13:21:48 +0000";
layers = (
{
layerId = UUID0;
paths = (
{
closed = 1;
nodes = (
"439 -205 OFFCURVE",
"520 -131 OFFCURVE",
"520 39 CURVE SMOOTH",
"520 622 LINE",
"461 622 LINE",
"237 541 OFFCURVE",
"45 404 OFFCURVE",
"45 256 CURVE SMOOTH",
"45 177 OFFCURVE",
"96 119 OFFCURVE",
"178 119 CURVE SMOOTH",
"251 119 OFFCURVE",
"303 173 OFFCURVE",
"303 250 CURVE SMOOTH",
"303 319 OFFCURVE",
"272 373 OFFCURVE",
"233 416 CURVE",
"292 463 OFFCURVE",
"367 504 OFFCURVE",
"439 532 CURVE",
"444 532 LINE",
"442 525 OFFCURVE",
"439 502 OFFCURVE",
"439 466 CURVE SMOOTH",
"439 49 LINE SMOOTH",
"439 -82 OFFCURVE",
"389 -134 OFFCURVE",
"295 -134 CURVE SMOOTH",
"215 -134 OFFCURVE",
"148 -93 OFFCURVE",
"86 -44 CURVE",
"44 -95 LINE",
"110 -147 OFFCURVE",
"195 -205 OFFCURVE",
"300 -205 CURVE SMOOTH"
);
},
{
closed = 1;
nodes = (
"143 190 OFFCURVE",
"125 212 OFFCURVE",
"125 243 CURVE SMOOTH",
"125 287 OFFCURVE",
"148 330 OFFCURVE",
"184 370 CURVE",
"207 344 OFFCURVE",
"222 311 OFFCURVE",
"222 269 CURVE SMOOTH",
"222 212 OFFCURVE",
"197 190 OFFCURVE",
"169 190 CURVE SMOOTH"
);
}
);
width = 603;
}
);
script = kthi;
category = Letter;
},
{
glyphname = ktTHU.alt1;
lastChange = "2019-10-25 13:21:48 +0000";
layers = (
{
layerId = UUID0;
paths = (
{
closed = 1;
nodes = (
"361 -188 OFFCURVE",
"502 -140 OFFCURVE",
"502 73 CURVE SMOOTH",
"502 622 LINE",
"422 622 LINE",
"422 248 LINE",
"387 218 OFFCURVE",
"344 202 OFFCURVE",
"288 202 CURVE SMOOTH",
"232 202 OFFCURVE",
"182 225 OFFCURVE",
"148 260 CURVE",
"216 309 OFFCURVE",
"335 378 OFFCURVE",
"335 499 CURVE SMOOTH",
"335 571 OFFCURVE",
"280 627 OFFCURVE",
"203 627 CURVE SMOOTH",
"141 627 OFFCURVE",
"97 585 OFFCURVE",
"97 526 CURVE SMOOTH",
"97 472 OFFCURVE",
"126 427 OFFCURVE",
"187 380 CURVE",
"143 339 OFFCURVE",
"86 306 OFFCURVE",
"44 279 CURVE",
"84 226 OFFCURVE",
"169 131 OFFCURVE",
"298 131 CURVE SMOOTH",
"346 131 OFFCURVE",
"387 141 OFFCURVE",
"422 160 CURVE",
"422 83 LINE SMOOTH",
"422 -85 OFFCURVE",
"319 -131 OFFCURVE",
"221 -181 CURVE",
"254 -244 LINE"
);
},
{
closed = 1;
nodes = (
"190 456 OFFCURVE",
"172 484 OFFCURVE",
"172 516 CURVE SMOOTH",
"172 541 OFFCURVE",
"186 561 OFFCURVE",
"210 561 CURVE SMOOTH",
"237 561 OFFCURVE",
"255 536 OFFCURVE",
"255 507 CURVE SMOOTH",
"255 477 OFFCURVE",
"244 449 OFFCURVE",
"227 424 CURVE"
);
}
);
width = 585;
}
);
script = kthi;
category = Letter;
},
{
glyphname = ktDHU.alt1;
lastChange = "2019-10-25 13:21:48 +0000";
layers = (
{
layerId = UUID0;
paths = (
{
closed = 1;
nodes = (
"294 -235 OFFCURVE",
"512 -175 OFFCURVE",
"512 73 CURVE SMOOTH",
"512 622 LINE",
"431 622 LINE",
"431 250 LINE",
"381 215 OFFCURVE",
"322 197 OFFCURVE",
"263 197 CURVE SMOOTH",
"196 197 OFFCURVE",
"139 223 OFFCURVE",
"139 275 CURVE SMOOTH",
"139 337 OFFCURVE",
"212 370 OFFCURVE",
"338 370 CURVE",
"193 627 LINE",
"127 590 LINE",
"224 439 LINE",
"127 418 OFFCURVE",
"59 365 OFFCURVE",
"59 286 CURVE SMOOTH",
"59 187 OFFCURVE",
"155 127 OFFCURVE",
"273 127 CURVE SMOOTH",
"331 127 OFFCURVE",
"384 139 OFFCURVE",
"431 165 CURVE",
"431 83 LINE SMOOTH",
"431 -124 OFFCURVE",
"264 -168 OFFCURVE",
"123 -181 CURVE",
"132 -244 LINE"
);
}
);
width = 595;
}
);
script = kthi;
category = Letter;
},
{
glyphname = ktPU.alt1;
lastChange = "2019-10-25 13:21:48 +0000";
layers = (
{
layerId = UUID0;
paths = (
{
closed = 1;
nodes = (
"250 -235 OFFCURVE",
"467 -175 OFFCURVE",
"467 73 CURVE SMOOTH",
"467 622 LINE",
"387 622 LINE",
"387 328 LINE",
"361 297 OFFCURVE",
"324 268 OFFCURVE",
"274 268 CURVE SMOOTH",
"211 268 OFFCURVE",
"183 301 OFFCURVE",
"183 369 CURVE SMOOTH",
"183 622 LINE",
"103 622 LINE",
"103 401 LINE SMOOTH",
"103 274 OFFCURVE",
"174 198 OFFCURVE",
"287 198 CURVE SMOOTH",
"325 198 OFFCURVE",
"366 213 OFFCURVE",
"387 231 CURVE",
"392 231 LINE",
"390 222 OFFCURVE",
"387 192 OFFCURVE",
"387 147 CURVE SMOOTH",
"387 83 LINE SMOOTH",
"387 -124 OFFCURVE",
"219 -168 OFFCURVE",
"78 -181 CURVE",
"88 -244 LINE"
);
}
);
width = 561;
}
);
script = kthi;
category = Letter;
},
{
glyphname = ktBU.alt1;
lastChange = "2019-10-25 13:21:48 +0000";
layers = (
{
layerId = UUID0;
paths = (
{
closed = 1;
nodes = (
"343 -188 OFFCURVE",
"485 -140 OFFCURVE",
"485 73 CURVE SMOOTH",
"485 622 LINE",
"404 622 LINE",
"404 287 LINE",
"366 254 OFFCURVE",
"315 232 OFFCURVE",
"259 232 CURVE SMOOTH",
"185 232 OFFCURVE",
"125 280 OFFCURVE",
"125 362 CURVE SMOOTH",
"125 439 OFFCURVE",
"182 489 OFFCURVE",
"256 489 CURVE SMOOTH",
"280 489 OFFCURVE",
"304 483 OFFCURVE",
"321 476 CURVE",
"348 540 LINE",
"321 554 OFFCURVE",
"294 566 OFFCURVE",
"247 566 CURVE SMOOTH",
"138 566 OFFCURVE",
"44 477 OFFCURVE",
"44 370 CURVE SMOOTH",
"44 253 OFFCURVE",
"135 162 OFFCURVE",
"269 162 CURVE SMOOTH",
"321 162 OFFCURVE",
"365 173 OFFCURVE",
"404 195 CURVE",
"404 83 LINE SMOOTH",
"404 -85 OFFCURVE",
"302 -131 OFFCURVE",
"203 -181 CURVE",
"237 -244 LINE"
);
}
);
width = 570;
}
);
script = kthi;
category = Letter;
},
{
glyphname = ktPHII;
lastChange = "2019-10-25 13:21:48 +0000";
layers = (
{
layerId = UUID0;
paths = (
{
closed = 1;
nodes = (
"543 -24 OFFCURVE",
"620 21 OFFCURVE",
"620 95 CURVE SMOOTH",
"620 160 OFFCURVE",
"568 214 OFFCURVE",
"495 214 CURVE SMOOTH",
"442 214 OFFCURVE",
"397 175 OFFCURVE",
"397 121 CURVE SMOOTH",
"397 86 OFFCURVE",
"415 58 OFFCURVE",
"438 37 CURVE",
"433 37 LINE SMOOTH",
"336 37 OFFCURVE",
"210 134 OFFCURVE",
"156 189 CURVE",
"215 222 OFFCURVE",
"282 264 OFFCURVE",
"332 316 CURVE",
"400 283 OFFCURVE",
"477 258 OFFCURVE",
"544 240 CURVE",
"567 257 LINE",
"567 607 LINE SMOOTH",
"567 757 OFFCURVE",
"598 806 OFFCURVE",
"665 806 CURVE SMOOTH",
"732 806 OFFCURVE",
"755 753 OFFCURVE",
"755 612 CURVE SMOOTH",
"755 0 LINE",
"835 0 LINE",
"835 598 LINE SMOOTH",
"835 781 OFFCURVE",
"779 877 OFFCURVE",
"660 877 CURVE SMOOTH",
"538 877 OFFCURVE",
"486 795 OFFCURVE",
"486 622 CURVE SMOOTH",
"486 326 LINE",
"446 337 OFFCURVE",
"408 352 OFFCURVE",
"372 367 CURVE",
"392 399 OFFCURVE",
"404 434 OFFCURVE",
"404 473 CURVE SMOOTH",
"404 552 OFFCURVE",
"348 627 OFFCURVE",
"253 627 CURVE SMOOTH",
"188 627 OFFCURVE",
"140 586 OFFCURVE",
"140 523 CURVE SMOOTH",
"140 455 OFFCURVE",
"190 399 OFFCURVE",
"262 354 CURVE",
"208 301 OFFCURVE",
"126 258 OFFCURVE",
"46 210 CURVE",
"148 95 OFFCURVE",
"300 -24 OFFCURVE",
"448 -24 CURVE SMOOTH"
);
},
{
closed = 1;
nodes = (
"481 63 OFFCURVE",
"468 83 OFFCURVE",
"468 105 CURVE SMOOTH",
"468 127 OFFCURVE",
"484 143 OFFCURVE",
"504 143 CURVE SMOOTH",
"527 143 OFFCURVE",
"544 127 OFFCURVE",
"544 105 CURVE SMOOTH",
"544 78 OFFCURVE",
"526 59 OFFCURVE",
"498 47 CURVE"
);
},
{
closed = 1;
nodes = (
"252 436 OFFCURVE",
"220 472 OFFCURVE",
"220 513 CURVE SMOOTH",
"220 540 OFFCURVE",
"237 556 OFFCURVE",
"261 556 CURVE SMOOTH",
"303 556 OFFCURVE",
"324 518 OFFCURVE",
"324 482 CURVE SMOOTH",
"324 453 OFFCURVE",
"316 427 OFFCURVE",
"302 404 CURVE"
);
}
);
width = 918;
}
);
script = kthi;
category = Letter;
},
{
glyphname = ktBHU.alt1;
lastChange = "2019-10-25 13:21:48 +0000";
layers = (
{
layerId = UUID0;
paths = (
{
closed = 1;
nodes = (
"416 -188 OFFCURVE",
"557 -140 OFFCURVE",
"557 73 CURVE SMOOTH",
"557 622 LINE",
"499 622 LINE",
"429 586 OFFCURVE",
"359 546 OFFCURVE",
"297 504 CURVE",
"272 557 OFFCURVE",
"246 600 OFFCURVE",
"228 627 CURVE",
"165 621 OFFCURVE",
"92 600 OFFCURVE",
"54 586 CURVE",
"73 524 LINE",
"101 534 OFFCURVE",
"151 550 OFFCURVE",
"187 557 CURVE",
"204 531 OFFCURVE",
"223 498 OFFCURVE",
"238 461 CURVE",
"155 394 OFFCURVE",
"97 320 OFFCURVE",
"97 242 CURVE SMOOTH",
"97 165 OFFCURVE",
"150 104 OFFCURVE",
"230 104 CURVE SMOOTH",
"303 104 OFFCURVE",
"360 157 OFFCURVE",
"360 255 CURVE SMOOTH",
"360 316 OFFCURVE",
"347 375 OFFCURVE",
"328 429 CURVE",
"367 455 OFFCURVE",
"409 480 OFFCURVE",
"477 524 CURVE",
"479 524 LINE",
"478 514 OFFCURVE",
"477 487 OFFCURVE",
"477 451 CURVE SMOOTH",
"477 83 LINE SMOOTH",
"477 -85 OFFCURVE",
"374 -131 OFFCURVE",
"275 -181 CURVE",
"309 -244 LINE"
);
},
{
closed = 1;
nodes = (
"193 175 OFFCURVE",
"178 195 OFFCURVE",
"178 229 CURVE SMOOTH",
"178 281 OFFCURVE",
"213 333 OFFCURVE",
"266 380 CURVE",
"274 346 OFFCURVE",
"279 311 OFFCURVE",
"279 274 CURVE SMOOTH",
"279 204 OFFCURVE",
"251 175 OFFCURVE",
"220 175 CURVE SMOOTH"
);
}
);
width = 633;
}
);
script = kthi;
category = Letter;
},
{
glyphname = ktMU.alt1;
lastChange = "2019-10-25 13:21:48 +0000";
layers = (
{
layerId = UUID0;
paths = (
{
closed = 1;
nodes = (
"374 -188 OFFCURVE",
"516 -140 OFFCURVE",
"516 73 CURVE SMOOTH",
"516 622 LINE",
"457 622 LINE",
"399 546 OFFCURVE",
"342 511 OFFCURVE",
"256 468 CURVE SMOOTH",
"251 465 OFFCURVE",
"246 462 OFFCURVE",
"240 459 CURVE",
"200 532 OFFCURVE",
"152 597 OFFCURVE",
"128 627 CURVE",
"71 585 LINE",
"95 555 OFFCURVE",
"144 492 OFFCURVE",
"181 424 CURVE",
"117 381 OFFCURVE",
"73 329 OFFCURVE",
"73 259 CURVE SMOOTH",
"73 178 OFFCURVE",
"131 134 OFFCURVE",
"194 134 CURVE SMOOTH",
"260 134 OFFCURVE",
"309 176 OFFCURVE",
"309 255 CURVE SMOOTH",
"309 297 OFFCURVE",
"294 345 OFFCURVE",
"274 392 CURVE",
"281 396 OFFCURVE",
"290 401 OFFCURVE",
"298 405 CURVE SMOOTH",
"367 440 OFFCURVE",
"399 458 OFFCURVE",
"436 497 CURVE",
"437 495 LINE",
"436 488 OFFCURVE",
"435 466 OFFCURVE",
"435 429 CURVE SMOOTH",
"435 83 LINE SMOOTH",
"435 -85 OFFCURVE",
"333 -131 OFFCURVE",
"234 -181 CURVE",
"268 -244 LINE"
);
},
{
closed = 1;
nodes = (
"168 205 OFFCURVE",
"153 221 OFFCURVE",
"153 250 CURVE SMOOTH",
"153 290 OFFCURVE",
"175 322 OFFCURVE",
"214 353 CURVE",
"226 323 OFFCURVE",
"233 293 OFFCURVE",
"233 267 CURVE SMOOTH",
"233 231 OFFCURVE",
"218 205 OFFCURVE",
"190 205 CURVE SMOOTH"
);
}
);
width = 604;
}
);
script = kthi;
category = Letter;
},
{
glyphname = ktYU.alt1;
lastChange = "2019-10-25 13:21:48 +0000";
layers = (
{
layerId = UUID0;
paths = (
{
closed = 1;
nodes = (
"330 -188 OFFCURVE",
"471 -140 OFFCURVE",
"471 73 CURVE SMOOTH",
"471 622 LINE",
"391 622 LINE",
"391 236 LINE",
"348 209 OFFCURVE",
"299 192 OFFCURVE",
"241 192 CURVE SMOOTH",
"177 192 OFFCURVE",
"125 211 OFFCURVE",
"125 263 CURVE SMOOTH",
"125 344 OFFCURVE",
"282 378 OFFCURVE",
"282 469 CURVE SMOOTH",
"282 529 OFFCURVE",
"247 570 OFFCURVE",
"187 627 CURVE",
"139 584 LINE",
"180 543 OFFCURVE",
"201 521 OFFCURVE",
"201 482 CURVE SMOOTH",
"201 411 OFFCURVE",
"44 372 OFFCURVE",
"44 275 CURVE SMOOTH",
"44 186 OFFCURVE",
"139 121 OFFCURVE",
"251 121 CURVE SMOOTH",
"305 121 OFFCURVE",
"351 134 OFFCURVE",
"391 151 CURVE",
"391 83 LINE SMOOTH",
"391 -85 OFFCURVE",
"288 -131 OFFCURVE",
"189 -181 CURVE",
"223 -244 LINE"
);
},
{
closed = 1;
nodes = (
"225 -68 OFFCURVE",
"246 -45 OFFCURVE",
"246 -8 CURVE SMOOTH",
"246 30 OFFCURVE",
"225 51 OFFCURVE",
"190 51 CURVE SMOOTH",
"156 51 OFFCURVE",
"137 30 OFFCURVE",
"137 -8 CURVE SMOOTH",
"137 -45 OFFCURVE",
"157 -68 OFFCURVE",
"190 -68 CURVE SMOOTH"
);
}
);
width = 554;
}
);
script = kthi;
category = Letter;
},
{
glyphname = ktYUU;
lastChange = "2019-10-25 13:21:48 +0000";
layers = (
{
layerId = UUID0;
paths = (
{
closed = 1;
nodes = (
"649 -238 LINE",
"623 -179 OFFCURVE",
"566 -52 OFFCURVE",
"458 -9 CURVE",
"459 -4 OFFCURVE",
"471 27 OFFCURVE",
"471 93 CURVE SMOOTH",
"471 622 LINE",
"391 622 LINE",
"391 236 LINE",
"348 209 OFFCURVE",
"299 192 OFFCURVE",
"241 192 CURVE SMOOTH",
"177 192 OFFCURVE",
"125 211 OFFCURVE",
"125 263 CURVE SMOOTH",
"125 344 OFFCURVE",
"282 378 OFFCURVE",
"282 469 CURVE SMOOTH",
"282 529 OFFCURVE",
"247 570 OFFCURVE",
"187 627 CURVE",
"139 584 LINE",
"180 543 OFFCURVE",
"201 521 OFFCURVE",
"201 482 CURVE SMOOTH",
"201 411 OFFCURVE",
"44 372 OFFCURVE",
"44 275 CURVE SMOOTH",
"44 186 OFFCURVE",
"139 121 OFFCURVE",
"251 121 CURVE SMOOTH",
"305 121 OFFCURVE",
"351 134 OFFCURVE",
"391 151 CURVE",
"391 4 LINE",
"386 5 OFFCURVE",
"385 5 OFFCURVE",
"382 5 CURVE SMOOTH",
"293 5 OFFCURVE",
"243 -46 OFFCURVE",
"243 -112 CURVE SMOOTH",
"243 -187 OFFCURVE",
"310 -240 OFFCURVE",
"399 -240 CURVE",
"411 -181 LINE",
"360 -180 OFFCURVE",
"323 -158 OFFCURVE",
"323 -121 CURVE SMOOTH",
"323 -90 OFFCURVE",
"348 -66 OFFCURVE",
"390 -66 CURVE SMOOTH",
"499 -66 OFFCURVE",
"565 -202 OFFCURVE",
"596 -265 CURVE"
);
},
{
closed = 1;
nodes = (
"167 -58 OFFCURVE",
"187 -36 OFFCURVE",
"187 2 CURVE SMOOTH",
"187 40 OFFCURVE",
"167 61 OFFCURVE",
"132 61 CURVE SMOOTH",
"98 61 OFFCURVE",
"78 40 OFFCURVE",
"78 2 CURVE SMOOTH",
"78 -36 OFFCURVE",
"98 -58 OFFCURVE",
"132 -58 CURVE SMOOTH"
);
}
);
width = 565;
}
);
script = kthi;
category = Letter;
},
{
glyphname = ktRU.alt1;
lastChange = "2019-10-25 13:21:48 +0000";
layers = (
{
layerId = UUID0;
paths = (
{
closed = 1;
nodes = (
"223 -188 OFFCURVE",
"364 -140 OFFCURVE",
"364 73 CURVE SMOOTH",
"364 622 LINE",
"306 622 LINE",
"34 374 LINE",
"87 308 LINE",
"223 431 LINE SMOOTH",
"247 453 OFFCURVE",
"268 479 OFFCURVE",
"284 500 CURVE",
"286 500 LINE",
"285 491 OFFCURVE",
"284 450 OFFCURVE",
"284 376 CURVE SMOOTH",
"284 83 LINE SMOOTH",
"284 -85 OFFCURVE",
"181 -131 OFFCURVE",
"83 -181 CURVE",
"116 -244 LINE"
);
}
);
width = 447;
}
);
script = kthi;
category = Letter;
},
{
glyphname = ktVU.alt1;
lastChange = "2019-10-25 13:21:48 +0000";
layers = (
{
layerId = UUID0;
paths = (
{
closed = 1;
nodes = (
"348 -188 OFFCURVE",
"490 -140 OFFCURVE",
"490 73 CURVE SMOOTH",
"490 622 LINE",
"409 622 LINE",
"409 287 LINE",
"371 254 OFFCURVE",
"320 232 OFFCURVE",
"264 232 CURVE SMOOTH",
"189 232 OFFCURVE",
"129 280 OFFCURVE",
"129 362 CURVE SMOOTH",
"129 439 OFFCURVE",
"187 489 OFFCURVE",
"261 489 CURVE SMOOTH",
"285 489 OFFCURVE",
"309 483 OFFCURVE",
"326 476 CURVE",
"353 540 LINE",
"326 554 OFFCURVE",
"299 566 OFFCURVE",
"252 566 CURVE SMOOTH",
"143 566 OFFCURVE",
"49 477 OFFCURVE",
"49 370 CURVE SMOOTH",
"49 253 OFFCURVE",
"140 162 OFFCURVE",
"273 162 CURVE SMOOTH",
"326 162 OFFCURVE",
"370 173 OFFCURVE",
"409 195 CURVE",
"409 83 LINE SMOOTH",
"409 -85 OFFCURVE",
"307 -131 OFFCURVE",
"208 -181 CURVE",
"242 -244 LINE"
);
},
{
closed = 1;
nodes = (
"259 -50 OFFCURVE",
"280 -28 OFFCURVE",
"280 10 CURVE SMOOTH",
"280 47 OFFCURVE",
"259 68 OFFCURVE",
"225 68 CURVE SMOOTH",
"190 68 OFFCURVE",
"171 47 OFFCURVE",
"171 10 CURVE SMOOTH",
"171 -28 OFFCURVE",
"191 -50 OFFCURVE",
"225 -50 CURVE SMOOTH"
);
}
);
width = 573;
}
);
script = kthi;
category = Letter;
},
{
glyphname = ktVUU;
lastChange = "2019-10-25 13:21:48 +0000";
layers = (
{
layerId = UUID0;
paths = (
{
closed = 1;
nodes = (
"668 -238 LINE",
"642 -179 OFFCURVE",
"585 -52 OFFCURVE",
"477 -9 CURVE",
"478 -7 OFFCURVE",
"490 26 OFFCURVE",
"490 93 CURVE SMOOTH",
"490 622 LINE",
"409 622 LINE",
"409 287 LINE",
"371 254 OFFCURVE",
"320 232 OFFCURVE",
"264 232 CURVE SMOOTH",
"189 232 OFFCURVE",
"129 280 OFFCURVE",
"129 362 CURVE SMOOTH",
"129 439 OFFCURVE",
"187 489 OFFCURVE",
"261 489 CURVE SMOOTH",
"285 489 OFFCURVE",
"309 483 OFFCURVE",
"326 476 CURVE",
"353 540 LINE",
"326 554 OFFCURVE",
"299 566 OFFCURVE",
"252 566 CURVE SMOOTH",
"143 566 OFFCURVE",
"49 477 OFFCURVE",
"49 370 CURVE SMOOTH",
"49 253 OFFCURVE",
"140 162 OFFCURVE",
"273 162 CURVE SMOOTH",
"326 162 OFFCURVE",
"370 173 OFFCURVE",
"409 195 CURVE",
"409 4 LINE",
"405 5 OFFCURVE",
"404 5 OFFCURVE",
"401 5 CURVE SMOOTH",
"312 5 OFFCURVE",
"262 -46 OFFCURVE",
"262 -112 CURVE SMOOTH",
"262 -187 OFFCURVE",
"329 -240 OFFCURVE",
"418 -240 CURVE",
"430 -181 LINE",
"379 -180 OFFCURVE",
"342 -158 OFFCURVE",
"342 -121 CURVE SMOOTH",
"342 -90 OFFCURVE",
"367 -66 OFFCURVE",
"409 -66 CURVE SMOOTH",
"518 -66 OFFCURVE",
"584 -202 OFFCURVE",
"615 -265 CURVE"
);
},
{
closed = 1;
nodes = (
"201 -26 OFFCURVE",
"221 -3 OFFCURVE",
"221 34 CURVE SMOOTH",
"221 72 OFFCURVE",
"201 93 OFFCURVE",
"166 93 CURVE SMOOTH",
"132 93 OFFCURVE",
"112 72 OFFCURVE",
"112 34 CURVE SMOOTH",
"112 -3 OFFCURVE",
"132 -26 OFFCURVE",
"166 -26 CURVE SMOOTH"
);
}
);
width = 584;
}
);
script = kthi;
category = Letter;
},
{
glyphname = ktSHU.alt1;
lastChange = "2019-10-25 13:21:48 +0000";
layers = (
{
layerId = UUID0;
paths = (
{
closed = 1;
nodes = (
"435 -188 OFFCURVE",
"577 -140 OFFCURVE",
"577 73 CURVE SMOOTH",
"577 622 LINE",
"496 622 LINE",
"496 283 LINE",
"458 297 OFFCURVE",
"419 312 OFFCURVE",
"384 327 CURVE",
"397 357 OFFCURVE",
"404 391 OFFCURVE",
"404 429 CURVE SMOOTH",
"404 540 OFFCURVE",
"356 627 OFFCURVE",
"249 627 CURVE SMOOTH",
"172 627 OFFCURVE",
"125 577 OFFCURVE",
"125 511 CURVE SMOOTH",
"125 423 OFFCURVE",
"189 359 OFFCURVE",
"280 308 CURVE",
"261 283 OFFCURVE",
"236 265 OFFCURVE",
"211 253 CURVE",
"182 276 OFFCURVE",
"151 289 OFFCURVE",
"120 289 CURVE SMOOTH",
"83 289 OFFCURVE",
"59 269 OFFCURVE",
"59 238 CURVE SMOOTH",
"59 196 OFFCURVE",
"104 169 OFFCURVE",
"152 169 CURVE SMOOTH",
"167 169 OFFCURVE",
"181 171 OFFCURVE",
"196 174 CURVE",
"327 -11 LINE",
"390 37 LINE",
"347 99 OFFCURVE",
"307 156 OFFCURVE",
"267 201 CURVE",
"298 218 OFFCURVE",
"328 242 OFFCURVE",
"351 272 CURVE",
"397 251 OFFCURVE",
"446 232 OFFCURVE",
"496 214 CURVE",
"496 83 LINE SMOOTH",
"496 -85 OFFCURVE",
"394 -131 OFFCURVE",
"295 -181 CURVE",
"329 -244 LINE"
);
},
{
closed = 1;
nodes = (
"248 401 OFFCURVE",
"206 445 OFFCURVE",
"206 501 CURVE SMOOTH",
"206 534 OFFCURVE",
"223 556 OFFCURVE",
"256 556 CURVE SMOOTH",
"308 556 OFFCURVE",
"324 497 OFFCURVE",
"324 438 CURVE SMOOTH",
"324 410 OFFCURVE",
"319 385 OFFCURVE",
"312 364 CURVE"
);
}
);
width = 660;
}
);
script = kthi;
category = Letter;
},
{
glyphname = ktSSU.alt1;
lastChange = "2019-10-25 13:21:48 +0000";
layers = (
{
layerId = UUID0;
paths = (
{
closed = 1;
nodes = (
"296 -188 OFFCURVE",
"438 -140 OFFCURVE",
"438 73 CURVE SMOOTH",
"438 622 LINE",
"357 622 LINE",
"357 374 LINE",
"154 622 LINE",
"73 622 LINE",
"73 401 LINE SMOOTH",
"73 274 OFFCURVE",
"145 198 OFFCURVE",
"257 198 CURVE SMOOTH",
"296 198 OFFCURVE",
"337 213 OFFCURVE",
"357 231 CURVE",
"360 231 LINE",
"359 225 OFFCURVE",
"357 198 OFFCURVE",
"357 147 CURVE SMOOTH",
"357 83 LINE SMOOTH",
"357 -85 OFFCURVE",
"255 -131 OFFCURVE",
"156 -181 CURVE",
"190 -244 LINE"
);
},
{
closed = 1;
nodes = (
"182 268 OFFCURVE",
"154 301 OFFCURVE",
"154 369 CURVE SMOOTH",
"154 518 LINE",
"284 354 LINE SMOOTH",
"304 329 OFFCURVE",
"326 317 OFFCURVE",
"342 311 CURVE",
"317 287 OFFCURVE",
"285 268 OFFCURVE",
"245 268 CURVE SMOOTH"
);
}
);
width = 521;
}
);
script = kthi;
category = Letter;
},
{
glyphname = ktSU.alt1;
lastChange = "2019-10-25 13:21:48 +0000";
layers = (
{
layerId = UUID0;
paths = (
{
closed = 1;
nodes = (
"479 -188 OFFCURVE",
"621 -140 OFFCURVE",
"621 73 CURVE SMOOTH",
"621 622 LINE",
"540 622 LINE",
"540 366 LINE",
"519 356 OFFCURVE",
"498 352 OFFCURVE",
"470 352 CURVE SMOOTH",
"445 352 OFFCURVE",
"425 355 OFFCURVE",
"403 363 CURVE",
"410 383 OFFCURVE",
"414 405 OFFCURVE",
"414 429 CURVE SMOOTH",
"414 527 OFFCURVE",
"346 627 OFFCURVE",
"217 627 CURVE SMOOTH",
"149 627 OFFCURVE",
"98 594 OFFCURVE",
"66 567 CURVE",
"109 507 LINE",
"140 533 OFFCURVE",
"175 556 OFFCURVE",
"223 556 CURVE SMOOTH",
"286 556 OFFCURVE",
"333 515 OFFCURVE",
"333 438 CURVE SMOOTH",
"333 359 OFFCURVE",
"278 317 OFFCURVE",
"222 297 CURVE",
"189 328 OFFCURVE",
"156 348 OFFCURVE",
"120 348 CURVE SMOOTH",
"81 348 OFFCURVE",
"59 325 OFFCURVE",
"59 294 CURVE SMOOTH",
"59 252 OFFCURVE",
"104 218 OFFCURVE",
"167 218 CURVE SMOOTH",
"179 218 OFFCURVE",
"192 219 OFFCURVE",
"206 221 CURVE",
"298 64 LINE",
"369 103 LINE",
"336 149 OFFCURVE",
"305 197 OFFCURVE",
"273 238 CURVE",
"312 252 OFFCURVE",
"347 275 OFFCURVE",
"373 308 CURVE",
"403 293 OFFCURVE",
"437 283 OFFCURVE",
"478 283 CURVE SMOOTH",
"503 283 OFFCURVE",
"522 286 OFFCURVE",
"540 291 CURVE",
"540 83 LINE SMOOTH",
"540 -85 OFFCURVE",
"437 -131 OFFCURVE",
"339 -181 CURVE",
"373 -244 LINE"
);
}
);
width = 704;
}
);
script = kthi;
category = Letter;
},
{
glyphname = ktKa.half;
lastChange = "2019-10-25 13:21:48 +0000";
layers = (
{
layerId = UUID0;
paths = (
{
closed = 1;
nodes = (
"436 0 LINE",
"436 294 LINE",
"474 337 OFFCURVE",
"514 374 OFFCURVE",
"560 374 CURVE SMOOTH",
"601 374 OFFCURVE",
"625 354 OFFCURVE",
"642 329 CURVE",
"654 333 LINE",
"643 405 LINE",
"625 430 OFFCURVE",
"594 450 OFFCURVE",
"552 450 CURVE SMOOTH",
"505 450 OFFCURVE",
"466 425 OFFCURVE",
"436 398 CURVE",
"433 398 LINE",
"434 403 OFFCURVE",
"436 424 OFFCURVE",
"436 464 CURVE SMOOTH",
"436 622 LINE",
"355 622 LINE",
"355 441 LINE",
"323 463 OFFCURVE",
"279 484 OFFCURVE",
"221 484 CURVE SMOOTH",
"126 484 OFFCURVE",
"46 424 OFFCURVE",
"46 331 CURVE SMOOTH",
"46 233 OFFCURVE",
"126 166 OFFCURVE",
"224 166 CURVE SMOOTH",
"273 166 OFFCURVE",
"319 186 OFFCURVE",
"355 214 CURVE",
"357 214 LINE",
"356 210 OFFCURVE",
"355 191 OFFCURVE",
"355 157 CURVE SMOOTH",
"355 0 LINE"
);
},
{
closed = 1;
nodes = (
"168 236 OFFCURVE",
"127 264 OFFCURVE",
"127 321 CURVE SMOOTH",
"127 377 OFFCURVE",
"175 413 OFFCURVE",
"230 413 CURVE SMOOTH",
"278 413 OFFCURVE",
"320 398 OFFCURVE",
"355 380 CURVE",
"355 311 LINE",
"317 271 OFFCURVE",
"268 236 OFFCURVE",
"214 236 CURVE SMOOTH"
);
}
);
width = 609;
}
);
script = kthi;
category = Letter;
},
{
glyphname = ktKHa.half;
lastChange = "2019-10-25 13:21:48 +0000";
layers = (
{
layerId = UUID0;
paths = (
{
closed = 1;
nodes = (
"280 212 OFFCURVE",
"326 232 OFFCURVE",
"352 255 CURVE",
"354 255 LINE",
"381 227 OFFCURVE",
"422 212 OFFCURVE",
"472 212 CURVE SMOOTH",
"565 212 OFFCURVE",
"627 296 OFFCURVE",
"627 324 CURVE",
"591 375 LINE",
"574 349 OFFCURVE",
"530 283 OFFCURVE",
"455 283 CURVE SMOOTH",
"410 283 OFFCURVE",
"388 301 OFFCURVE",
"388 369 CURVE SMOOTH",
"388 622 LINE",
"308 622 LINE",
"308 401 LINE SMOOTH",
"308 375 OFFCURVE",
"310 353 OFFCURVE",
"314 332 CURVE",
"290 306 OFFCURVE",
"255 283 OFFCURVE",
"211 283 CURVE SMOOTH",
"168 283 OFFCURVE",
"144 308 OFFCURVE",
"144 369 CURVE SMOOTH",
"144 622 LINE",
"63 622 LINE",
"63 377 LINE SMOOTH",
"63 270 OFFCURVE",
"133 212 OFFCURVE",
"228 212 CURVE SMOOTH"
);
}
);
width = 565;
}
);
script = kthi;
category = Letter;
},
{
glyphname = ktGHa.half;
lastChange = "2019-10-25 13:21:48 +0000";
layers = (
{
layerId = UUID0;
paths = (
{
closed = 1;
nodes = (
"354 98 OFFCURVE",
"417 117 OFFCURVE",
"473 155 CURVE",
"449 227 LINE",
"397 187 OFFCURVE",
"335 168 OFFCURVE",
"272 168 CURVE SMOOTH",
"206 168 OFFCURVE",
"149 193 OFFCURVE",
"149 246 CURVE SMOOTH",
"149 308 OFFCURVE",
"222 340 OFFCURVE",
"348 340 CURVE",
"338 421 LINE",
"290 421 OFFCURVE",
"244 415 OFFCURVE",
"205 402 CURVE",
"182 423 OFFCURVE",
"166 447 OFFCURVE",
"166 475 CURVE SMOOTH",
"166 530 OFFCURVE",
"215 556 OFFCURVE",
"321 556 CURVE",
"315 627 LINE",
"131 627 OFFCURVE",
"84 561 OFFCURVE",
"84 490 CURVE SMOOTH",
"84 444 OFFCURVE",
"115 406 OFFCURVE",
"149 379 CURVE",
"99 351 OFFCURVE",
"68 310 OFFCURVE",
"68 256 CURVE SMOOTH",
"68 157 OFFCURVE",
"165 98 OFFCURVE",
"283 98 CURVE SMOOTH"
);
}
);
width = 430;
}
);
script = kthi;
category = Letter;
},
{
glyphname = ktCa.half;
lastChange = "2019-10-25 13:21:48 +0000";
layers = (
{
layerId = UUID0;
paths = (
{
closed = 1;
nodes = (
"366 131 OFFCURVE",
"419 170 OFFCURVE",
"456 213 CURVE",
"421 281 LINE",
"390 238 OFFCURVE",
"343 202 OFFCURVE",
"268 202 CURVE SMOOTH",
"214 202 OFFCURVE",
"169 223 OFFCURVE",
"134 260 CURVE",
"193 311 OFFCURVE",
"267 375 OFFCURVE",
"267 460 CURVE SMOOTH",
"267 537 OFFCURVE",
"216 585 OFFCURVE",
"158 627 CURVE",
"115 579 LINE",
"159 546 OFFCURVE",
"187 514 OFFCURVE",
"187 468 CURVE SMOOTH",
"187 396 OFFCURVE",
"103 338 OFFCURVE",
"29 279 CURVE",
"69 226 OFFCURVE",
"152 131 OFFCURVE",
"278 131 CURVE SMOOTH"
);
}
);
width = 388;
}
);
script = kthi;
category = Letter;
},
{
glyphname = ktKMa;
lastChange = "2019-10-25 13:21:48 +0000";
layers = (
{
layerId = UUID0;
paths = (
{
closed = 1;
nodes = (
"436 0 LINE",
"436 282 LINE",
"508 370 OFFCURVE",
"565 463 OFFCURVE",
"643 463 CURVE SMOOTH",
"697 463 OFFCURVE",
"731 418 OFFCURVE",
"751 357 CURVE",
"676 303 OFFCURVE",
"612 256 OFFCURVE",
"612 181 CURVE SMOOTH",
"612 100 OFFCURVE",
"670 56 OFFCURVE",
"733 56 CURVE SMOOTH",
"799 56 OFFCURVE",
"848 113 OFFCURVE",
"848 196 CURVE SMOOTH",
"848 235 OFFCURVE",
"843 280 OFFCURVE",
"833 323 CURVE",
"838 327 LINE SMOOTH",
"902 372 OFFCURVE",
"952 426 OFFCURVE",
"985 477 CURVE",
"987 476 LINE",
"986 469 OFFCURVE",
"984 447 OFFCURVE",
"984 410 CURVE SMOOTH",
"984 0 LINE",
"1065 0 LINE",
"1065 622 LINE",
"1006 622 LINE",
"959 536 OFFCURVE",
"905 474 OFFCURVE",
"809 399 CURVE",
"776 475 OFFCURVE",
"722 534 OFFCURVE",
"638 534 CURVE SMOOTH",
"552 534 OFFCURVE",
"492 469 OFFCURVE",
"436 398 CURVE",
"433 398 LINE",
"434 403 OFFCURVE",
"436 424 OFFCURVE",
"436 464 CURVE SMOOTH",
"436 622 LINE",
"355 622 LINE",
"355 441 LINE",
"323 463 OFFCURVE",
"279 484 OFFCURVE",
"221 484 CURVE SMOOTH",
"126 484 OFFCURVE",
"46 424 OFFCURVE",
"46 331 CURVE SMOOTH",
"46 233 OFFCURVE",
"126 166 OFFCURVE",
"224 166 CURVE SMOOTH",
"273 166 OFFCURVE",
"319 186 OFFCURVE",
"355 214 CURVE",
"357 214 LINE",
"356 210 OFFCURVE",
"355 191 OFFCURVE",
"355 157 CURVE SMOOTH",
"355 0 LINE"
);
},
{
closed = 1;
nodes = (
"168 236 OFFCURVE",
"127 264 OFFCURVE",
"127 321 CURVE SMOOTH",
"127 377 OFFCURVE",
"175 413 OFFCURVE",
"230 413 CURVE SMOOTH",
"278 413 OFFCURVE",
"320 398 OFFCURVE",
"355 380 CURVE",
"355 311 LINE",
"317 271 OFFCURVE",
"268 236 OFFCURVE",
"214 236 CURVE SMOOTH"
);
},
{
closed = 1;
nodes = (
"708 126 OFFCURVE",
"693 143 OFFCURVE",
"693 172 CURVE SMOOTH",
"693 215 OFFCURVE",
"722 244 OFFCURVE",
"768 278 CURVE",
"771 254 OFFCURVE",
"772 231 OFFCURVE",
"772 208 CURVE SMOOTH",
"772 156 OFFCURVE",
"757 126 OFFCURVE",
"730 126 CURVE SMOOTH"
);
}
);
width = 1148;
}
);
script = kthi;
category = Letter;
},
{
glyphname = ktKYa;
lastChange = "2019-10-25 13:21:48 +0000";
layers = (
{
layerId = UUID0;
paths = (
{
closed = 1;
nodes = (
"436 0 LINE",
"436 294 LINE",
"533 392 OFFCURVE",
"605 498 OFFCURVE",
"679 498 CURVE SMOOTH",
"720 498 OFFCURVE",
"737 466 OFFCURVE",
"737 443 CURVE SMOOTH",
"737 363 OFFCURVE",
"579 323 OFFCURVE",
"579 226 CURVE SMOOTH",
"579 137 OFFCURVE",
"673 72 OFFCURVE",
"786 72 CURVE SMOOTH",
"840 72 OFFCURVE",
"886 85 OFFCURVE",
"925 102 CURVE",
"925 0 LINE",
"1006 0 LINE",
"1006 622 LINE",
"925 622 LINE",
"925 187 LINE",
"882 160 OFFCURVE",
"833 143 OFFCURVE",
"775 143 CURVE SMOOTH",
"711 143 OFFCURVE",
"659 163 OFFCURVE",
"659 214 CURVE SMOOTH",
"659 289 OFFCURVE",
"817 327 OFFCURVE",
"817 439 CURVE SMOOTH",
"817 512 OFFCURVE",
"761 568 OFFCURVE",
"679 568 CURVE SMOOTH",
"582 568 OFFCURVE",
"499 458 OFFCURVE",
"437 398 CURVE",
"433 398 LINE",
"435 408 OFFCURVE",
"436 424 OFFCURVE",
"436 464 CURVE SMOOTH",
"436 622 LINE",
"355 622 LINE",
"355 441 LINE",
"323 463 OFFCURVE",
"279 484 OFFCURVE",
"221 484 CURVE SMOOTH",
"126 484 OFFCURVE",
"46 424 OFFCURVE",
"46 331 CURVE SMOOTH",
"46 233 OFFCURVE",
"126 166 OFFCURVE",
"224 166 CURVE SMOOTH",
"273 166 OFFCURVE",
"319 186 OFFCURVE",
"355 214 CURVE",
"357 214 LINE",
"356 210 OFFCURVE",
"355 191 OFFCURVE",
"355 157 CURVE SMOOTH",
"355 0 LINE"
);
},
{
closed = 1;
nodes = (
"168 236 OFFCURVE",
"127 264 OFFCURVE",
"127 321 CURVE SMOOTH",
"127 377 OFFCURVE",
"175 413 OFFCURVE",
"230 413 CURVE SMOOTH",
"278 413 OFFCURVE",
"320 398 OFFCURVE",
"355 380 CURVE",
"355 311 LINE",
"317 271 OFFCURVE",
"268 236 OFFCURVE",
"214 236 CURVE SMOOTH"
);
},
{
closed = 1;
nodes = (
"754 -131 OFFCURVE",
"774 -109 OFFCURVE",
"774 -71 CURVE SMOOTH",
"774 -34 OFFCURVE",
"754 -13 OFFCURVE",
"719 -13 CURVE SMOOTH",
"685 -13 OFFCURVE",
"665 -34 OFFCURVE",
"665 -71 CURVE SMOOTH",
"665 -109 OFFCURVE",
"685 -131 OFFCURVE",
"719 -131 CURVE SMOOTH"
);
}
);
width = 1089;
}
);
script = kthi;
category = Letter;
},
{
glyphname = ktKRa;
lastChange = "2019-10-25 13:21:48 +0000";
layers = (
{
layerId = UUID0;
paths = (
{
closed = 1;
nodes = (
"349 209 LINE SMOOTH",
"351 211 OFFCURVE",
"352 212 OFFCURVE",
"355 214 CURVE",
"357 214 LINE",
"356 210 OFFCURVE",
"355 191 OFFCURVE",
"355 157 CURVE SMOOTH",
"355 0 LINE",
"436 0 LINE",
"436 294 LINE",
"474 337 OFFCURVE",
"514 374 OFFCURVE",
"560 374 CURVE SMOOTH",
"604 374 OFFCURVE",
"617 339 OFFCURVE",
"617 298 CURVE SMOOTH",
"617 227 OFFCURVE",
"591 152 OFFCURVE",
"568 99 CURVE",
"645 74 LINE",
"670 131 OFFCURVE",
"698 211 OFFCURVE",
"698 289 CURVE SMOOTH",
"698 372 OFFCURVE",
"649 445 OFFCURVE",
"552 445 CURVE SMOOTH",
"505 445 OFFCURVE",
"466 425 OFFCURVE",
"436 398 CURVE",
"433 398 LINE",
"434 403 OFFCURVE",
"436 424 OFFCURVE",
"436 464 CURVE SMOOTH",
"436 622 LINE",
"355 622 LINE",
"355 441 LINE",
"323 463 OFFCURVE",
"279 484 OFFCURVE",
"221 484 CURVE SMOOTH",
"126 484 OFFCURVE",
"46 424 OFFCURVE",
"46 331 CURVE SMOOTH",
"46 241 OFFCURVE",
"114 177 OFFCURVE",
"201 167 CURVE",
"78 55 LINE",
"129 0 LINE"
);
},
{
closed = 1;
nodes = (
"168 236 OFFCURVE",
"127 264 OFFCURVE",
"127 321 CURVE SMOOTH",
"127 377 OFFCURVE",
"175 413 OFFCURVE",
"230 413 CURVE SMOOTH",
"278 413 OFFCURVE",
"320 398 OFFCURVE",
"355 380 CURVE",
"355 311 LINE",
"317 271 OFFCURVE",
"268 236 OFFCURVE",
"214 236 CURVE SMOOTH"
);
}
);
width = 756;
}
);
script = kthi;
category = Letter;
},
{
glyphname = ktGRa;
lastChange = "2019-10-25 13:21:48 +0000";
layers = (
{
layerId = UUID0;
paths = (
{
closed = 1;
nodes = (
"425 136 LINE",
"425 0 LINE",
"505 0 LINE",
"505 622 LINE",
"425 622 LINE",
"425 211 LINE",
"160 53 LINE",
"200 -10 LINE"
);
},
{
closed = 1;
nodes = (
"274 170 OFFCURVE",
"343 226 OFFCURVE",
"343 339 CURVE SMOOTH",
"343 477 OFFCURVE",
"287 566 OFFCURVE",
"247 628 CURVE",
"183 592 LINE",
"220 535 OFFCURVE",
"263 460 OFFCURVE",
"263 356 CURVE SMOOTH",
"263 284 OFFCURVE",
"240 241 OFFCURVE",
"193 241 CURVE SMOOTH",
"143 241 OFFCURVE",
"99 301 OFFCURVE",
"73 339 CURVE",
"20 304 LINE",
"50 253 OFFCURVE",
"115 170 OFFCURVE",
"202 170 CURVE SMOOTH"
);
}
);
width = 588;
}
);
script = kthi;
category = Letter;
},
{
glyphname = ktJa.half;
lastChange = "2019-10-25 13:21:48 +0000";
layers = (
{
layerId = UUID0;
paths = (
{
closed = 1;
nodes = (
"317 46 OFFCURVE",
"377 114 OFFCURVE",
"377 224 CURVE SMOOTH",
"377 441 LINE SMOOTH",
"377 515 OFFCURVE",
"405 581 OFFCURVE",
"453 581 CURVE SMOOTH",
"479 581 OFFCURVE",
"498 567 OFFCURVE",
"510 546 CURVE",
"522 546 LINE",
"522 608 LINE",
"500 620 OFFCURVE",
"476 627 OFFCURVE",
"448 627 CURVE SMOOTH",
"346 627 OFFCURVE",
"297 563 OFFCURVE",
"297 446 CURVE SMOOTH",
"297 229 LINE SMOOTH",
"297 154 OFFCURVE",
"268 117 OFFCURVE",
"216 117 CURVE SMOOTH",
"169 117 OFFCURVE",
"145 151 OFFCURVE",
"145 228 CURVE SMOOTH",
"145 622 LINE",
"64 622 LINE",
"64 233 LINE SMOOTH",
"64 106 OFFCURVE",
"133 46 OFFCURVE",
"221 46 CURVE SMOOTH"
);
}
);
width = 450;
}
);
script = kthi;
category = Letter;
},
{
glyphname = ktNNa.half;
lastChange = "2019-10-25 13:21:48 +0000";
layers = (
{
layerId = UUID0;
paths = (
{
closed = 1;
nodes = (
"168 0 LINE",
"168 274 LINE",
"334 274 LINE",
"334 0 LINE",
"415 0 LINE",
"415 274 LINE",
"605 274 LINE",
"605 345 LINE",
"415 345 LINE",
"415 622 LINE",
"334 622 LINE",
"334 345 LINE",
"168 345 LINE",
"168 622 LINE",
"88 622 LINE",
"88 0 LINE"
);
}
);
width = 547;
}
);
script = kthi;
category = Letter;
},
{
glyphname = ktTa.half;
lastChange = "2019-10-25 13:21:48 +0000";
layers = (
{
layerId = UUID0;
paths = (
{
closed = 1;
nodes = (
"223 100 LINE",
"175 174 OFFCURVE",
"139 231 OFFCURVE",
"139 304 CURVE SMOOTH",
"139 413 OFFCURVE",
"278 415 OFFCURVE",
"455 435 CURVE",
"445 509 LINE",
"220 487 OFFCURVE",
"59 471 OFFCURVE",
"59 317 CURVE SMOOTH",
"59 239 OFFCURVE",
"105 150 OFFCURVE",
"167 63 CURVE"
);
}
);
width = 309;
}
);
script = kthi;
category = Letter;
},
{
glyphname = ktTHa.half;
lastChange = "2019-10-25 13:21:48 +0000";
layers = (
{
layerId = UUID0;
paths = (
{
closed = 1;
nodes = (
"375 131 OFFCURVE",
"433 157 OFFCURVE",
"480 204 CURVE",
"443 268 LINE",
"404 226 OFFCURVE",
"356 202 OFFCURVE",
"288 202 CURVE SMOOTH",
"232 202 OFFCURVE",
"182 225 OFFCURVE",
"148 260 CURVE",
"216 309 OFFCURVE",
"335 378 OFFCURVE",
"335 499 CURVE SMOOTH",
"335 571 OFFCURVE",
"280 627 OFFCURVE",
"203 627 CURVE SMOOTH",
"141 627 OFFCURVE",
"97 585 OFFCURVE",
"97 526 CURVE SMOOTH",
"97 472 OFFCURVE",
"126 427 OFFCURVE",
"187 380 CURVE",
"143 339 OFFCURVE",
"86 306 OFFCURVE",
"44 279 CURVE",
"84 226 OFFCURVE",
"169 131 OFFCURVE",
"298 131 CURVE SMOOTH"
);
},
{
closed = 1;
nodes = (
"190 456 OFFCURVE",
"172 484 OFFCURVE",
"172 516 CURVE SMOOTH",
"172 541 OFFCURVE",
"186 561 OFFCURVE",
"210 561 CURVE SMOOTH",
"237 561 OFFCURVE",
"255 536 OFFCURVE",
"255 507 CURVE SMOOTH",
"255 477 OFFCURVE",
"244 449 OFFCURVE",
"227 424 CURVE"
);
}
);
width = 437;
}
);
script = kthi;
category = Letter;
},
{
glyphname = ktDHa.half;
lastChange = "2019-10-25 13:21:48 +0000";
layers = (
{
layerId = UUID0;
paths = (
{
closed = 1;
nodes = (
"382 127 OFFCURVE",
"452 170 OFFCURVE",
"507 208 CURVE",
"483 280 LINE",
"431 241 OFFCURVE",
"355 197 OFFCURVE",
"263 197 CURVE SMOOTH",
"196 197 OFFCURVE",
"139 223 OFFCURVE",
"139 275 CURVE SMOOTH",
"139 337 OFFCURVE",
"212 370 OFFCURVE",
"338 370 CURVE",
"193 627 LINE",
"127 590 LINE",
"224 439 LINE",
"127 418 OFFCURVE",
"59 365 OFFCURVE",
"59 286 CURVE SMOOTH",
"59 187 OFFCURVE",
"155 127 OFFCURVE",
"273 127 CURVE SMOOTH"
);
}
);
width = 424;
}
);
script = kthi;
category = Letter;
},
{
glyphname = ktNa.half;
lastChange = "2019-10-25 13:21:48 +0000";
layers = (
{
layerId = UUID0;
paths = (
{
closed = 1;
nodes = (
"250 119 OFFCURVE",
"302 173 OFFCURVE",
"302 250 CURVE SMOOTH",
"302 299 OFFCURVE",
"286 341 OFFCURVE",
"263 377 CURVE",
"323 396 OFFCURVE",
"397 407 OFFCURVE",
"472 415 CURVE",
"494 489 LINE",
"231 467 OFFCURVE",
"44 402 OFFCURVE",
"44 256 CURVE SMOOTH",
"44 177 OFFCURVE",
"95 119 OFFCURVE",
"177 119 CURVE SMOOTH"
);
},
{
closed = 1;
nodes = (
"142 190 OFFCURVE",
"125 212 OFFCURVE",
"125 243 CURVE SMOOTH",
"125 290 OFFCURVE",
"153 324 OFFCURVE",
"198 350 CURVE",
"212 328 OFFCURVE",
"221 301 OFFCURVE",
"221 269 CURVE SMOOTH",
"221 212 OFFCURVE",
"196 190 OFFCURVE",
"168 190 CURVE SMOOTH"
);
}
);
width = 372;
}
);
script = kthi;
category = Letter;
},
{
glyphname = ktPa.half;
lastChange = "2019-10-25 13:21:48 +0000";
layers = (
{
layerId = UUID0;
paths = (
{
closed = 1;
nodes = (
"349 188 OFFCURVE",
"407 239 OFFCURVE",
"435 269 CURVE",
"411 337 LINE",
"376 298 OFFCURVE",
"323 258 OFFCURVE",
"252 258 CURVE SMOOTH",
"199 258 OFFCURVE",
"159 289 OFFCURVE",
"159 369 CURVE SMOOTH",
"159 622 LINE",
"78 622 LINE",
"78 378 LINE SMOOTH",
"78 240 OFFCURVE",
"167 188 OFFCURVE",
"260 188 CURVE SMOOTH"
);
}
);
width = 376;
}
);
script = kthi;
category = Letter;
},
{
glyphname = ktPHa.half;
lastChange = "2019-10-25 13:21:48 +0000";
layers = (
{
layerId = UUID0;
paths = (
{
closed = 1;
nodes = (
"543 -24 OFFCURVE",
"620 21 OFFCURVE",
"620 95 CURVE SMOOTH",
"620 160 OFFCURVE",
"568 214 OFFCURVE",
"495 214 CURVE SMOOTH",
"442 214 OFFCURVE",
"397 175 OFFCURVE",
"397 121 CURVE SMOOTH",
"397 86 OFFCURVE",
"415 58 OFFCURVE",
"438 37 CURVE",
"433 37 LINE SMOOTH",
"336 37 OFFCURVE",
"210 134 OFFCURVE",
"156 189 CURVE",
"215 222 OFFCURVE",
"282 264 OFFCURVE",
"332 316 CURVE",
"400 283 OFFCURVE",
"477 258 OFFCURVE",
"544 240 CURVE",
"548 310 LINE",
"488 324 OFFCURVE",
"426 343 OFFCURVE",
"372 367 CURVE",
"392 399 OFFCURVE",
"404 434 OFFCURVE",
"404 473 CURVE SMOOTH",
"404 552 OFFCURVE",
"348 627 OFFCURVE",
"253 627 CURVE SMOOTH",
"188 627 OFFCURVE",
"140 586 OFFCURVE",
"140 523 CURVE SMOOTH",
"140 455 OFFCURVE",
"190 399 OFFCURVE",
"262 354 CURVE",
"208 301 OFFCURVE",
"126 258 OFFCURVE",
"46 210 CURVE",
"148 95 OFFCURVE",
"300 -24 OFFCURVE",
"448 -24 CURVE SMOOTH"
);
},
{
closed = 1;
nodes = (
"481 63 OFFCURVE",
"468 83 OFFCURVE",
"468 105 CURVE SMOOTH",
"468 127 OFFCURVE",
"484 143 OFFCURVE",
"504 143 CURVE SMOOTH",
"527 143 OFFCURVE",
"544 127 OFFCURVE",
"544 105 CURVE SMOOTH",
"544 78 OFFCURVE",
"526 59 OFFCURVE",
"498 47 CURVE"
);
},
{
closed = 1;
nodes = (
"252 436 OFFCURVE",
"220 472 OFFCURVE",
"220 513 CURVE SMOOTH",
"220 540 OFFCURVE",
"237 556 OFFCURVE",
"261 556 CURVE SMOOTH",
"303 556 OFFCURVE",
"324 518 OFFCURVE",
"324 482 CURVE SMOOTH",
"324 453 OFFCURVE",
"316 427 OFFCURVE",
"302 404 CURVE"
);
}
);
width = 500;
}
);
script = kthi;
category = Letter;
},
{
glyphname = ktBa.half;
lastChange = "2019-10-25 13:21:48 +0000";
layers = (
{
layerId = UUID0;
paths = (
{
closed = 1;
nodes = (
"358 162 OFFCURVE",
"424 196 OFFCURVE",
"479 254 CURVE",
"436 322 LINE",
"397 269 OFFCURVE",
"333 232 OFFCURVE",
"259 232 CURVE SMOOTH",
"185 232 OFFCURVE",
"125 280 OFFCURVE",
"125 362 CURVE SMOOTH",
"125 439 OFFCURVE",
"182 489 OFFCURVE",
"256 489 CURVE SMOOTH",
"280 489 OFFCURVE",
"304 483 OFFCURVE",
"321 476 CURVE",
"348 540 LINE",
"321 554 OFFCURVE",
"294 566 OFFCURVE",
"247 566 CURVE SMOOTH",
"138 566 OFFCURVE",
"44 477 OFFCURVE",
"44 370 CURVE SMOOTH",
"44 253 OFFCURVE",
"135 162 OFFCURVE",
"269 162 CURVE SMOOTH"
);
}
);
width = 405;
}
);
script = kthi;
category = Letter;
},
{
glyphname = ktBHa.half;
lastChange = "2019-10-25 13:21:48 +0000";
layers = (
{
layerId = UUID0;
paths = (
{
closed = 1;
nodes = (
"303 104 OFFCURVE",
"360 157 OFFCURVE",
"360 255 CURVE SMOOTH",
"360 319 OFFCURVE",
"345 381 OFFCURVE",
"325 437 CURVE",
"373 470 OFFCURVE",
"426 500 OFFCURVE",
"478 526 CURVE",
"499 622 LINE",
"429 586 OFFCURVE",
"358 547 OFFCURVE",
"296 506 CURVE",
"272 558 OFFCURVE",
"246 600 OFFCURVE",
"228 627 CURVE",
"165 621 OFFCURVE",
"92 600 OFFCURVE",
"54 586 CURVE",
"73 524 LINE",
"101 534 OFFCURVE",
"151 550 OFFCURVE",
"187 557 CURVE",
"203 531 OFFCURVE",
"221 500 OFFCURVE",
"237 464 CURVE",
"154 399 OFFCURVE",
"97 328 OFFCURVE",
"97 247 CURVE SMOOTH",
"97 170 OFFCURVE",
"149 104 OFFCURVE",
"230 104 CURVE SMOOTH"
);
},
{
closed = 1;
nodes = (
"194 175 OFFCURVE",
"178 197 OFFCURVE",
"178 233 CURVE SMOOTH",
"178 290 OFFCURVE",
"212 342 OFFCURVE",
"264 388 CURVE",
"273 353 OFFCURVE",
"279 314 OFFCURVE",
"279 274 CURVE SMOOTH",
"279 204 OFFCURVE",
"251 175 OFFCURVE",
"222 175 CURVE SMOOTH"
);
}
);
width = 415;
}
);
script = kthi;
category = Letter;
},
{
glyphname = ktMa.half;
lastChange = "2019-10-25 13:21:48 +0000";
layers = (
{
layerId = UUID0;
paths = (
{
closed = 1;
nodes = (
"260 85 OFFCURVE",
"309 127 OFFCURVE",
"309 206 CURVE SMOOTH",
"309 244 OFFCURVE",
"297 291 OFFCURVE",
"280 339 CURVE",
"286 342 OFFCURVE",
"292 345 OFFCURVE",
"298 349 CURVE SMOOTH",
"367 384 OFFCURVE",
"464 414 OFFCURVE",
"532 483 CURVE",
"527 562 LINE",
"442 481 OFFCURVE",
"342 455 OFFCURVE",
"256 412 CURVE SMOOTH",
"251 409 LINE",
"209 504 OFFCURVE",
"154 594 OFFCURVE",
"128 627 CURVE",
"71 585 LINE",
"98 551 OFFCURVE",
"152 463 OFFCURVE",
"190 375 CURVE",
"121 332 OFFCURVE",
"73 282 OFFCURVE",
"73 212 CURVE SMOOTH",
"73 129 OFFCURVE",
"134 85 OFFCURVE",
"194 85 CURVE SMOOTH"
);
},
{
closed = 1;
nodes = (
"168 156 OFFCURVE",
"153 175 OFFCURVE",
"153 204 CURVE SMOOTH",
"153 244 OFFCURVE",
"176 273 OFFCURVE",
"217 302 CURVE",
"227 271 OFFCURVE",
"233 242 OFFCURVE",
"233 218 CURVE SMOOTH",
"233 183 OFFCURVE",
"218 156 OFFCURVE",
"190 156 CURVE SMOOTH"
);
}
);
width = 435;
}
);
script = kthi;
category = Letter;
},
{
glyphname = ktYa.half;
lastChange = "2019-10-25 13:21:48 +0000";
layers = (
{
layerId = UUID0;
paths = (
{
closed = 1;
nodes = (
"346 121 OFFCURVE",
"416 160 OFFCURVE",
"470 194 CURVE",
"434 268 LINE",
"381 224 OFFCURVE",
"319 192 OFFCURVE",
"241 192 CURVE SMOOTH",
"177 192 OFFCURVE",
"125 211 OFFCURVE",
"125 263 CURVE SMOOTH",
"125 344 OFFCURVE",
"282 378 OFFCURVE",
"282 469 CURVE SMOOTH",
"282 529 OFFCURVE",
"247 570 OFFCURVE",
"187 627 CURVE",
"139 584 LINE",
"180 543 OFFCURVE",
"201 521 OFFCURVE",
"201 482 CURVE SMOOTH",
"201 411 OFFCURVE",
"44 372 OFFCURVE",
"44 275 CURVE SMOOTH",
"44 186 OFFCURVE",
"139 121 OFFCURVE",
"251 121 CURVE SMOOTH"
);
},
{
closed = 1;
nodes = (
"269 -83 OFFCURVE",
"290 -60 OFFCURVE",
"290 -22 CURVE SMOOTH",
"290 15 OFFCURVE",
"269 36 OFFCURVE",
"234 36 CURVE SMOOTH",
"200 36 OFFCURVE",
"181 15 OFFCURVE",
"181 -22 CURVE SMOOTH",
"181 -60 OFFCURVE",
"201 -83 OFFCURVE",
"234 -83 CURVE SMOOTH"
);
}
);
width = 391;
}
);
script = kthi;
category = Letter;
},
{
glyphname = ktVa.half;
lastChange = "2019-10-25 13:21:48 +0000";
layers = (
{
layerId = UUID0;
paths = (
{
closed = 1;
nodes = (
"363 162 OFFCURVE",
"429 196 OFFCURVE",
"484 254 CURVE",
"440 322 LINE",
"402 269 OFFCURVE",
"337 232 OFFCURVE",
"264 232 CURVE SMOOTH",
"189 232 OFFCURVE",
"129 280 OFFCURVE",
"129 362 CURVE SMOOTH",
"129 439 OFFCURVE",
"187 489 OFFCURVE",
"261 489 CURVE SMOOTH",
"285 489 OFFCURVE",
"309 483 OFFCURVE",
"326 476 CURVE",
"353 540 LINE",
"326 554 OFFCURVE",
"299 566 OFFCURVE",
"252 566 CURVE SMOOTH",
"143 566 OFFCURVE",
"49 477 OFFCURVE",
"49 370 CURVE SMOOTH",
"49 253 OFFCURVE",
"140 162 OFFCURVE",
"273 162 CURVE SMOOTH"
);
},
{
closed = 1;
nodes = (
"284 -65 OFFCURVE",
"304 -42 OFFCURVE",
"304 -5 CURVE SMOOTH",
"304 33 OFFCURVE",
"284 54 OFFCURVE",
"249 54 CURVE SMOOTH",
"215 54 OFFCURVE",
"195 33 OFFCURVE",
"195 -5 CURVE SMOOTH",
"195 -42 OFFCURVE",
"215 -65 OFFCURVE",
"249 -65 CURVE SMOOTH"
);
}
);
width = 409;
}
);
script = kthi;
category = Letter;
},
{
glyphname = ktSHa.half;
lastChange = "2019-10-25 13:21:48 +0000";
layers = (
{
layerId = UUID0;
paths = (
{
closed = 1;
nodes = (
"390 37 LINE",
"347 99 OFFCURVE",
"307 156 OFFCURVE",
"267 201 CURVE",
"308 223 OFFCURVE",
"346 257 OFFCURVE",
"371 302 CURVE",
"433 286 OFFCURVE",
"500 274 OFFCURVE",
"561 264 CURVE",
"570 327 LINE",
"512 335 OFFCURVE",
"451 345 OFFCURVE",
"395 358 CURVE",
"401 380 OFFCURVE",
"404 404 OFFCURVE",
"404 429 CURVE SMOOTH",
"404 540 OFFCURVE",
"353 627 OFFCURVE",
"241 627 CURVE SMOOTH",
"165 627 OFFCURVE",
"115 577 OFFCURVE",
"115 511 CURVE SMOOTH",
"115 416 OFFCURVE",
"191 361 OFFCURVE",
"293 325 CURVE",
"271 292 OFFCURVE",
"242 268 OFFCURVE",
"211 253 CURVE",
"182 276 OFFCURVE",
"151 289 OFFCURVE",
"120 289 CURVE SMOOTH",
"83 289 OFFCURVE",
"59 269 OFFCURVE",
"59 238 CURVE SMOOTH",
"59 196 OFFCURVE",
"104 169 OFFCURVE",
"152 169 CURVE SMOOTH",
"167 169 OFFCURVE",
"181 171 OFFCURVE",
"196 174 CURVE",
"327 -11 LINE"
);
},
{
closed = 1;
nodes = (
"246 407 OFFCURVE",
"196 443 OFFCURVE",
"196 501 CURVE SMOOTH",
"196 534 OFFCURVE",
"216 556 OFFCURVE",
"249 556 CURVE SMOOTH",
"303 556 OFFCURVE",
"324 497 OFFCURVE",
"324 438 CURVE SMOOTH",
"324 417 OFFCURVE",
"321 398 OFFCURVE",
"317 381 CURVE"
);
}
);
width = 496;
}
);
script = kthi;
category = Letter;
},
{
glyphname = ktSSa.half;
lastChange = "2019-10-25 13:21:48 +0000";
layers = (
{
layerId = UUID0;
paths = (
{
closed = 1;
nodes = (
"309 198 OFFCURVE",
"354 217 OFFCURVE",
"411 274 CURVE",
"394 313 LINE",
"405 316 LINE",
"154 622 LINE",
"73 622 LINE",
"73 401 LINE SMOOTH",
"73 274 OFFCURVE",
"145 198 OFFCURVE",
"257 198 CURVE SMOOTH"
);
},
{
closed = 1;
nodes = (
"182 268 OFFCURVE",
"154 301 OFFCURVE",
"154 369 CURVE SMOOTH",
"154 518 LINE",
"284 354 LINE SMOOTH",
"304 328 OFFCURVE",
"327 316 OFFCURVE",
"343 310 CURVE",
"317 286 OFFCURVE",
"286 268 OFFCURVE",
"245 268 CURVE SMOOTH"
);
}
);
width = 294;
}
);
script = kthi;
category = Letter;
},
{
glyphname = ktSa.half;
lastChange = "2019-10-25 13:21:48 +0000";
layers = (
{
layerId = UUID0;
paths = (
{
closed = 1;
nodes = (
"417 28 LINE",
"369 96 OFFCURVE",
"321 175 OFFCURVE",
"273 238 CURVE",
"301 249 OFFCURVE",
"327 263 OFFCURVE",
"350 283 CURVE",
"385 265 OFFCURVE",
"428 254 OFFCURVE",
"473 254 CURVE SMOOTH",
"514 254 OFFCURVE",
"547 260 OFFCURVE",
"581 275 CURVE",
"556 343 LINE",
"527 327 OFFCURVE",
"505 322 OFFCURVE",
"465 322 CURVE SMOOTH",
"438 322 OFFCURVE",
"416 326 OFFCURVE",
"391 334 CURVE",
"405 360 OFFCURVE",
"414 392 OFFCURVE",
"414 429 CURVE SMOOTH",
"414 527 OFFCURVE",
"346 627 OFFCURVE",
"217 627 CURVE SMOOTH",
"149 627 OFFCURVE",
"98 594 OFFCURVE",
"66 567 CURVE",
"109 507 LINE",
"140 533 OFFCURVE",
"175 556 OFFCURVE",
"223 556 CURVE SMOOTH",
"286 556 OFFCURVE",
"333 515 OFFCURVE",
"333 438 CURVE SMOOTH",
"333 358 OFFCURVE",
"277 316 OFFCURVE",
"221 297 CURVE",
"188 328 OFFCURVE",
"154 348 OFFCURVE",
"120 348 CURVE SMOOTH",
"81 348 OFFCURVE",
"59 325 OFFCURVE",
"59 294 CURVE SMOOTH",
"59 252 OFFCURVE",
"104 218 OFFCURVE",
"167 218 CURVE SMOOTH",
"180 218 OFFCURVE",
"193 219 OFFCURVE",
"206 221 CURVE",
"346 -11 LINE"
);
}
);
width = 471;
}
);
script = kthi;
category = Letter;
},
{
glyphname = ktTTRa;
lastChange = "2019-10-25 13:21:48 +0000";
layers = (
{
layerId = UUID0;
paths = (
{
closed = 1;
nodes = (
"311 -122 OFFCURVE",
"445 16 OFFCURVE",
"528 101 CURVE",
"477 162 LINE",
"408 103 OFFCURVE",
"338 66 OFFCURVE",
"260 66 CURVE SMOOTH",
"188 66 OFFCURVE",
"129 98 OFFCURVE",
"129 166 CURVE SMOOTH",
"129 298 OFFCURVE",
"361 348 OFFCURVE",
"361 504 CURVE SMOOTH",
"361 622 LINE",
"280 622 LINE",
"280 519 LINE SMOOTH",
"280 388 OFFCURVE",
"49 339 OFFCURVE",
"49 178 CURVE SMOOTH",
"49 75 OFFCURVE",
"147 -5 OFFCURVE",
"268 -5 CURVE SMOOTH",
"289 -5 OFFCURVE",
"309 -3 OFFCURVE",
"329 0 CURVE",
"284 -39 OFFCURVE",
"218 -97 OFFCURVE",
"182 -130 CURVE",
"243 -189 LINE"
);
}
);
width = 557;
}
);
script = kthi;
category = Letter;
},
{
glyphname = ktSEC;
lastChange = "2019-10-25 13:21:48 +0000";
layers = (
{
layerId = UUID0;
paths = (
{
closed = 1;
nodes = (
"624 288 LINE",
"624 359 LINE",
"88 359 LINE",
"88 288 LINE"
);
}
);
width = 712;
}
);
unicode = 110BE;
script = kthi;
category = Letter;
},
{
glyphname = ktDblSEC;
lastChange = "2019-10-25 13:21:48 +0000";
layers = (
{
layerId = UUID0;
paths = (
{
closed = 1;
nodes = (
"624 341 LINE",
"624 413 LINE",
"88 413 LINE",
"88 341 LINE"
);
},
{
closed = 1;
nodes = (
"624 195 LINE",
"624 266 LINE",
"88 266 LINE",
"88 195 LINE"
);
}
);
width = 712;
}
);
unicode = 110BF;
script = kthi;
category = Letter;
},
{
glyphname = ktVSI.alt2;
lastChange = "2019-10-25 13:21:48 +0000";
layers = (
{
layerId = UUID0;
paths = (
{
closed = 1;
nodes = (
"168 0 LINE",
"168 578 LINE SMOOTH",
"168 740 OFFCURVE",
"238 801 OFFCURVE",
"341 801 CURVE SMOOTH",
"461 801 OFFCURVE",
"562 723 OFFCURVE",
"626 672 CURVE",
"658 715 LINE",
"590 777 OFFCURVE",
"479 872 OFFCURVE",
"333 872 CURVE SMOOTH",
"178 872 OFFCURVE",
"88 778 OFFCURVE",
"88 588 CURVE SMOOTH",
"88 0 LINE"
);
}
);
width = 245;
}
);
script = kthi;
category = Letter;
},
{
glyphname = ktVSI.alt3;
lastChange = "2019-10-25 13:21:48 +0000";
layers = (
{
layerId = UUID0;
paths = (
{
closed = 1;
nodes = (
"168 0 LINE",
"168 578 LINE SMOOTH",
"168 741 OFFCURVE",
"243 801 OFFCURVE",
"383 801 CURVE SMOOTH",
"548 801 OFFCURVE",
"681 743 OFFCURVE",
"818 672 CURVE",
"845 720 LINE",
"714 792 OFFCURVE",
"548 872 OFFCURVE",
"375 872 CURVE SMOOTH",
"194 872 OFFCURVE",
"88 785 OFFCURVE",
"88 588 CURVE SMOOTH",
"88 0 LINE"
);
}
);
width = 245;
}
);
script = kthi;
category = Letter;
},
{
glyphname = ktVSI.alt4;
lastChange = "2019-10-25 13:21:48 +0000";
layers = (
{
layerId = UUID0;
paths = (
{
closed = 1;
nodes = (
"168 0 LINE",
"168 578 LINE SMOOTH",
"168 730 OFFCURVE",
"228 801 OFFCURVE",
"401 801 CURVE SMOOTH",
"550 801 OFFCURVE",
"749 737 OFFCURVE",
"952 672 CURVE",
"970 730 LINE",
"755 801 OFFCURVE",
"540 872 OFFCURVE",
"393 872 CURVE SMOOTH",
"163 872 OFFCURVE",
"88 765 OFFCURVE",
"88 588 CURVE SMOOTH",
"88 0 LINE"
);
}
);
width = 245;
}
);
script = kthi;
category = Letter;
},
{
glyphname = ktVSI.alt5;
lastChange = "2019-10-25 13:21:48 +0000";
layers = (
{
layerId = UUID0;
paths = (
{
closed = 1;
nodes = (
"168 0 LINE",
"168 578 LINE SMOOTH",
"168 730 OFFCURVE",
"229 801 OFFCURVE",
"402 801 CURVE SMOOTH",
"625 801 OFFCURVE",
"913 735 OFFCURVE",
"1140 672 CURVE",
"1159 732 LINE",
"918 799 OFFCURVE",
"607 872 OFFCURVE",
"394 872 CURVE SMOOTH",
"164 872 OFFCURVE",
"88 765 OFFCURVE",
"88 588 CURVE SMOOTH",
"88 0 LINE"
);
}
);
width = 245;
}
);
script = kthi;
category = Letter;
},
{
glyphname = ktVSI.alt6;
lastChange = "2019-10-25 13:21:48 +0000";
layers = (
{
layerId = UUID0;
paths = (
{
closed = 1;
nodes = (
"168 0 LINE",
"168 578 LINE SMOOTH",
"168 635 OFFCURVE",
"178 679 OFFCURVE",
"197 710 CURVE SMOOTH",
"235 773 OFFCURVE",
"311 801 OFFCURVE",
"456 801 CURVE SMOOTH",
"700 801 OFFCURVE",
"994 758 OFFCURVE",
"1338 672 CURVE",
"1355 732 LINE",
"989 825 OFFCURVE",
"686 872 OFFCURVE",
"447 872 CURVE SMOOTH",
"362 872 OFFCURVE",
"293 862 OFFCURVE",
"240 842 CURVE SMOOTH",
"135 803 OFFCURVE",
"88 726 OFFCURVE",
"88 588 CURVE SMOOTH",
"88 0 LINE"
);
}
);
width = 245;
}
);
script = kthi;
category = Letter;
},
{
glyphname = ktVSI.alt7;
lastChange = "2019-10-25 13:21:48 +0000";
layers = (
{
layerId = UUID0;
paths = (
{
closed = 1;
nodes = (
"168 0 LINE",
"168 578 LINE SMOOTH",
"168 635 OFFCURVE",
"178 679 OFFCURVE",
"196 710 CURVE SMOOTH",
"232 773 OFFCURVE",
"307 801 OFFCURVE",
"451 801 CURVE SMOOTH",
"711 801 OFFCURVE",
"1066 753 OFFCURVE",
"1430 672 CURVE",
"1447 732 LINE",
"1035 824 OFFCURVE",
"688 872 OFFCURVE",
"442 872 CURVE SMOOTH",
"358 872 OFFCURVE",
"290 862 OFFCURVE",
"238 842 CURVE SMOOTH",
"134 803 OFFCURVE",
"88 726 OFFCURVE",
"88 588 CURVE SMOOTH",
"88 0 LINE"
);
}
);
width = 245;
}
);
script = kthi;
category = Letter;
},
{
glyphname = ktVSI.alt8;
lastChange = "2019-10-25 13:21:48 +0000";
layers = (
{
layerId = UUID0;
paths = (
{
closed = 1;
nodes = (
"168 0 LINE",
"168 578 LINE SMOOTH",
"168 714 OFFCURVE",
"225 801 OFFCURVE",
"501 801 CURVE SMOOTH",
"812 801 OFFCURVE",
"1286 724 OFFCURVE",
"1515 672 CURVE",
"1532 732 LINE",
"1287 788 OFFCURVE",
"795 872 OFFCURVE",
"492 872 CURVE SMOOTH",
"177 872 OFFCURVE",
"88 755 OFFCURVE",
"88 588 CURVE SMOOTH",
"88 0 LINE"
);
}
);
width = 245;
}
);
script = kthi;
category = Letter;
},
{
glyphname = ktVSI.alt9;
lastChange = "2019-10-25 13:21:48 +0000";
layers = (
{
layerId = UUID0;
paths = (
{
closed = 1;
nodes = (
"1634 732 LINE",
"1294 822 OFFCURVE",
"872 872 OFFCURVE",
"648 872 CURVE SMOOTH",
"471 872 OFFCURVE",
"291 868 OFFCURVE",
"211 829 CURVE SMOOTH",
"145 797 OFFCURVE",
"88 734 OFFCURVE",
"88 588 CURVE SMOOTH",
"88 0 LINE",
"168 0 LINE",
"168 578 LINE SMOOTH",
"168 686 OFFCURVE",
"203 745 OFFCURVE",
"265 770 CURVE SMOOTH",
"306 787 OFFCURVE",
"439 801 OFFCURVE",
"656 801 CURVE SMOOTH",
"741 801 OFFCURVE",
"1116 788 OFFCURVE",
"1614 672 CURVE"
);
}
);
width = 245;
}
);
script = kthi;
category = Letter;
},
{
glyphname = ktVSI.alt10;
lastChange = "2019-10-25 13:21:48 +0000";
layers = (
{
layerId = UUID0;
paths = (
{
closed = 1;
nodes = (
"168 0 LINE",
"168 578 LINE SMOOTH",
"168 692 OFFCURVE",
"205 757 OFFCURVE",
"285 779 CURVE SMOOTH",
"340 794 OFFCURVE",
"488 801 OFFCURVE",
"637 801 CURVE SMOOTH",
"663 801 OFFCURVE",
"825 801 OFFCURVE",
"1001 783 CURVE SMOOTH",
"1146 768 OFFCURVE",
"1405 732 OFFCURVE",
"1718 672 CURVE",
"1735 732 LINE",
"1066 864 OFFCURVE",
"813 872 OFFCURVE",
"628 872 CURVE SMOOTH",
"417 872 OFFCURVE",
"284 860 OFFCURVE",
"238 842 CURVE SMOOTH",
"134 801 OFFCURVE",
"88 726 OFFCURVE",
"88 588 CURVE SMOOTH",
"88 0 LINE"
);
}
);
width = 245;
}
);
script = kthi;
category = Letter;
},
{
glyphname = ktVSI.alt11;
lastChange = "2019-10-25 13:21:48 +0000";
layers = (
{
layerId = UUID0;
paths = (
{
closed = 1;
nodes = (
"168 0 LINE",
"168 578 LINE SMOOTH",
"168 692 OFFCURVE",
"203 750 OFFCURVE",
"283 779 CURVE SMOOTH",
"323 793 OFFCURVE",
"441 801 OFFCURVE",
"637 801 CURVE SMOOTH",
"869 801 OFFCURVE",
"1554 753 OFFCURVE",
"1918 672 CURVE",
"1935 732 LINE",
"1523 824 OFFCURVE",
"960 872 OFFCURVE",
"628 872 CURVE SMOOTH",
"420 872 OFFCURVE",
"290 862 OFFCURVE",
"238 842 CURVE SMOOTH",
"134 803 OFFCURVE",
"88 726 OFFCURVE",
"88 588 CURVE SMOOTH",
"88 0 LINE"
);
}
);
width = 245;
}
);
script = kthi;
category = Letter;
},
{
glyphname = ktVSI.alt12;
lastChange = "2019-10-25 13:21:48 +0000";
layers = (
{
layerId = UUID0;
paths = (
{
closed = 1;
nodes = (
"168 0 LINE",
"168 578 LINE SMOOTH",
"168 692 OFFCURVE",
"203 750 OFFCURVE",
"283 779 CURVE SMOOTH",
"323 793 OFFCURVE",
"441 801 OFFCURVE",
"637 801 CURVE SMOOTH",
"869 801 OFFCURVE",
"1654 753 OFFCURVE",
"2018 672 CURVE",
"2035 732 LINE",
"1623 824 OFFCURVE",
"960 872 OFFCURVE",
"628 872 CURVE SMOOTH",
"420 872 OFFCURVE",
"290 862 OFFCURVE",
"238 842 CURVE SMOOTH",
"134 803 OFFCURVE",
"88 726 OFFCURVE",
"88 588 CURVE SMOOTH",
"88 0 LINE"
);
}
);
width = 245;
}
);
script = kthi;
category = Letter;
},
{
glyphname = ktVSI.alt13;
lastChange = "2019-10-25 13:21:48 +0000";
layers = (
{
layerId = UUID0;
paths = (
{
closed = 1;
nodes = (
"168 1 LINE",
"168 579 LINE SMOOTH",
"168 693 OFFCURVE",
"203 752 OFFCURVE",
"283 780 CURVE SMOOTH",
"323 794 OFFCURVE",
"441 801 OFFCURVE",
"637 801 CURVE SMOOTH",
"869 801 OFFCURVE",
"1754 754 OFFCURVE",
"2118 673 CURVE",
"2135 733 LINE",
"1723 825 OFFCURVE",
"960 873 OFFCURVE",
"628 873 CURVE SMOOTH",
"420 873 OFFCURVE",
"290 863 OFFCURVE",
"238 843 CURVE SMOOTH",
"134 803 OFFCURVE",
"88 727 OFFCURVE",
"88 589 CURVE SMOOTH",
"88 1 LINE"
);
}
);
width = 245;
}
);
script = kthi;
category = Letter;
},
{
glyphname = ktVSI.alt14;
lastChange = "2019-10-25 13:21:48 +0000";
layers = (
{
layerId = UUID0;
paths = (
{
closed = 1;
nodes = (
"168 0 LINE",
"168 578 LINE SMOOTH",
"168 657 OFFCURVE",
"183 716 OFFCURVE",
"238 756 CURVE SMOOTH",
"280 787 OFFCURVE",
"353 801 OFFCURVE",
"477 801 CURVE SMOOTH",
"557 801 OFFCURVE",
"645 801 OFFCURVE",
"872 796 CURVE SMOOTH",
"1214 788 OFFCURVE",
"1979 722 OFFCURVE",
"2218 672 CURVE",
"2235 732 LINE",
"1823 819 OFFCURVE",
"1010 872 OFFCURVE",
"678 872 CURVE SMOOTH",
"477 872 OFFCURVE",
"298 865 OFFCURVE",
"238 842 CURVE SMOOTH",
"134 802 OFFCURVE",
"88 726 OFFCURVE",
"88 588 CURVE SMOOTH",
"88 0 LINE"
);
}
);
width = 245;
}
);
note = ktVSI.sub3;
script = kthi;
category = Letter;
},
{
glyphname = ktKTHa;
lastChange = "2019-10-25 13:21:48 +0000";
layers = (
{
layerId = UUID0;
paths = (
{
closed = 1;
nodes = (
"436 0 LINE",
"436 294 LINE",
"472 337 OFFCURVE",
"499 374 OFFCURVE",
"535 374 CURVE SMOOTH",
"630 374 OFFCURVE",
"661 131 OFFCURVE",
"891 131 CURVE SMOOTH",
"939 131 OFFCURVE",
"980 141 OFFCURVE",
"1015 160 CURVE",
"1015 0 LINE",
"1096 0 LINE",
"1096 622 LINE",
"1015 622 LINE",
"1015 248 LINE",
"980 218 OFFCURVE",
"937 202 OFFCURVE",
"881 202 CURVE SMOOTH",
"827 202 OFFCURVE",
"777 229 OFFCURVE",
"744 265 CURVE",
"810 309 OFFCURVE",
"929 389 OFFCURVE",
"929 499 CURVE SMOOTH",
"929 571 OFFCURVE",
"874 627 OFFCURVE",
"796 627 CURVE SMOOTH",
"734 627 OFFCURVE",
"690 585 OFFCURVE",
"690 526 CURVE SMOOTH",
"690 472 OFFCURVE",
"719 427 OFFCURVE",
"780 380 CURVE",
"756 358 OFFCURVE",
"728 338 OFFCURVE",
"701 320 CURVE",
"654 387 OFFCURVE",
"613 450 OFFCURVE",
"535 450 CURVE SMOOTH",
"494 450 OFFCURVE",
"462 429 OFFCURVE",
"436 398 CURVE",
"433 398 LINE",
"434 403 OFFCURVE",
"436 424 OFFCURVE",
"436 464 CURVE SMOOTH",
"436 622 LINE",
"355 622 LINE",
"355 441 LINE",
"323 463 OFFCURVE",
"279 484 OFFCURVE",
"221 484 CURVE SMOOTH",
"126 484 OFFCURVE",
"46 424 OFFCURVE",
"46 331 CURVE SMOOTH",
"46 233 OFFCURVE",
"126 166 OFFCURVE",
"224 166 CURVE SMOOTH",
"273 166 OFFCURVE",
"319 186 OFFCURVE",
"355 214 CURVE",
"357 214 LINE",
"356 210 OFFCURVE",
"355 191 OFFCURVE",
"355 157 CURVE SMOOTH",
"355 0 LINE"
);
},
{
closed = 1;
nodes = (
"168 236 OFFCURVE",
"127 264 OFFCURVE",
"127 321 CURVE SMOOTH",
"127 377 OFFCURVE",
"175 413 OFFCURVE",
"230 413 CURVE SMOOTH",
"278 413 OFFCURVE",
"320 398 OFFCURVE",
"355 380 CURVE",
"355 311 LINE",
"317 271 OFFCURVE",
"268 236 OFFCURVE",
"214 236 CURVE SMOOTH"
);
},
{
closed = 1;
nodes = (
"783 456 OFFCURVE",
"766 484 OFFCURVE",
"766 516 CURVE SMOOTH",
"766 541 OFFCURVE",
"779 561 OFFCURVE",
"804 561 CURVE SMOOTH",
"830 561 OFFCURVE",
"848 536 OFFCURVE",
"848 507 CURVE SMOOTH",
"848 477 OFFCURVE",
"837 449 OFFCURVE",
"820 424 CURVE"
);
}
);
width = 1179;
}
);
script = kthi;
category = Letter;
},
{
glyphname = ktKKII;
lastChange = "2019-10-25 13:21:48 +0000";
layers = (
{
layerId = UUID0;
paths = (
{
closed = 1;
nodes = (
"436 -194 LINE",
"436 61 LINE",
"474 104 OFFCURVE",
"514 141 OFFCURVE",
"560 141 CURVE SMOOTH",
"604 141 OFFCURVE",
"617 105 OFFCURVE",
"617 65 CURVE SMOOTH",
"617 -6 OFFCURVE",
"591 -82 OFFCURVE",
"568 -135 CURVE",
"645 -160 LINE",
"670 -103 OFFCURVE",
"698 -22 OFFCURVE",
"698 55 CURVE SMOOTH",
"698 93 OFFCURVE",
"687 129 OFFCURVE",
"667 156 CURVE",
"685 198 OFFCURVE",
"698 244 OFFCURVE",
"698 289 CURVE SMOOTH",
"698 372 OFFCURVE",
"649 445 OFFCURVE",
"552 445 CURVE SMOOTH",
"505 445 OFFCURVE",
"466 425 OFFCURVE",
"436 398 CURVE",
"433 398 LINE",
"434 403 OFFCURVE",
"436 424 OFFCURVE",
"436 464 CURVE SMOOTH",
"436 563 LINE SMOOTH",
"436 742 OFFCURVE",
"522 805 OFFCURVE",
"635 805 CURVE SMOOTH",
"757 805 OFFCURVE",
"823 726 OFFCURVE",
"823 573 CURVE SMOOTH",
"823 0 LINE",
"904 0 LINE",
"904 563 LINE SMOOTH",
"904 750 OFFCURVE",
"805 876 OFFCURVE",
"625 876 CURVE SMOOTH",
"475 876 OFFCURVE",
"355 786 OFFCURVE",
"355 577 CURVE SMOOTH",
"355 441 LINE",
"323 463 OFFCURVE",
"279 484 OFFCURVE",
"221 484 CURVE SMOOTH",
"129 484 OFFCURVE",
"46 426 OFFCURVE",
"46 331 CURVE SMOOTH",
"46 280 OFFCURVE",
"69 237 OFFCURVE",
"106 207 CURVE",
"74 180 OFFCURVE",
"46 141 OFFCURVE",
"46 93 CURVE SMOOTH",
"46 -1 OFFCURVE",
"126 -67 OFFCURVE",
"224 -67 CURVE SMOOTH",
"273 -67 OFFCURVE",
"319 -47 OFFCURVE",
"355 -20 CURVE",
"357 -20 LINE",
"356 -24 OFFCURVE",
"355 -42 OFFCURVE",
"355 -76 CURVE SMOOTH",
"355 -194 LINE"
);
},
{
closed = 1;
nodes = (
"164 3 OFFCURVE",
"127 33 OFFCURVE",
"127 83 CURVE SMOOTH",
"127 129 OFFCURVE",
"153 155 OFFCURVE",
"179 171 CURVE",
"193 168 OFFCURVE",
"208 166 OFFCURVE",
"224 166 CURVE SMOOTH",
"273 166 OFFCURVE",
"319 186 OFFCURVE",
"355 214 CURVE",
"357 214 LINE",
"356 210 OFFCURVE",
"355 191 OFFCURVE",
"355 157 CURVE SMOOTH",
"355 78 LINE",
"317 37 OFFCURVE",
"268 3 OFFCURVE",
"214 3 CURVE SMOOTH"
);
},
{
closed = 1;
nodes = (
"168 236 OFFCURVE",
"127 267 OFFCURVE",
"127 321 CURVE SMOOTH",
"127 377 OFFCURVE",
"173 413 OFFCURVE",
"230 413 CURVE SMOOTH",
"278 413 OFFCURVE",
"320 398 OFFCURVE",
"355 380 CURVE",
"355 311 LINE",
"317 271 OFFCURVE",
"268 236 OFFCURVE",
"214 236 CURVE SMOOTH"
);
},
{
closed = 1;
nodes = (
"434 170 OFFCURVE",
"436 191 OFFCURVE",
"436 231 CURVE SMOOTH",
"436 294 LINE",
"474 337 OFFCURVE",
"517 374 OFFCURVE",
"560 374 CURVE SMOOTH",
"601 374 OFFCURVE",
"617 339 OFFCURVE",
"617 298 CURVE SMOOTH",
"617 267 OFFCURVE",
"609 235 OFFCURVE",
"597 206 CURVE",
"583 209 OFFCURVE",
"568 211 OFFCURVE",
"552 211 CURVE SMOOTH",
"505 211 OFFCURVE",
"466 192 OFFCURVE",
"436 165 CURVE",
"433 165 LINE"
);
}
);
width = 987;
}
);
script = kthi;
category = Letter;
},
{
glyphname = ktKRII;
lastChange = "2019-10-25 13:21:48 +0000";
layers = (
{
layerId = UUID0;
paths = (
{
closed = 1;
nodes = (
"349 209 LINE SMOOTH",
"351 211 OFFCURVE",
"352 212 OFFCURVE",
"355 214 CURVE",
"357 214 LINE",
"356 210 OFFCURVE",
"355 191 OFFCURVE",
"355 157 CURVE SMOOTH",
"355 0 LINE",
"436 0 LINE",
"436 294 LINE",
"474 337 OFFCURVE",
"514 374 OFFCURVE",
"560 374 CURVE SMOOTH",
"604 374 OFFCURVE",
"617 339 OFFCURVE",
"617 298 CURVE SMOOTH",
"617 227 OFFCURVE",
"591 152 OFFCURVE",
"568 99 CURVE",
"645 74 LINE",
"670 131 OFFCURVE",
"698 211 OFFCURVE",
"698 289 CURVE SMOOTH",
"698 372 OFFCURVE",
"649 445 OFFCURVE",
"552 445 CURVE SMOOTH",
"505 445 OFFCURVE",
"466 425 OFFCURVE",
"436 398 CURVE",
"433 398 LINE",
"434 403 OFFCURVE",
"436 424 OFFCURVE",
"436 464 CURVE SMOOTH",
"436 563 LINE SMOOTH",
"436 742 OFFCURVE",
"522 805 OFFCURVE",
"635 805 CURVE SMOOTH",
"757 805 OFFCURVE",
"823 726 OFFCURVE",
"823 573 CURVE SMOOTH",
"823 0 LINE",
"904 0 LINE",
"904 563 LINE SMOOTH",
"904 750 OFFCURVE",
"805 876 OFFCURVE",
"625 876 CURVE SMOOTH",
"475 876 OFFCURVE",
"355 786 OFFCURVE",
"355 577 CURVE SMOOTH",
"355 441 LINE",
"323 463 OFFCURVE",
"279 484 OFFCURVE",
"221 484 CURVE SMOOTH",
"126 484 OFFCURVE",
"46 424 OFFCURVE",
"46 331 CURVE SMOOTH",
"46 241 OFFCURVE",
"114 177 OFFCURVE",
"201 167 CURVE",
"78 55 LINE",
"129 0 LINE"
);
},
{
closed = 1;
nodes = (
"168 236 OFFCURVE",
"127 264 OFFCURVE",
"127 321 CURVE SMOOTH",
"127 377 OFFCURVE",
"175 413 OFFCURVE",
"230 413 CURVE SMOOTH",
"278 413 OFFCURVE",
"320 398 OFFCURVE",
"355 380 CURVE",
"355 311 LINE",
"317 271 OFFCURVE",
"268 236 OFFCURVE",
"214 236 CURVE SMOOTH"
);
}
);
width = 987;
}
);
script = kthi;
category = Letter;
},
{
glyphname = ktKHRa;
lastChange = "2019-10-25 13:21:48 +0000";
layers = (
{
layerId = UUID0;
paths = (
{
closed = 1;
nodes = (
"567 246 LINE",
"570 246 LINE",
"569 237 OFFCURVE",
"567 207 OFFCURVE",
"567 162 CURVE SMOOTH",
"567 0 LINE",
"648 0 LINE",
"648 622 LINE",
"567 622 LINE",
"567 342 LINE",
"542 312 OFFCURVE",
"504 283 OFFCURVE",
"455 283 CURVE SMOOTH",
"410 283 OFFCURVE",
"388 301 OFFCURVE",
"388 369 CURVE SMOOTH",
"388 622 LINE",
"308 622 LINE",
"308 401 LINE SMOOTH",
"308 375 OFFCURVE",
"310 353 OFFCURVE",
"314 332 CURVE",
"290 306 OFFCURVE",
"255 283 OFFCURVE",
"211 283 CURVE SMOOTH",
"168 283 OFFCURVE",
"144 308 OFFCURVE",
"144 369 CURVE SMOOTH",
"144 622 LINE",
"63 622 LINE",
"63 377 LINE SMOOTH",
"63 270 OFFCURVE",
"133 212 OFFCURVE",
"228 212 CURVE SMOOTH",
"280 212 OFFCURVE",
"326 232 OFFCURVE",
"352 255 CURVE",
"354 255 LINE",
"376 231 OFFCURVE",
"409 218 OFFCURVE",
"447 213 CURVE",
"251 45 LINE",
"303 -10 LINE"
);
}
);
width = 731;
}
);
script = kthi;
category = Letter;
},
{
glyphname = ktGHRa;
lastChange = "2019-10-25 13:21:48 +0000";
layers = (
{
layerId = UUID0;
paths = (
{
closed = 1;
nodes = (
"441 135 LINE",
"441 0 LINE",
"521 0 LINE",
"521 622 LINE",
"441 622 LINE",
"441 221 LINE",
"391 186 OFFCURVE",
"332 168 OFFCURVE",
"272 168 CURVE SMOOTH",
"206 168 OFFCURVE",
"149 193 OFFCURVE",
"149 246 CURVE SMOOTH",
"149 308 OFFCURVE",
"222 340 OFFCURVE",
"348 340 CURVE",
"338 421 LINE",
"290 421 OFFCURVE",
"244 415 OFFCURVE",
"205 402 CURVE",
"182 423 OFFCURVE",
"166 447 OFFCURVE",
"166 475 CURVE SMOOTH",
"166 530 OFFCURVE",
"215 556 OFFCURVE",
"321 556 CURVE",
"315 627 LINE",
"131 627 OFFCURVE",
"84 561 OFFCURVE",
"84 490 CURVE SMOOTH",
"84 444 OFFCURVE",
"115 406 OFFCURVE",
"149 379 CURVE",
"99 351 OFFCURVE",
"68 310 OFFCURVE",
"68 256 CURVE SMOOTH",
"68 165 OFFCURVE",
"151 106 OFFCURVE",
"257 99 CURVE",
"97 13 LINE",
"139 -52 LINE"
);
}
);
width = 604;
}
);
script = kthi;
category = Letter;
},
{
glyphname = ktCRa;
lastChange = "2019-10-25 13:21:48 +0000";
layers = (
{
layerId = UUID0;
paths = (
{
closed = 1;
nodes = (
"395 154 LINE SMOOTH",
"396 155 OFFCURVE",
"396 155 OFFCURVE",
"397 155 CURVE",
"397 0 LINE",
"478 0 LINE",
"478 622 LINE",
"397 622 LINE",
"397 242 LINE",
"365 217 OFFCURVE",
"323 202 OFFCURVE",
"268 202 CURVE SMOOTH",
"214 202 OFFCURVE",
"169 223 OFFCURVE",
"134 260 CURVE",
"193 311 OFFCURVE",
"267 375 OFFCURVE",
"267 460 CURVE SMOOTH",
"267 537 OFFCURVE",
"216 585 OFFCURVE",
"158 627 CURVE",
"115 579 LINE",
"159 546 OFFCURVE",
"187 514 OFFCURVE",
"187 468 CURVE SMOOTH",
"187 396 OFFCURVE",
"103 338 OFFCURVE",
"29 279 CURVE",
"64 231 OFFCURVE",
"134 152 OFFCURVE",
"237 134 CURVE",
"97 56 LINE",
"138 -10 LINE"
);
}
);
width = 561;
}
);
script = kthi;
category = Letter;
},
{
glyphname = ktTHRa;
lastChange = "2019-10-25 13:21:48 +0000";
layers = (
{
layerId = UUID0;
paths = (
{
closed = 1;
nodes = (
"422 160 LINE",
"422 0 LINE",
"502 0 LINE",
"502 622 LINE",
"422 622 LINE",
"422 248 LINE",
"387 218 OFFCURVE",
"344 202 OFFCURVE",
"288 202 CURVE SMOOTH",
"232 202 OFFCURVE",
"182 225 OFFCURVE",
"148 260 CURVE",
"216 309 OFFCURVE",
"335 378 OFFCURVE",
"335 499 CURVE SMOOTH",
"335 571 OFFCURVE",
"280 627 OFFCURVE",
"203 627 CURVE SMOOTH",
"141 627 OFFCURVE",
"97 585 OFFCURVE",
"97 526 CURVE SMOOTH",
"97 472 OFFCURVE",
"126 427 OFFCURVE",
"187 380 CURVE",
"143 339 OFFCURVE",
"86 306 OFFCURVE",
"44 279 CURVE",
"79 232 OFFCURVE",
"147 155 OFFCURVE",
"249 135 CURVE",
"102 56 LINE",
"141 -10 LINE"
);
},
{
closed = 1;
nodes = (
"190 456 OFFCURVE",
"172 484 OFFCURVE",
"172 516 CURVE SMOOTH",
"172 541 OFFCURVE",
"186 561 OFFCURVE",
"210 561 CURVE SMOOTH",
"237 561 OFFCURVE",
"255 536 OFFCURVE",
"255 507 CURVE SMOOTH",
"255 477 OFFCURVE",
"244 449 OFFCURVE",
"227 424 CURVE"
);
}
);
width = 585;
}
);
script = kthi;
category = Letter;
},
{
glyphname = ktDHRa;
lastChange = "2019-10-25 13:21:48 +0000";
layers = (
{
layerId = UUID0;
paths = (
{
closed = 1;
nodes = (
"431 165 LINE",
"431 0 LINE",
"512 0 LINE",
"512 622 LINE",
"431 622 LINE",
"431 250 LINE",
"381 215 OFFCURVE",
"322 197 OFFCURVE",
"263 197 CURVE SMOOTH",
"196 197 OFFCURVE",
"139 223 OFFCURVE",
"139 275 CURVE SMOOTH",
"139 337 OFFCURVE",
"212 370 OFFCURVE",
"338 370 CURVE",
"193 627 LINE",
"127 590 LINE",
"224 439 LINE",
"127 418 OFFCURVE",
"59 365 OFFCURVE",
"59 286 CURVE SMOOTH",
"59 197 OFFCURVE",
"136 140 OFFCURVE",
"238 129 CURVE",
"102 56 LINE",
"141 -10 LINE"
);
}
);
width = 595;
}
);
script = kthi;
category = Letter;
},
{
glyphname = ktBRa;
lastChange = "2019-10-25 13:21:48 +0000";
layers = (
{
layerId = UUID0;
paths = (
{
closed = 1;
nodes = (
"404 194 LINE",
"404 0 LINE",
"485 0 LINE",
"485 622 LINE",
"404 622 LINE",
"404 287 LINE",
"366 254 OFFCURVE",
"315 232 OFFCURVE",
"259 232 CURVE SMOOTH",
"185 232 OFFCURVE",
"125 280 OFFCURVE",
"125 362 CURVE SMOOTH",
"125 439 OFFCURVE",
"182 489 OFFCURVE",
"256 489 CURVE SMOOTH",
"280 489 OFFCURVE",
"304 483 OFFCURVE",
"321 476 CURVE",
"348 540 LINE",
"321 554 OFFCURVE",
"294 566 OFFCURVE",
"247 566 CURVE SMOOTH",
"138 566 OFFCURVE",
"44 477 OFFCURVE",
"44 370 CURVE SMOOTH",
"44 260 OFFCURVE",
"125 172 OFFCURVE",
"246 163 CURVE",
"99 54 LINE",
"151 -10 LINE"
);
}
);
width = 568;
}
);
script = kthi;
category = Letter;
},
{
glyphname = ktMRa;
lastChange = "2019-10-25 13:21:48 +0000";
layers = (
{
layerId = UUID0;
paths = (
{
closed = 1;
nodes = (
"435 123 LINE",
"435 0 LINE",
"516 0 LINE",
"516 622 LINE",
"457 622 LINE",
"399 546 OFFCURVE",
"341 517 OFFCURVE",
"255 474 CURVE SMOOTH",
"250 471 OFFCURVE",
"243 467 OFFCURVE",
"241 466 CURVE",
"200 535 OFFCURVE",
"152 597 OFFCURVE",
"128 627 CURVE",
"71 585 LINE",
"95 555 OFFCURVE",
"142 495 OFFCURVE",
"179 432 CURVE",
"116 393 OFFCURVE",
"73 349 OFFCURVE",
"73 278 CURVE SMOOTH",
"73 198 OFFCURVE",
"131 153 OFFCURVE",
"194 153 CURVE SMOOTH",
"260 153 OFFCURVE",
"309 196 OFFCURVE",
"309 274 CURVE SMOOTH",
"309 313 OFFCURVE",
"295 356 OFFCURVE",
"276 399 CURVE",
"283 403 OFFCURVE",
"290 407 OFFCURVE",
"297 411 CURVE SMOOTH",
"366 446 OFFCURVE",
"400 460 OFFCURVE",
"436 497 CURVE",
"437 495 LINE",
"436 488 OFFCURVE",
"435 466 OFFCURVE",
"435 429 CURVE SMOOTH",
"435 201 LINE",
"125 49 LINE",
"165 -21 LINE"
);
},
{
closed = 1;
nodes = (
"168 224 OFFCURVE",
"153 241 OFFCURVE",
"153 270 CURVE SMOOTH",
"153 307 OFFCURVE",
"175 334 OFFCURVE",
"214 362 CURVE",
"226 335 OFFCURVE",
"233 309 OFFCURVE",
"233 286 CURVE SMOOTH",
"233 247 OFFCURVE",
"215 224 OFFCURVE",
"190 224 CURVE SMOOTH"
);
}
);
width = 599;
}
);
script = kthi;
category = Letter;
},
{
glyphname = ktSSRa;
lastChange = "2019-10-25 13:21:48 +0000";
layers = (
{
layerId = UUID0;
paths = (
{
closed = 1;
nodes = (
"359 231 LINE",
"360 231 LINE",
"359 225 OFFCURVE",
"357 198 OFFCURVE",
"357 147 CURVE SMOOTH",
"357 0 LINE",
"438 0 LINE",
"438 622 LINE",
"357 622 LINE",
"357 374 LINE",
"154 622 LINE",
"73 622 LINE",
"73 401 LINE SMOOTH",
"73 283 OFFCURVE",
"135 209 OFFCURVE",
"234 199 CURVE",
"84 47 LINE",
"140 -10 LINE"
);
},
{
closed = 1;
nodes = (
"182 268 OFFCURVE",
"154 301 OFFCURVE",
"154 369 CURVE SMOOTH",
"154 518 LINE",
"284 354 LINE SMOOTH",
"304 329 OFFCURVE",
"326 317 OFFCURVE",
"342 311 CURVE",
"317 287 OFFCURVE",
"285 268 OFFCURVE",
"245 268 CURVE SMOOTH"
);
}
);
width = 521;
}
);
script = kthi;
category = Letter;
},
{
glyphname = ktSRa;
lastChange = "2019-10-25 13:21:48 +0000";
layers = (
{
layerId = UUID0;
paths = (
{
closed = 1;
nodes = (
"540 61 LINE",
"540 0 LINE",
"621 0 LINE",
"621 622 LINE",
"540 622 LINE",
"540 366 LINE",
"519 356 OFFCURVE",
"498 352 OFFCURVE",
"470 352 CURVE SMOOTH",
"445 352 OFFCURVE",
"425 355 OFFCURVE",
"403 363 CURVE",
"410 383 OFFCURVE",
"414 405 OFFCURVE",
"414 429 CURVE SMOOTH",
"414 527 OFFCURVE",
"346 627 OFFCURVE",
"217 627 CURVE SMOOTH",
"149 627 OFFCURVE",
"98 594 OFFCURVE",
"66 567 CURVE",
"109 507 LINE",
"140 533 OFFCURVE",
"175 556 OFFCURVE",
"223 556 CURVE SMOOTH",
"286 556 OFFCURVE",
"333 515 OFFCURVE",
"333 438 CURVE SMOOTH",
"333 359 OFFCURVE",
"278 317 OFFCURVE",
"222 297 CURVE",
"189 328 OFFCURVE",
"156 348 OFFCURVE",
"120 348 CURVE SMOOTH",
"81 348 OFFCURVE",
"59 325 OFFCURVE",
"59 294 CURVE SMOOTH",
"59 252 OFFCURVE",
"104 218 OFFCURVE",
"167 218 CURVE SMOOTH",
"179 218 OFFCURVE",
"192 219 OFFCURVE",
"206 221 CURVE",
"298 64 LINE",
"369 103 LINE",
"336 149 OFFCURVE",
"305 197 OFFCURVE",
"273 238 CURVE",
"312 252 OFFCURVE",
"347 275 OFFCURVE",
"373 308 CURVE",
"403 293 OFFCURVE",
"437 283 OFFCURVE",
"478 283 CURVE SMOOTH",
"503 283 OFFCURVE",
"522 286 OFFCURVE",
"540 291 CURVE",
"540 128 LINE",
"276 11 LINE",
"311 -56 LINE"
);
}
);
width = 704;
}
);
script = kthi;
category = Letter;
},
{
glyphname = ktBHRa;
lastChange = "2019-10-25 13:21:48 +0000";
layers = (
{
layerId = UUID0;
paths = (
{
closed = 1;
nodes = (
"477 133 LINE",
"477 0 LINE",
"557 0 LINE",
"557 622 LINE",
"499 622 LINE",
"427 587 OFFCURVE",
"356 550 OFFCURVE",
"294 509 CURVE",
"271 558 OFFCURVE",
"246 600 OFFCURVE",
"228 627 CURVE",
"165 621 OFFCURVE",
"92 600 OFFCURVE",
"54 586 CURVE",
"73 524 LINE",
"101 534 OFFCURVE",
"151 550 OFFCURVE",
"187 557 CURVE",
"204 531 OFFCURVE",
"221 500 OFFCURVE",
"236 466 CURVE",
"160 406 OFFCURVE",
"109 340 OFFCURVE",
"109 271 CURVE SMOOTH",
"109 192 OFFCURVE",
"166 146 OFFCURVE",
"232 146 CURVE SMOOTH",
"301 146 OFFCURVE",
"355 198 OFFCURVE",
"355 299 CURVE SMOOTH",
"355 343 OFFCURVE",
"342 393 OFFCURVE",
"324 441 CURVE",
"370 472 OFFCURVE",
"423 500 OFFCURVE",
"478 526 CURVE",
"479 524 LINE",
"478 514 OFFCURVE",
"477 487 OFFCURVE",
"477 451 CURVE SMOOTH",
"477 209 LINE",
"172 70 LINE",
"212 0 LINE"
);
},
{
closed = 1;
nodes = (
"202 217 OFFCURVE",
"190 232 OFFCURVE",
"190 262 CURVE SMOOTH",
"190 310 OFFCURVE",
"218 354 OFFCURVE",
"262 394 CURVE",
"270 367 OFFCURVE",
"274 341 OFFCURVE",
"274 318 CURVE SMOOTH",
"274 248 OFFCURVE",
"253 217 OFFCURVE",
"224 217 CURVE SMOOTH"
);
}
);
width = 640;
}
);
script = kthi;
category = Letter;
},
{
glyphname = ktJRa;
lastChange = "2019-10-25 13:21:48 +0000";
layers = (
{
layerId = UUID0;
paths = (
{
closed = 1;
nodes = (
"533 141 LINE",
"533 0 LINE",
"614 0 LINE",
"614 426 LINE SMOOTH",
"614 531 OFFCURVE",
"554 627 OFFCURVE",
"448 627 CURVE SMOOTH",
"346 627 OFFCURVE",
"297 564 OFFCURVE",
"297 446 CURVE SMOOTH",
"297 336 LINE SMOOTH",
"297 262 OFFCURVE",
"268 225 OFFCURVE",
"216 225 CURVE SMOOTH",
"169 225 OFFCURVE",
"145 259 OFFCURVE",
"145 335 CURVE SMOOTH",
"145 622 LINE",
"64 622 LINE",
"64 340 LINE SMOOTH",
"64 213 OFFCURVE",
"133 154 OFFCURVE",
"221 154 CURVE SMOOTH",
"317 154 OFFCURVE",
"377 221 OFFCURVE",
"377 331 CURVE SMOOTH",
"377 441 LINE SMOOTH",
"377 515 OFFCURVE",
"405 556 OFFCURVE",
"453 556 CURVE SMOOTH",
"517 556 OFFCURVE",
"533 500 OFFCURVE",
"533 431 CURVE SMOOTH",
"533 218 LINE",
"222 70 LINE",
"258 0 LINE"
);
}
);
width = 697;
}
);
script = kthi;
category = Letter;
},
{
glyphname = ktTTRII;
lastChange = "2019-10-25 13:21:48 +0000";
layers = (
{
layerId = UUID0;
paths = (
{
closed = 1;
nodes = (
"311 -122 OFFCURVE",
"445 16 OFFCURVE",
"528 101 CURVE",
"477 162 LINE",
"408 103 OFFCURVE",
"338 66 OFFCURVE",
"260 66 CURVE SMOOTH",
"188 66 OFFCURVE",
"129 98 OFFCURVE",
"129 166 CURVE SMOOTH",
"129 298 OFFCURVE",
"361 348 OFFCURVE",
"361 504 CURVE SMOOTH",
"361 563 LINE SMOOTH",
"361 740 OFFCURVE",
"405 805 OFFCURVE",
"502 805 CURVE SMOOTH",
"600 805 OFFCURVE",
"640 735 OFFCURVE",
"640 573 CURVE SMOOTH",
"640 0 LINE",
"721 0 LINE",
"721 563 LINE SMOOTH",
"721 745 OFFCURVE",
"663 876 OFFCURVE",
"495 876 CURVE SMOOTH",
"349 876 OFFCURVE",
"280 770 OFFCURVE",
"280 577 CURVE SMOOTH",
"280 519 LINE SMOOTH",
"280 388 OFFCURVE",
"49 339 OFFCURVE",
"49 178 CURVE SMOOTH",
"49 75 OFFCURVE",
"147 -5 OFFCURVE",
"268 -5 CURVE SMOOTH",
"289 -5 OFFCURVE",
"309 -3 OFFCURVE",
"329 0 CURVE",
"284 -39 OFFCURVE",
"218 -97 OFFCURVE",
"182 -130 CURVE",
"243 -189 LINE"
);
}
);
width = 804;
}
);
script = kthi;
category = Letter;
},
{
glyphname = ktBHYa;
lastChange = "2019-10-25 13:21:48 +0000";
layers = (
{
layerId = UUID0;
paths = (
{
closed = 1;
nodes = (
"896 0 LINE",
"896 622 LINE",
"815 622 LINE",
"815 228 LINE",
"771 202 OFFCURVE",
"721 187 OFFCURVE",
"666 187 CURVE SMOOTH",
"589 187 OFFCURVE",
"549 205 OFFCURVE",
"549 248 CURVE SMOOTH",
"549 333 OFFCURVE",
"707 351 OFFCURVE",
"707 453 CURVE SMOOTH",
"707 531 OFFCURVE",
"651 588 OFFCURVE",
"538 588 CURVE SMOOTH",
"458 588 OFFCURVE",
"369 560 OFFCURVE",
"292 515 CURVE",
"269 562 OFFCURVE",
"245 602 OFFCURVE",
"228 627 CURVE",
"165 621 OFFCURVE",
"92 600 OFFCURVE",
"54 586 CURVE",
"73 524 LINE",
"101 534 OFFCURVE",
"151 550 OFFCURVE",
"187 557 CURVE",
"202 534 OFFCURVE",
"218 506 OFFCURVE",
"232 474 CURVE",
"153 412 OFFCURVE",
"97 331 OFFCURVE",
"97 247 CURVE SMOOTH",
"97 170 OFFCURVE",
"149 104 OFFCURVE",
"230 104 CURVE SMOOTH",
"303 104 OFFCURVE",
"360 157 OFFCURVE",
"360 255 CURVE SMOOTH",
"360 323 OFFCURVE",
"343 388 OFFCURVE",
"322 446 CURVE",
"393 491 OFFCURVE",
"478 517 OFFCURVE",
"547 517 CURVE SMOOTH",
"603 517 OFFCURVE",
"626 495 OFFCURVE",
"626 458 CURVE SMOOTH",
"626 390 OFFCURVE",
"469 358 OFFCURVE",
"469 255 CURVE SMOOTH",
"469 168 OFFCURVE",
"560 116 OFFCURVE",
"676 116 CURVE SMOOTH",
"731 116 OFFCURVE",
"776 127 OFFCURVE",
"815 143 CURVE",
"815 0 LINE"
);
},
{
closed = 1;
nodes = (
"194 175 OFFCURVE",
"178 197 OFFCURVE",
"178 233 CURVE SMOOTH",
"178 297 OFFCURVE",
"211 354 OFFCURVE",
"260 400 CURVE",
"272 361 OFFCURVE",
"279 318 OFFCURVE",
"279 274 CURVE SMOOTH",
"279 204 OFFCURVE",
"251 175 OFFCURVE",
"222 175 CURVE SMOOTH"
);
},
{
closed = 1;
nodes = (
"644 -83 OFFCURVE",
"664 -60 OFFCURVE",
"664 -22 CURVE SMOOTH",
"664 15 OFFCURVE",
"644 36 OFFCURVE",
"609 36 CURVE SMOOTH",
"575 36 OFFCURVE",
"555 15 OFFCURVE",
"555 -22 CURVE SMOOTH",
"555 -60 OFFCURVE",
"575 -83 OFFCURVE",
"609 -83 CURVE SMOOTH"
);
}
);
width = 979;
}
);
script = kthi;
category = Letter;
},
{
glyphname = ktNYa.half;
lastChange = "2019-10-25 13:21:48 +0000";
layers = (
{
layerId = UUID0;
paths = (
{
closed = 1;
nodes = (
"299 131 OFFCURVE",
"369 198 OFFCURVE",
"386 295 CURVE",
"403 292 OFFCURVE",
"420 291 OFFCURVE",
"438 291 CURVE SMOOTH",
"476 291 OFFCURVE",
"516 298 OFFCURVE",
"552 309 CURVE",
"526 377 LINE",
"493 364 OFFCURVE",
"463 359 OFFCURVE",
"431 359 CURVE SMOOTH",
"417 359 OFFCURVE",
"403 359 OFFCURVE",
"390 361 CURVE",
"382 455 OFFCURVE",
"311 551 OFFCURVE",
"191 551 CURVE SMOOTH",
"132 551 OFFCURVE",
"83 528 OFFCURVE",
"37 488 CURVE",
"84 432 LINE",
"118 462 OFFCURVE",
"154 480 OFFCURVE",
"196 480 CURVE SMOOTH",
"272 480 OFFCURVE",
"310 418 OFFCURVE",
"310 350 CURVE SMOOTH",
"310 258 OFFCURVE",
"266 202 OFFCURVE",
"194 202 CURVE SMOOTH",
"142 202 OFFCURVE",
"108 224 OFFCURVE",
"67 263 CURVE",
"24 222 LINE",
"70 168 OFFCURVE",
"130 131 OFFCURVE",
"201 131 CURVE SMOOTH"
);
}
);
width = 479;
}
);
script = kthi;
category = Letter;
},
{
glyphname = ktKSa;
lastChange = "2019-10-25 13:21:48 +0000";
layers = (
{
layerId = UUID0;
paths = (
{
closed = 1;
nodes = (
"961 28 LINE",
"914 96 OFFCURVE",
"866 175 OFFCURVE",
"817 238 CURVE",
"850 250 OFFCURVE",
"880 269 OFFCURVE",
"904 293 CURVE",
"937 277 OFFCURVE",
"977 269 OFFCURVE",
"1017 269 CURVE SMOOTH",
"1042 269 OFFCURVE",
"1063 271 OFFCURVE",
"1084 275 CURVE",
"1084 0 LINE",
"1165 0 LINE",
"1165 622 LINE",
"1084 622 LINE",
"1084 350 LINE",
"1062 340 OFFCURVE",
"1042 337 OFFCURVE",
"1010 337 CURVE SMOOTH",
"985 337 OFFCURVE",
"964 340 OFFCURVE",
"941 347 CURVE",
"952 371 OFFCURVE",
"958 398 OFFCURVE",
"958 429 CURVE SMOOTH",
"958 527 OFFCURVE",
"890 627 OFFCURVE",
"762 627 CURVE SMOOTH",
"617 627 OFFCURVE",
"537 491 OFFCURVE",
"436 398 CURVE",
"433 398 LINE",
"434 403 OFFCURVE",
"436 424 OFFCURVE",
"436 464 CURVE SMOOTH",
"436 622 LINE",
"355 622 LINE",
"355 441 LINE",
"323 463 OFFCURVE",
"279 484 OFFCURVE",
"221 484 CURVE SMOOTH",
"126 484 OFFCURVE",
"46 424 OFFCURVE",
"46 331 CURVE SMOOTH",
"46 233 OFFCURVE",
"126 166 OFFCURVE",
"224 166 CURVE SMOOTH",
"273 166 OFFCURVE",
"319 186 OFFCURVE",
"355 214 CURVE",
"357 214 LINE",
"356 210 OFFCURVE",
"355 191 OFFCURVE",
"355 157 CURVE SMOOTH",
"355 0 LINE",
"436 0 LINE",
"436 294 LINE",
"571 427 OFFCURVE",
"645 556 OFFCURVE",
"767 556 CURVE SMOOTH",
"831 556 OFFCURVE",
"878 515 OFFCURVE",
"878 438 CURVE SMOOTH",
"878 358 OFFCURVE",
"822 316 OFFCURVE",
"765 297 CURVE",
"732 328 OFFCURVE",
"699 348 OFFCURVE",
"665 348 CURVE SMOOTH",
"625 348 OFFCURVE",
"603 325 OFFCURVE",
"603 294 CURVE SMOOTH",
"603 252 OFFCURVE",
"648 218 OFFCURVE",
"711 218 CURVE SMOOTH",
"724 218 OFFCURVE",
"737 219 OFFCURVE",
"750 221 CURVE",
"891 -11 LINE"
);
},
{
closed = 1;
nodes = (
"168 236 OFFCURVE",
"127 264 OFFCURVE",
"127 321 CURVE SMOOTH",
"127 377 OFFCURVE",
"175 413 OFFCURVE",
"230 413 CURVE SMOOTH",
"278 413 OFFCURVE",
"320 398 OFFCURVE",
"355 380 CURVE",
"355 311 LINE",
"317 271 OFFCURVE",
"268 236 OFFCURVE",
"214 236 CURVE SMOOTH"
);
}
);
width = 1248;
}
);
script = kthi;
category = Letter;
},
{
glyphname = ktTRa;
lastChange = "2019-10-25 13:21:48 +0000";
layers = (
{
layerId = UUID0;
paths = (
{
closed = 1;
nodes = (
"479 0 LINE",
"479 622 LINE",
"421 622 LINE",
"191 546 OFFCURVE",
"59 492 OFFCURVE",
"59 351 CURVE SMOOTH",
"59 313 OFFCURVE",
"69 274 OFFCURVE",
"87 233 CURVE",
"154 259 LINE",
"145 284 OFFCURVE",
"139 310 OFFCURVE",
"139 337 CURVE SMOOTH",
"139 450 OFFCURVE",
"254 484 OFFCURVE",
"400 528 CURVE",
"401 527 LINE",
"400 522 OFFCURVE",
"399 500 OFFCURVE",
"399 461 CURVE SMOOTH",
"399 278 LINE",
"111 149 LINE",
"147 80 LINE",
"399 202 LINE",
"399 0 LINE"
);
}
);
width = 562;
}
);
script = kthi;
category = Letter;
},
{
glyphname = ktJRII;
lastChange = "2019-10-25 13:21:48 +0000";
layers = (
{
layerId = UUID0;
paths = (
{
closed = 1;
nodes = (
"533 141 LINE",
"533 0 LINE",
"614 0 LINE",
"614 607 LINE SMOOTH",
"614 757 OFFCURVE",
"645 806 OFFCURVE",
"712 806 CURVE SMOOTH",
"779 806 OFFCURVE",
"802 753 OFFCURVE",
"802 612 CURVE SMOOTH",
"802 0 LINE",
"882 0 LINE",
"882 598 LINE SMOOTH",
"882 781 OFFCURVE",
"826 877 OFFCURVE",
"707 877 CURVE SMOOTH",
"584 877 OFFCURVE",
"533 795 OFFCURVE",
"533 622 CURVE SMOOTH",
"533 612 OFFCURVE",
"534 604 OFFCURVE",
"535 596 CURVE",
"512 614 OFFCURVE",
"481 627 OFFCURVE",
"448 627 CURVE SMOOTH",
"346 627 OFFCURVE",
"297 563 OFFCURVE",
"297 446 CURVE SMOOTH",
"297 336 LINE SMOOTH",
"297 262 OFFCURVE",
"268 225 OFFCURVE",
"216 225 CURVE SMOOTH",
"169 225 OFFCURVE",
"145 259 OFFCURVE",
"145 335 CURVE SMOOTH",
"145 622 LINE",
"64 622 LINE",
"64 340 LINE SMOOTH",
"64 213 OFFCURVE",
"133 154 OFFCURVE",
"221 154 CURVE SMOOTH",
"317 154 OFFCURVE",
"377 221 OFFCURVE",
"377 331 CURVE SMOOTH",
"377 441 LINE SMOOTH",
"377 515 OFFCURVE",
"405 556 OFFCURVE",
"453 556 CURVE SMOOTH",
"517 556 OFFCURVE",
"533 500 OFFCURVE",
"533 431 CURVE SMOOTH",
"533 218 LINE",
"222 70 LINE",
"258 0 LINE"
);
}
);
width = 965;
}
);
script = kthi;
category = Letter;
},
{
glyphname = ktVRa;
lastChange = "2019-10-25 13:21:48 +0000";
layers = (
{
layerId = UUID0;
paths = (
{
closed = 1;
nodes = (
"409 194 LINE",
"409 0 LINE",
"490 0 LINE",
"490 622 LINE",
"409 622 LINE",
"409 287 LINE",
"371 254 OFFCURVE",
"320 232 OFFCURVE",
"264 232 CURVE SMOOTH",
"189 232 OFFCURVE",
"129 280 OFFCURVE",
"129 362 CURVE SMOOTH",
"129 439 OFFCURVE",
"187 489 OFFCURVE",
"261 489 CURVE SMOOTH",
"285 489 OFFCURVE",
"309 483 OFFCURVE",
"326 476 CURVE",
"353 540 LINE",
"326 554 OFFCURVE",
"299 566 OFFCURVE",
"252 566 CURVE SMOOTH",
"143 566 OFFCURVE",
"49 477 OFFCURVE",
"49 370 CURVE SMOOTH",
"49 260 OFFCURVE",
"129 173 OFFCURVE",
"250 163 CURVE",
"103 54 LINE",
"155 -10 LINE"
);
},
{
closed = 1;
nodes = (
"346 -90 OFFCURVE",
"366 -68 OFFCURVE",
"366 -30 CURVE SMOOTH",
"366 7 OFFCURVE",
"346 28 OFFCURVE",
"311 28 CURVE SMOOTH",
"277 28 OFFCURVE",
"257 7 OFFCURVE",
"257 -30 CURVE SMOOTH",
"257 -68 OFFCURVE",
"277 -90 OFFCURVE",
"311 -90 CURVE SMOOTH"
);
}
);
width = 573;
}
);
script = kthi;
category = Letter;
},
{
glyphname = ktRaHook;
lastChange = "2019-10-25 13:21:48 +0000";
layers = (
{
layerId = UUID0;
paths = (
{
closed = 1;
nodes = (
"254 933 OFFCURVE",
"205 960 OFFCURVE",
"142 960 CURVE SMOOTH",
"61 960 OFFCURVE",
"2 909 OFFCURVE",
"2 832 CURVE SMOOTH",
"2 754 OFFCURVE",
"44 709 OFFCURVE",
"128 678 CURVE",
"163 725 LINE",
"106 747 OFFCURVE",
"83 785 OFFCURVE",
"83 824 CURVE SMOOTH",
"83 862 OFFCURVE",
"107 889 OFFCURVE",
"150 889 CURVE SMOOTH",
"186 889 OFFCURVE",
"220 875 OFFCURVE",
"251 847 CURVE",
"293 896 LINE"
);
}
);
width = 0;
}
);
note = ktRaHook;
script = kthi;
category = Mark;
},
{
glyphname = ktRaAnusvara;
lastChange = "2019-10-25 13:21:48 +0000";
layers = (
{
layerId = UUID0;
paths = (
{
closed = 1;
nodes = (
"267 959 OFFCURVE",
"207 970 OFFCURVE",
"155 970 CURVE SMOOTH",
"69 970 OFFCURVE",
"2 913 OFFCURVE",
"2 832 CURVE SMOOTH",
"2 754 OFFCURVE",
"44 709 OFFCURVE",
"128 678 CURVE",
"163 725 LINE",
"106 747 OFFCURVE",
"83 785 OFFCURVE",
"83 824 CURVE SMOOTH",
"83 868 OFFCURVE",
"114 899 OFFCURVE",
"167 899 CURVE SMOOTH",
"215 899 OFFCURVE",
"247 886 OFFCURVE",
"270 875 CURVE",
"304 931 LINE"
);
},
{
closed = 1;
nodes = (
"183 745 OFFCURVE",
"203 723 OFFCURVE",
"236 723 CURVE SMOOTH",
"271 723 OFFCURVE",
"292 745 OFFCURVE",
"292 783 CURVE SMOOTH",
"292 820 OFFCURVE",
"271 841 OFFCURVE",
"236 841 CURVE SMOOTH",
"202 841 OFFCURVE",
"183 820 OFFCURVE",
"183 783 CURVE SMOOTH"
);
}
);
width = 0;
}
);
note = ktRaAnusvara;
script = kthi;
category = Mark;
},
{
glyphname = ktRaCandrabindu;
lastChange = "2019-10-25 13:21:48 +0000";
layers = (
{
layerId = UUID0;
paths = (
{
closed = 1;
nodes = (
"282 794 OFFCURVE",
"261 776 OFFCURVE",
"229 776 CURVE SMOOTH",
"196 776 OFFCURVE",
"169 796 OFFCURVE",
"144 819 CURVE",
"118 792 LINE",
"150 758 OFFCURVE",
"194 734 OFFCURVE",
"237 734 CURVE SMOOTH",
"279 734 OFFCURVE",
"313 754 OFFCURVE",
"338 790 CURVE",
"298 817 LINE"
);
},
{
closed = 1;
nodes = (
"194 815 OFFCURVE",
"206 804 OFFCURVE",
"225 804 CURVE SMOOTH",
"244 804 OFFCURVE",
"256 815 OFFCURVE",
"256 834 CURVE SMOOTH",
"256 854 OFFCURVE",
"244 865 OFFCURVE",
"225 865 CURVE SMOOTH",
"206 865 OFFCURVE",
"194 854 OFFCURVE",
"194 834 CURVE SMOOTH"
);
},
{
closed = 1;
nodes = (
"267 959 OFFCURVE",
"207 970 OFFCURVE",
"155 970 CURVE SMOOTH",
"69 970 OFFCURVE",
"2 913 OFFCURVE",
"2 832 CURVE SMOOTH",
"2 754 OFFCURVE",
"44 709 OFFCURVE",
"128 678 CURVE",
"163 725 LINE",
"106 747 OFFCURVE",
"83 785 OFFCURVE",
"83 824 CURVE SMOOTH",
"83 868 OFFCURVE",
"114 899 OFFCURVE",
"167 899 CURVE SMOOTH",
"215 899 OFFCURVE",
"247 886 OFFCURVE",
"270 875 CURVE",
"304 931 LINE"
);
}
);
width = 0;
}
);
note = ktRaCandrabindu;
script = kthi;
category = Mark;
},
{
glyphname = uniA830;
lastChange = "2019-10-25 13:21:48 +0000";
layers = (
{
layerId = UUID0;
paths = (
{
closed = 1;
nodes = (
"159 0 LINE",
"159 622 LINE",
"78 622 LINE",
"78 0 LINE"
);
}
);
width = 237;
}
);
note = uniA830;
unicode = A830;
script = kthi;
},
{
glyphname = uniA831;
lastChange = "2019-10-25 13:21:48 +0000";
layers = (
{
layerId = UUID0;
paths = (
{
closed = 1;
nodes = (
"359 0 LINE",
"359 622 LINE",
"278 622 LINE",
"278 0 LINE"
);
},
{
closed = 1;
nodes = (
"159 0 LINE",
"159 622 LINE",
"78 622 LINE",
"78 0 LINE"
);
}
);
width = 437;
}
);
note = uniA831;
unicode = A831;
script = kthi;
},
